<?xml version="1.0" encoding="utf-8"?>
<!-- Generator: Adobe Illustrator 16.0.4, SVG Export Plug-In . SVG Version: 6.00 Build 0)  -->
<!DOCTYPE svg PUBLIC "-//W3C//DTD SVG 1.1//EN" "http://www.w3.org/Graphics/SVG/1.1/DTD/svg11.dtd">
<svg version="1.1" id="Layer_1" xmlns="http://www.w3.org/2000/svg" xmlns:xlink="http://www.w3.org/1999/xlink" x="0px" y="0px"
	 width="100%" height="100%" viewBox="0 -2.842 434.43 74.775" enable-background="new 0 -2.842 434.43 74.775"
	 xml:space="preserve">
<g>
	<path fill="#ffffff" d="M248.626,47.808H228.07V32.031h18.427c0.522,0,0.947-0.424,0.947-0.947v-5.251c0-0.523-0.425-0.947-0.947-0.947H228.07
		V10.529h20.201c0.522,0,0.946-0.424,0.946-0.947V4.33c0-0.523-0.424-0.947-0.946-0.947h-27.038c-0.522,0-0.946,0.424-0.946,0.947
		v49.675c0,0.523,0.424,0.947,0.946,0.947h27.393c0.523,0,0.947-0.424,0.947-0.947v-5.251
		C249.573,48.231,249.149,47.808,248.626,47.808z"/>
	<path fill="#ffffff" d="M276.25,35.562l11.613-16.493c0.203-0.29,0.229-0.667,0.066-0.981s-0.487-0.511-0.841-0.511h-6.387
		c-0.309,0-0.597,0.15-0.775,0.403l-6.883,9.793c-0.026,0.037-0.049,0.076-0.07,0.116l-1.198,2.356l-1.151-2.345
		c-0.021-0.042-0.045-0.082-0.07-0.12l-6.742-9.793c-0.176-0.257-0.468-0.411-0.779-0.411h-6.955c-0.352,0-0.674,0.195-0.838,0.507
		c-0.163,0.312-0.142,0.688,0.059,0.978l11.548,16.773l-12.395,17.629c-0.203,0.287-0.229,0.666-0.066,0.98
		c0.164,0.313,0.486,0.51,0.841,0.51h6.316c0.307,0,0.594-0.148,0.771-0.398l7.664-10.785c0.025-0.037,0.049-0.076,0.07-0.115
		l1.344-2.603l1.296,2.591c0.021,0.041,0.044,0.082,0.07,0.119l7.522,10.787c0.178,0.253,0.468,0.404,0.777,0.404h6.741
		c0.351,0,0.674-0.194,0.838-0.506c0.163-0.311,0.141-0.688-0.059-0.977L276.25,35.562z"/>
	<path fill="#ffffff" d="M299.152,2.815c-1.402,0-2.578,0.495-3.492,1.469c-0.9,0.957-1.358,2.119-1.358,3.452c0,1.351,0.469,2.487,1.389,3.376
		c0.913,0.883,2.077,1.332,3.462,1.332c1.367,0,2.557-0.438,3.537-1.302c1.012-0.895,1.526-2.041,1.526-3.406
		c0-1.349-0.503-2.521-1.494-3.483C301.737,3.3,300.537,2.815,299.152,2.815z"/>
	<path fill="#ffffff" d="M302.133,17.576h-5.678c-0.522,0-0.946,0.424-0.946,0.947v35.482c0,0.523,0.424,0.947,0.946,0.947h5.678
		c0.523,0,0.947-0.424,0.947-0.947V18.523C303.08,18,302.656,17.576,302.133,17.576z"/>
	<path fill="#ffffff" d="M331.709,48.202c-0.075-0.256-0.257-0.469-0.497-0.586c-0.241-0.114-0.521-0.124-0.768-0.023
		c-1.022,0.42-1.949,0.756-2.758,1.002c-0.757,0.23-1.715,0.348-2.846,0.348c-1.494,0-2.034-0.609-2.312-1.068
		c-0.358-0.592-0.785-1.893-0.785-4.727V24.438h8.704c0.522,0,0.947-0.424,0.947-0.947v-4.968c0-0.523-0.425-0.947-0.947-0.947
		h-8.704v-7.71c0-0.297-0.14-0.578-0.378-0.756c-0.237-0.18-0.547-0.237-0.831-0.154l-5.677,1.632
		c-0.406,0.117-0.686,0.488-0.686,0.91v6.078h-4.589c-0.522,0-0.946,0.424-0.946,0.947v4.968c0,0.523,0.424,0.947,0.946,0.947h4.589
		v19.774c0,4.074,0.639,6.938,1.954,8.752c1.364,1.885,3.677,2.841,6.869,2.841c1.818,0,3.542-0.202,5.126-0.597
		c1.571-0.393,3.041-0.916,4.369-1.556c0.419-0.202,0.629-0.676,0.497-1.122L331.709,48.202z"/>
	<path fill="#ffffff" d="M363.625,22.162c-1.367-1.746-3.124-3.106-5.222-4.042c-2.077-0.926-4.535-1.395-7.305-1.395
		c-5.286,0-9.41,1.726-12.258,5.129c-2.808,3.353-4.23,8.201-4.23,14.411c0,2.863,0.321,5.513,0.955,7.873
		c0.644,2.406,1.655,4.502,3.007,6.229c1.369,1.75,3.126,3.109,5.222,4.043c2.075,0.926,4.534,1.396,7.305,1.396
		c5.284,0,9.408-1.726,12.258-5.13c2.808-3.354,4.23-8.203,4.23-14.41c0-2.858-0.321-5.507-0.955-7.875
		C365.985,25.981,364.974,23.886,363.625,22.162z M359.803,36.265c0,4.322-0.745,7.577-2.217,9.676
		c-1.416,2.02-3.505,3.002-6.485,3.002h-0.002c-1.565,0-2.903-0.334-3.976-0.994c-1.097-0.675-1.996-1.574-2.669-2.672
		c-0.697-1.131-1.219-2.486-1.549-4.029c-0.339-1.584-0.511-3.259-0.511-4.982c0-8.531,2.814-12.679,8.606-12.679l0.098,0
		c1.567,0,2.908,0.325,3.985,0.966c1.092,0.651,1.986,1.536,2.659,2.627c0.697,1.136,1.219,2.492,1.548,4.031
		C359.631,32.795,359.803,34.497,359.803,36.265z"/>
	<path fill="#ffffff" d="M392.967,34.983c-1.314-0.892-2.772-1.621-4.336-2.168c-1.468-0.512-2.831-1.041-4.052-1.571
		c-1.168-0.506-2.157-1.083-2.94-1.714c-0.622-0.5-0.924-1.199-0.924-2.136c0-1.424,0.358-2.408,1.066-2.926
		c0.8-0.585,2.151-0.881,4.019-0.881c1.657,0,3.235,0.192,4.692,0.572c1.471,0.386,2.739,0.831,3.77,1.322
		c0.252,0.12,0.543,0.125,0.797,0.009c0.254-0.114,0.444-0.333,0.521-0.602l1.349-4.684c0.127-0.444-0.084-0.915-0.501-1.115
		c-1.323-0.637-2.897-1.195-4.677-1.66c-1.798-0.468-4.039-0.705-6.662-0.705c-3.661,0-6.584,0.872-8.688,2.591
		c-2.161,1.766-3.257,4.532-3.257,8.22c0,2.269,0.486,4.121,1.445,5.506c0.922,1.331,2.077,2.436,3.436,3.281
		c1.31,0.815,2.763,1.493,4.317,2.011c1.448,0.483,2.807,0.998,4.038,1.53c1.147,0.5,2.118,1.119,2.886,1.843
		c0.66,0.624,0.98,1.49,0.98,2.647c0,1.742-0.502,2.894-1.531,3.52c-1.169,0.709-2.698,1.068-4.547,1.068
		c-1.701,0-3.4-0.249-5.054-0.742c-1.674-0.496-3.041-1.042-4.062-1.619c-0.243-0.139-0.535-0.162-0.798-0.062
		c-0.263,0.099-0.468,0.308-0.561,0.572l-1.704,4.826c-0.153,0.435,0.029,0.918,0.434,1.143c1.339,0.744,3.009,1.393,4.964,1.93
		c1.966,0.541,4.366,0.815,7.135,0.815c2.177,0,4.109-0.294,5.743-0.872c1.649-0.582,3.059-1.398,4.19-2.428
		c1.148-1.043,2.008-2.312,2.555-3.772c0.535-1.425,0.807-2.97,0.807-4.591c0-2.305-0.482-4.211-1.433-5.664
		C395.468,37.078,394.318,35.902,392.967,34.983z"/>
	<path fill="#ffffff" d="M431.417,53.887c-0.359-1.257-0.611-2.654-0.747-4.153c-0.141-1.527-0.21-3.169-0.21-4.883
		c0-2.385,0.071-4.945,0.212-7.615c0.143-2.702,0.214-5.512,0.214-8.352c0-1.33-0.138-2.683-0.409-4.021
		c-0.287-1.406-0.868-2.713-1.726-3.884c-0.875-1.192-2.148-2.167-3.785-2.896c-1.606-0.713-3.729-1.075-6.311-1.075
		c-2.657,0-5.244,0.27-7.688,0.803c-2.482,0.541-4.692,1.392-6.569,2.527c-0.399,0.242-0.563,0.738-0.387,1.17l1.775,4.329
		c0.103,0.254,0.313,0.45,0.573,0.539c0.26,0.087,0.546,0.058,0.781-0.082c0.609-0.358,1.332-0.688,2.149-0.983
		c0.829-0.3,1.723-0.56,2.654-0.77c0.925-0.21,1.852-0.377,2.754-0.496c0.877-0.116,1.706-0.175,2.466-0.175
		c2.435,0,4.168,0.444,5.008,1.284c0.852,0.853,1.284,2.466,1.284,4.794c0,0.841-0.041,1.775-0.123,2.786
		c-0.37-0.028-0.736-0.043-1.094-0.043h-1.953c-2.64,0-5.091,0.184-7.285,0.545c-2.246,0.37-4.207,1.001-5.83,1.875
		c-1.68,0.902-3.007,2.141-3.943,3.676c-0.94,1.539-1.416,3.461-1.416,5.708c0,1.688,0.303,3.226,0.896,4.569
		s1.421,2.512,2.459,3.471c1.034,0.959,2.275,1.704,3.689,2.218c1.4,0.509,2.93,0.767,4.547,0.767c1.59,0,3.038-0.18,4.299-0.531
		c1.246-0.35,2.366-0.795,3.326-1.325c0.973-0.538,1.82-1.165,2.519-1.863c0.29-0.29,0.563-0.586,0.814-0.884l1.05,3.502
		c0.12,0.401,0.49,0.676,0.907,0.676h4.187c0.299,0,0.578-0.141,0.757-0.377C431.44,54.479,431.499,54.172,431.417,53.887z
		 M423.243,39v4.815c-0.207,0.488-0.513,1.002-0.91,1.533c-0.436,0.58-0.998,1.121-1.675,1.608c-0.678,0.486-1.502,0.897-2.45,1.221
		c-0.937,0.319-2.028,0.48-3.243,0.48c-1.618,0-2.896-0.442-3.908-1.353c-0.982-0.885-1.46-1.989-1.46-3.377
		c0-0.967,0.243-1.734,0.744-2.346c0.535-0.656,1.272-1.184,2.189-1.572c0.977-0.411,2.132-0.699,3.434-0.855
		c1.355-0.159,2.762-0.241,4.183-0.241c0.65,0,1.314,0.012,1.988,0.035C422.508,38.963,422.878,38.979,423.243,39z"/>
	<path fill="#ffffff" d="M34.068,47.833c-0.086-0.279-0.296-0.504-0.569-0.607s-0.579-0.075-0.829,0.076c-0.88,0.537-1.988,0.986-3.296,1.338
		c-1.314,0.353-2.888,0.531-4.676,0.531c-1.953,0-3.78-0.355-5.432-1.054c-1.634-0.692-3.08-1.749-4.297-3.138
		c-1.227-1.402-2.208-3.191-2.917-5.318c-0.717-2.151-1.08-4.709-1.08-7.602c0-3.223,0.383-5.967,1.139-8.155
		c0.746-2.162,1.744-3.927,2.967-5.246c1.211-1.306,2.598-2.258,4.121-2.829c1.559-0.584,3.154-0.88,4.746-0.88
		c3.554,0,6.302,0.472,8.167,1.404c0.255,0.128,0.553,0.134,0.812,0.017c0.259-0.116,0.452-0.343,0.526-0.617l1.254-4.64
		c0.125-0.462-0.114-0.944-0.558-1.125c-1.187-0.483-2.624-0.871-4.272-1.153c-1.637-0.28-3.757-0.422-6.305-0.422
		c-2.441,0-4.872,0.442-7.227,1.314c-2.377,0.88-4.548,2.293-6.454,4.199c-1.905,1.905-3.453,4.379-4.603,7.351
		c-1.145,2.959-1.726,6.587-1.726,10.781c0,4.02,0.524,7.554,1.559,10.502c1.043,2.977,2.481,5.463,4.276,7.387
		c1.802,1.936,3.944,3.396,6.367,4.344c2.399,0.938,5.005,1.413,7.744,1.413c2.223,0,4.352-0.195,6.326-0.583
		c2.061-0.402,3.797-1.137,5.16-2.185c0.313-0.239,0.445-0.649,0.329-1.028L34.068,47.833z"/>
	<path fill="#ffffff" d="M62.563,25.801c-1.217-1.556-2.783-2.769-4.654-3.604c-1.851-0.825-4.037-1.243-6.499-1.243
		c-4.705,0-8.378,1.539-10.915,4.572c-2.498,2.983-3.765,7.291-3.765,12.804c0,2.539,0.286,4.89,0.848,6.984
		c0.572,2.139,1.474,4.004,2.678,5.544c1.221,1.56,2.786,2.772,4.654,3.604c1.85,0.825,4.037,1.242,6.5,1.242
		c4.703,0,8.375-1.539,10.915-4.572c2.497-2.984,3.764-7.292,3.764-12.803c0-2.532-0.285-4.883-0.848-6.986
		C64.666,29.2,63.765,27.335,62.563,25.801z M58.99,38.33c0,3.796-0.651,6.651-1.938,8.487c-1.229,1.752-3.045,2.604-5.64,2.604
		c-0.001,0-0.002,0-0.002,0c-1.363,0-2.524-0.289-3.455-0.861c-0.954-0.586-1.735-1.368-2.323-2.324
		c-0.608-0.988-1.063-2.176-1.354-3.527c-0.298-1.393-0.449-2.866-0.449-4.378c0-7.464,2.451-11.092,7.495-11.092l0.086,0
		c1.365,0,2.531,0.282,3.465,0.837c0.95,0.568,1.728,1.337,2.312,2.285c0.61,0.995,1.066,2.182,1.355,3.528
		C58.84,35.28,58.99,36.774,58.99,38.33z"/>
	<path fill="#ffffff" d="M113.287,24.01c-0.907-1.146-2.071-1.958-3.458-2.413c-1.304-0.426-2.901-0.643-4.746-0.643
		c-2.281,0-4.363,0.503-6.189,1.495c-1.314,0.715-2.436,1.636-3.35,2.749c-0.71-1.312-1.603-2.3-2.667-2.946
		c-1.42-0.861-3.241-1.298-5.413-1.298c-2.54,0-4.65,0.476-6.273,1.413c-1.143,0.661-2.195,1.462-3.144,2.395l-0.574-2.333
		c-0.104-0.423-0.483-0.721-0.919-0.721h-3.512c-0.523,0-0.947,0.424-0.947,0.947v31.351c0,0.523,0.424,0.947,0.947,0.947h5.017
		c0.522,0,0.946-0.424,0.946-0.947V32.572c0.457-1.522,1.25-2.81,2.357-3.827c1.105-1.014,2.466-1.506,4.157-1.506
		c1.088,0,1.96,0.173,2.59,0.513c0.604,0.327,1.06,0.808,1.391,1.47c0.366,0.736,0.62,1.676,0.754,2.793
		c0.142,1.196,0.213,2.624,0.213,4.246v17.744c0,0.523,0.424,0.947,0.947,0.947h5.016c0.523,0,0.947-0.424,0.947-0.947V33.172
		c0.461-1.937,1.211-3.436,2.229-4.456c0.996-0.995,2.377-1.478,4.222-1.478c1.108,0,1.999,0.15,2.646,0.446
		c0.603,0.277,1.061,0.688,1.402,1.257c0.369,0.615,0.621,1.421,0.751,2.395c0.141,1.067,0.212,2.344,0.212,3.795v18.873
		c0,0.523,0.424,0.947,0.947,0.947h5.016c0.523,0,0.947-0.424,0.947-0.947V35.194c0-2.678-0.187-4.937-0.554-6.712
		C114.812,26.631,114.17,25.127,113.287,24.01z"/>
	<path fill="#ffffff" d="M137.562,20.955c-2.105,0-4.011,0.425-5.663,1.263c-1.16,0.588-2.18,1.366-3.046,2.323l-0.53-2.116
		c-0.104-0.422-0.483-0.718-0.918-0.718h-3.448c-0.523,0-0.947,0.424-0.947,0.947v43.892c0,0.523,0.424,0.947,0.947,0.947h5.017
		c0.522,0,0.947-0.424,0.947-0.947V54.898c0.615,0.218,1.209,0.386,1.773,0.504c0.971,0.204,2.234,0.303,3.862,0.303
		c2.296,0,4.419-0.429,6.312-1.274c1.897-0.847,3.539-2.069,4.879-3.634c1.33-1.552,2.373-3.464,3.097-5.683
		c0.718-2.195,1.082-4.689,1.082-7.411c0-5.8-1.107-10.075-3.292-12.707C145.405,22.314,142.017,20.955,137.562,20.955z
		 M143.826,37.642c0,3.941-0.786,6.939-2.337,8.913c-1.517,1.929-3.52,2.866-6.121,2.866c-1.481,0-2.67-0.142-3.532-0.423
		c-0.699-0.228-1.343-0.54-1.916-0.93V33.106c0.458-2,1.227-3.496,2.287-4.449c1.049-0.941,2.533-1.419,4.415-1.419
		c1.339,0,2.466,0.237,3.35,0.704c0.888,0.472,1.596,1.118,2.161,1.973c0.579,0.879,1.008,1.971,1.274,3.247
		C143.686,34.497,143.826,36.003,143.826,37.642z"/>
	<path fill="#ffffff" d="M173.993,21.742c-3.921-1.085-6.982-0.812-9.103,0.669c-0.765,0.534-1.464,1.209-2.092,2.016l-0.491-1.999
		c-0.104-0.423-0.483-0.721-0.92-0.721h-3.511c-0.523,0-0.947,0.424-0.947,0.947v31.351c0,0.523,0.424,0.947,0.947,0.947h5.016
		c0.523,0,0.947-0.424,0.947-0.947V32.141c0.226-1.271,0.764-2.293,1.646-3.122c0.87-0.818,2.053-1.216,3.615-1.216
		c1.021,0,2.122,0.194,3.274,0.578c0.255,0.086,0.533,0.058,0.767-0.075c0.233-0.132,0.399-0.357,0.457-0.62l1.066-4.828
		C174.773,22.367,174.478,21.876,173.993,21.742z"/>
	<path fill="#ffffff" d="M201.583,50.22c-0.123-1.34-0.185-2.787-0.185-4.303c0-2.111,0.062-4.373,0.187-6.723c0.126-2.381,0.189-4.867,0.189-7.385
		c0-1.182-0.123-2.384-0.364-3.576c-0.257-1.258-0.776-2.427-1.544-3.474c-0.785-1.07-1.925-1.942-3.389-2.594
		c-1.434-0.637-3.324-0.959-5.619-0.959c-2.355,0-4.649,0.24-6.817,0.712c-2.204,0.481-4.169,1.237-5.838,2.247
		c-0.399,0.242-0.563,0.738-0.387,1.169l1.568,3.825c0.104,0.254,0.313,0.45,0.573,0.539c0.262,0.087,0.546,0.057,0.782-0.081
		c0.534-0.313,1.166-0.603,1.88-0.86c0.729-0.264,1.514-0.491,2.333-0.677c0.817-0.185,1.633-0.332,2.424-0.436
		c3.22-0.427,5.562,0.001,6.511,0.948c0.73,0.732,1.102,2.131,1.102,4.159c0,0.711-0.033,1.496-0.099,2.343
		c-0.293-0.02-0.582-0.029-0.867-0.029H192.3c-2.34,0-4.512,0.162-6.455,0.482c-1.996,0.329-3.741,0.891-5.187,1.668
		c-1.502,0.81-2.688,1.916-3.525,3.288c-0.841,1.38-1.268,3.095-1.268,5.103c0,1.506,0.27,2.879,0.802,4.081
		c0.53,1.202,1.271,2.245,2.198,3.103c0.924,0.856,2.034,1.523,3.298,1.981c1.25,0.454,2.614,0.686,4.055,0.686
		c1.415,0,2.703-0.159,3.829-0.476c1.107-0.309,2.104-0.706,2.962-1.18c0.867-0.479,1.624-1.039,2.249-1.664
		c0.209-0.209,0.407-0.421,0.594-0.634l0.87,2.901c0.121,0.4,0.489,0.675,0.907,0.675h3.699c0.298,0,0.577-0.14,0.757-0.376
		c0.179-0.238,0.236-0.546,0.153-0.832C201.923,52.769,201.702,51.54,201.583,50.22z M194.802,40.852v4.128
		c-0.18,0.416-0.442,0.855-0.783,1.31c-0.379,0.507-0.869,0.978-1.457,1.397c-0.589,0.425-1.308,0.783-2.135,1.065
		c-0.816,0.278-1.769,0.419-2.83,0.419c-1.401,0-2.506-0.382-3.379-1.168c-0.844-0.76-1.254-1.708-1.254-2.901
		c0-0.827,0.206-1.481,0.632-2.001c0.463-0.566,1.1-1.022,1.893-1.358c0.854-0.36,1.865-0.612,3.004-0.747
		c1.192-0.142,2.431-0.214,3.682-0.214c0.575,0,1.16,0.012,1.754,0.031C194.222,40.823,194.513,40.836,194.802,40.852z"/>
	<path fill="#ffffff" d="M433.433,71.934H0.996C0.446,71.934,0,71.487,0,70.937s0.446-0.996,0.996-0.996h432.437c0.551,0,0.997,0.445,0.997,0.996
		S433.983,71.934,433.433,71.934z"/>
	<path fill="#ffffff" d="M433.433-0.848H0.996C0.446-0.848,0-1.294,0-1.845c0-0.551,0.446-0.997,0.996-0.997h432.437
		c0.551,0,0.997,0.446,0.997,0.997C434.43-1.294,433.983-0.848,433.433-0.848z"/>
</g>
</svg>
