<?xml version="1.0" encoding="utf-8"?>
<!-- Generator: Adobe Illustrator 16.0.4, SVG Export Plug-In . SVG Version: 6.00 Build 0)  -->
<!DOCTYPE svg PUBLIC "-//W3C//DTD SVG 1.0//EN" "http://www.w3.org/TR/2001/REC-SVG-20010904/DTD/svg10.dtd">
<svg version="1.0" id="Layer_1" xmlns="http://www.w3.org/2000/svg" xmlns:xlink="http://www.w3.org/1999/xlink" x="0px" y="0px"
	 width="100%" height="100%" viewBox="0 0 413.308 74.708" enable-background="new 0 0 413.308 74.708"
	 xml:space="preserve">
<g>
	<path fill="#FFFFFF" d="M22.123,58.009c-1.007,0.619-2.23,1.168-3.633,1.633c-1.377,0.453-2.749,0.683-4.077,0.683
		c-2.188,0-3.736-0.48-4.601-1.428c-0.901-0.987-1.339-2.247-1.339-3.853c0-1.212,0.221-2.295,0.658-3.221
		c0.466-0.988,1.054-1.936,1.744-2.812c0.725-0.92,1.513-1.836,2.344-2.726c0.886-0.948,1.721-1.981,2.481-3.069
		c0.776-1.111,1.437-2.357,1.963-3.704c0.541-1.383,0.814-2.991,0.814-4.779v-0.659c0-0.295-0.026-0.578-0.077-0.841l-0.15-0.769
		h-5.687v0.95c0,1.538-0.246,2.882-0.73,3.995c-0.505,1.16-1.15,2.251-1.918,3.243c-0.786,1.018-1.648,2.008-2.562,2.942
		c-0.964,0.983-1.879,2.054-2.72,3.183c-0.864,1.159-1.589,2.461-2.157,3.867c-0.582,1.447-0.877,3.148-0.877,5.059
		c0,1.508,0.242,2.92,0.719,4.197c0.487,1.305,1.238,2.459,2.233,3.433c0.991,0.968,2.231,1.733,3.687,2.278
		c1.438,0.536,3.112,0.809,4.976,0.809c2.564,0,4.758-0.288,6.521-0.855c1.738-0.558,3.418-1.324,4.995-2.277l0.715-0.434
		l-2.396-5.414L22.123,58.009z"/>
	<path fill="#FFFFFF" d="M15.191,29.991c1.334,0,2.428-0.416,3.25-1.237c0.82-0.821,1.236-1.894,1.236-3.188
		c0-1.338-0.419-2.424-1.248-3.229c-0.821-0.794-1.91-1.196-3.238-1.196c-1.294,0-2.356,0.406-3.158,1.208
		c-0.801,0.801-1.207,1.884-1.207,3.218c0,1.29,0.403,2.359,1.197,3.178C12.824,29.571,13.89,29.991,15.191,29.991z"/>
	<path fill="#FFFFFF" d="M56.697,46.323c-0.838,0.51-1.894,0.938-3.139,1.271c-1.251,0.336-2.75,0.507-4.457,0.507
		c-1.86,0-3.6-0.337-5.171-1.003c-1.557-0.658-2.932-1.664-4.089-2.986c-1.169-1.336-2.104-3.041-2.779-5.067
		c-0.683-2.05-1.029-4.489-1.029-7.249c0-3.075,0.365-5.692,1.085-7.778c0.712-2.061,1.663-3.742,2.825-4.997
		c1.151-1.242,2.47-2.148,3.92-2.691c1.484-0.557,3.004-0.838,4.52-0.838c3.389,0,6.008,0.45,7.783,1.337l1.039,0.52l1.72-6.366
		l-0.778-0.317c-1.135-0.462-2.512-0.833-4.093-1.105c-1.563-0.268-3.592-0.403-6.031-0.403c-2.338,0-4.666,0.423-6.921,1.258
		c-2.277,0.844-4.358,2.197-6.184,4.023c-1.824,1.824-3.307,4.192-4.407,7.039c-1.096,2.831-1.652,6.303-1.652,10.319
		c0,3.844,0.502,7.226,1.491,10.05c0.998,2.849,2.376,5.229,4.096,7.074c1.728,1.854,3.78,3.254,6.102,4.161
		c2.297,0.897,4.792,1.354,7.416,1.354c2.127,0,4.164-0.188,6.054-0.558c1.975-0.386,3.64-1.091,4.949-2.095l0.524-0.401
		l-1.751-5.693L56.697,46.323z"/>
	<path fill="#FFFFFF" d="M88.425,48.661c-0.098-1.51-0.147-2.99-0.147-4.402v-22.4h-6.693v20.791
		c-0.287,0.754-0.649,1.475-1.078,2.145c-0.454,0.707-0.985,1.339-1.577,1.877c-0.573,0.521-1.234,0.936-1.965,1.23
		c-0.72,0.292-1.568,0.439-2.519,0.439c-0.998,0-1.817-0.164-2.434-0.489c-0.599-0.315-1.061-0.771-1.412-1.395
		c-0.38-0.672-0.655-1.55-0.817-2.61c-0.171-1.125-0.258-2.459-0.258-3.962V21.859h-6.694v19.044c0,2.545,0.222,4.692,0.661,6.38
		c0.453,1.75,1.144,3.178,2.053,4.243c0.933,1.093,2.109,1.865,3.496,2.297c1.306,0.406,2.822,0.612,4.507,0.612
		c2.576,0,4.749-0.578,6.458-1.718c1.159-0.771,2.163-1.689,3-2.739l0.946,3.738h5.203l-0.237-1.144
		C88.687,51.464,88.521,50.147,88.425,48.661z"/>
	<path fill="#FFFFFF" d="M117.992,49.146c-0.117-1.279-0.176-2.662-0.176-4.107c0-2.018,0.06-4.178,0.178-6.421
		c0.12-2.295,0.181-4.67,0.181-7.06c0-1.135-0.118-2.288-0.35-3.425c-0.246-1.208-0.745-2.331-1.482-3.338
		c-0.755-1.028-1.85-1.867-3.256-2.493c-1.375-0.611-3.188-0.921-5.389-0.921c-2.255,0-4.45,0.229-6.523,0.681
		c-2.112,0.46-3.993,1.185-5.592,2.153l-0.696,0.421l2.222,5.421l0.945-0.556c0.505-0.297,1.107-0.573,1.789-0.819
		c0.695-0.251,1.443-0.468,2.224-0.645c0.785-0.178,1.562-0.317,2.312-0.416c3.081-0.407,5.289,0,6.184,0.893
		c0.68,0.681,1.04,2.044,1.04,3.942c0,0.667-0.03,1.4-0.091,2.191c-0.265-0.017-0.527-0.026-0.786-0.026h-1.647
		c-2.24,0-4.318,0.156-6.176,0.462c-1.912,0.315-3.583,0.853-4.97,1.599c-1.442,0.777-2.581,1.839-3.386,3.158
		c-0.808,1.324-1.217,2.973-1.217,4.898c0,1.445,0.259,2.764,0.77,3.919c0.51,1.154,1.221,2.156,2.111,2.979
		c0.889,0.823,1.954,1.464,3.167,1.904c1.2,0.436,2.509,0.656,3.889,0.656c1.355,0,2.59-0.153,3.671-0.455
		c1.063-0.297,2.019-0.678,2.839-1.132c0.835-0.462,1.562-0.999,2.16-1.598c0.181-0.181,0.353-0.363,0.516-0.548l1.012,3.373h5.502
		l-0.348-1.213C118.315,51.569,118.105,50.399,117.992,49.146z M111.421,40.239v3.893c-0.169,0.393-0.417,0.807-0.739,1.235
		c-0.358,0.478-0.823,0.924-1.382,1.326c-0.558,0.401-1.24,0.741-2.028,1.011c-0.775,0.264-1.68,0.397-2.689,0.397
		c-1.327,0-2.374-0.36-3.199-1.104c-0.796-0.716-1.183-1.611-1.183-2.738c0-0.779,0.194-1.396,0.594-1.885
		c0.437-0.534,1.04-0.967,1.791-1.284c0.812-0.343,1.773-0.581,2.858-0.711c1.135-0.135,2.317-0.202,3.513-0.202
		c0.548,0,1.107,0.01,1.674,0.028C110.896,40.215,111.16,40.226,111.421,40.239z"/>
	<polygon fill="#FFFFFF" points="112.483,11.216 112.483,8.678 105.555,8.678 101.268,19.505 105.942,19.505 	"/>
	<path fill="#FFFFFF" d="M148.533,24.05c-0.933-1.093-2.12-1.866-3.529-2.298c-1.324-0.406-2.87-0.611-4.593-0.611
		c-2.375,0-4.464,0.448-6.21,1.331c-1.208,0.612-2.257,1.354-3.134,2.214l-0.695-2.826h-5.05v31.858h6.693V32.431
		c0.507-1.475,1.369-2.721,2.561-3.707c1.214-1.002,2.73-1.49,4.637-1.49c2.048,0,3.395,0.617,4.118,1.886
		c0.812,1.426,1.223,3.637,1.223,6.57v18.026h6.694V34.672c0-2.545-0.222-4.692-0.661-6.379
		C150.134,26.544,149.443,25.117,148.533,24.05z"/>
	<path fill="#FFFFFF" d="M172.644,47.214c-0.857,0.351-1.636,0.633-2.315,0.84c-0.624,0.191-1.417,0.287-2.357,0.287
		c-1.186,0-1.608-0.473-1.824-0.829c-0.292-0.483-0.641-1.554-0.641-3.912V27.954h8.148v-6.095h-8.148v-7.621l-6.694,1.925v5.696
		h-4.673v6.095h4.673v16.545c0,3.473,0.549,5.919,1.679,7.477c1.182,1.633,3.175,2.46,5.923,2.46c1.547,0,3.016-0.171,4.364-0.508
		c1.334-0.333,2.585-0.778,3.717-1.323l0.728-0.352l-1.605-5.438L172.644,47.214z"/>
	<path fill="#FFFFFF" d="M200.833,25.789c-1.168-1.493-2.67-2.656-4.466-3.458c-1.772-0.79-3.868-1.191-6.229-1.191
		c-4.509,0-8.03,1.476-10.464,4.385c-2.394,2.858-3.607,6.984-3.607,12.263c0,2.43,0.273,4.679,0.812,6.687
		c0.548,2.05,1.412,3.838,2.566,5.312c1.17,1.496,2.673,2.659,4.465,3.458c1.771,0.789,3.867,1.19,6.228,1.19
		c4.509,0,8.03-1.476,10.465-4.384c2.394-2.86,3.607-6.986,3.607-12.264c0-2.424-0.273-4.674-0.812-6.687
		C202.849,29.049,201.986,27.262,200.833,25.789z M197.337,37.788c0,3.617-0.62,6.337-1.844,8.082
		c-1.165,1.663-2.888,2.472-5.353,2.471c0,0-0.001,0-0.002,0c-1.293,0-2.396-0.274-3.277-0.817
		c-0.906-0.557-1.648-1.298-2.205-2.205c-0.58-0.942-1.013-2.071-1.288-3.356c-0.284-1.324-0.428-2.729-0.428-4.174
		c0-7.102,2.327-10.554,7.115-10.554l0.082,0c1.297,0,2.403,0.267,3.288,0.794c0.915,0.546,1.632,1.256,2.194,2.168
		c0.581,0.946,1.014,2.075,1.288,3.357C197.193,34.879,197.337,36.303,197.337,37.788z"/>
	<path fill="#FFFFFF" d="M245.097,46.386c-0.642,0.499-1.497,0.957-2.546,1.36c-1.021,0.396-2.205,0.595-3.521,0.595
		c-1.505,0-2.77-0.281-3.758-0.836c-1-0.561-1.817-1.315-2.43-2.242c-0.631-0.954-1.088-2.075-1.361-3.333
		c-0.283-1.304-0.428-2.697-0.428-4.142c0-7.102,2.473-10.554,7.559-10.554c1.188,0,2.314,0.14,3.348,0.417s1.986,0.66,2.836,1.138
		l1.004,0.565l1.998-5.998l-0.721-0.374c-1.148-0.594-2.445-1.056-3.855-1.372c-1.4-0.313-3.113-0.472-5.09-0.472
		c-4.471,0-7.963,1.477-10.377,4.388c-2.372,2.858-3.574,6.983-3.574,12.26c0,2.421,0.24,4.662,0.715,6.66
		c0.486,2.053,1.286,3.842,2.377,5.318c1.111,1.502,2.555,2.671,4.289,3.473c1.717,0.793,3.826,1.196,6.271,1.196
		c1.874,0,3.693-0.243,5.408-0.724c1.739-0.488,3.273-1.213,4.56-2.156l0.607-0.445l-2.337-5.483L245.097,46.386z"/>
	<path fill="#FFFFFF" d="M277.992,48.661c-0.098-1.51-0.146-2.99-0.146-4.402v-22.4h-6.693v20.791
		c-0.287,0.754-0.649,1.475-1.078,2.145c-0.454,0.707-0.984,1.339-1.577,1.877c-0.573,0.521-1.234,0.936-1.965,1.23
		c-0.72,0.292-1.567,0.439-2.519,0.439c-0.998,0-1.817-0.164-2.435-0.489c-0.599-0.315-1.061-0.771-1.411-1.395
		c-0.381-0.672-0.656-1.55-0.817-2.61c-0.171-1.125-0.259-2.459-0.259-3.962V21.859h-6.693v19.044c0,2.545,0.222,4.692,0.66,6.38
		c0.453,1.75,1.145,3.178,2.053,4.243c0.934,1.093,2.109,1.865,3.496,2.297c1.307,0.406,2.822,0.612,4.508,0.612
		c2.576,0,4.748-0.578,6.458-1.718c1.159-0.771,2.163-1.689,2.999-2.739l0.947,3.738h5.202l-0.237-1.144
		C278.254,51.464,278.089,50.147,277.992,48.661z"/>
	<path fill="#FFFFFF" d="M305.937,23.497c-1.185-0.921-2.542-1.556-4.033-1.885c-1.42-0.313-2.859-0.472-4.278-0.472
		c-4.505,0-8.034,1.463-10.49,4.349c-2.417,2.841-3.643,6.979-3.643,12.299c0,2.469,0.273,4.729,0.812,6.719
		c0.549,2.029,1.412,3.807,2.566,5.28c1.171,1.497,2.685,2.661,4.498,3.46c1.792,0.788,3.916,1.188,6.314,1.188
		c2.121,0,4.16-0.296,6.062-0.88c1.924-0.593,3.551-1.414,4.837-2.443l0.608-0.486l-2.734-5.285l-0.916,0.862
		c-0.58,0.545-1.495,1.04-2.721,1.474c-1.251,0.441-2.516,0.664-3.758,0.664c-1.627,0-3.008-0.228-4.104-0.678
		c-1.064-0.436-1.934-1.065-2.588-1.875c-0.67-0.828-1.174-1.867-1.497-3.091c-0.271-1.025-0.435-2.192-0.488-3.479h19.081
		l0.121-0.81c0.246-1.638,0.371-3.156,0.371-4.514c0-2.637-0.371-4.812-1.101-6.466C308.117,25.75,307.134,24.428,305.937,23.497z
		 M303.363,33.542h-12.814c0.334-2.185,1.037-3.759,2.098-4.685c1.234-1.077,2.93-1.623,5.037-1.623
		c1.862,0,3.244,0.501,4.225,1.532C302.771,29.674,303.26,31.279,303.363,33.542z"/>
	<path fill="#FFFFFF" d="M331.32,36.583c-1.119-0.761-2.363-1.383-3.695-1.849c-1.234-0.431-2.383-0.876-3.411-1.323
		c-0.972-0.421-1.796-0.901-2.448-1.426c-0.493-0.397-0.723-0.933-0.723-1.686c0-1.151,0.281-1.942,0.839-2.349
		c0.64-0.468,1.782-0.715,3.304-0.715c1.387,0,2.707,0.161,3.923,0.478c1.233,0.323,2.295,0.695,3.156,1.107l1.013,0.483l1.67-5.803
		l-0.723-0.348c-1.128-0.542-2.466-1.018-3.977-1.412c-1.531-0.398-3.437-0.6-5.662-0.6c-3.127,0-5.627,0.748-7.432,2.222
		c-1.861,1.521-2.805,3.896-2.805,7.057c0,1.946,0.42,3.54,1.246,4.734c0.789,1.142,1.78,2.088,2.945,2.813
		c1.117,0.695,2.354,1.272,3.678,1.712c1.221,0.407,2.363,0.841,3.396,1.288c0.953,0.414,1.758,0.928,2.393,1.527
		c0.525,0.496,0.781,1.191,0.781,2.125c0,1.414-0.4,2.344-1.221,2.843c-0.963,0.585-2.229,0.88-3.762,0.88
		c-1.421,0-2.842-0.208-4.223-0.619c-1.404-0.417-2.547-0.873-3.398-1.354l-0.986-0.559l-2.082,5.899l0.702,0.39
		c1.142,0.635,2.562,1.188,4.224,1.645c1.672,0.459,3.713,0.692,6.064,0.692c1.855,0,3.504-0.251,4.898-0.743
		c1.412-0.499,2.619-1.199,3.589-2.08c0.987-0.897,1.726-1.989,2.198-3.246c0.457-1.22,0.689-2.541,0.689-3.928
		c0-1.977-0.416-3.612-1.234-4.864C333.462,38.375,332.477,37.368,331.32,36.583z"/>
	<path fill="#FFFFFF" d="M355.381,47.214c-0.857,0.351-1.635,0.633-2.314,0.84c-0.624,0.191-1.417,0.287-2.357,0.287
		c-1.187,0-1.609-0.473-1.824-0.829c-0.293-0.483-0.641-1.554-0.641-3.912V27.954h8.148v-6.095h-8.148v-7.621l-6.695,1.925v5.696
		h-4.672v6.095h4.672v16.545c0,3.473,0.55,5.919,1.68,7.477c1.182,1.633,3.174,2.46,5.922,2.46c1.548,0,3.016-0.171,4.365-0.508
		c1.334-0.333,2.584-0.778,3.717-1.323l0.727-0.352l-1.605-5.438L355.381,47.214z"/>
	<path fill="#FFFFFF" d="M383.529,49.146c-0.117-1.279-0.176-2.662-0.176-4.107c0-2.018,0.059-4.178,0.178-6.421
		c0.12-2.295,0.182-4.67,0.182-7.06c0-1.135-0.118-2.288-0.35-3.425c-0.246-1.208-0.745-2.331-1.482-3.338
		c-0.755-1.028-1.85-1.867-3.256-2.493c-1.376-0.611-3.189-0.921-5.389-0.921c-2.256,0-4.451,0.229-6.523,0.681
		c-2.112,0.46-3.994,1.185-5.593,2.153l-0.696,0.42l2.223,5.421l0.945-0.556c0.505-0.297,1.106-0.573,1.788-0.819
		c0.694-0.251,1.443-0.468,2.224-0.645c0.785-0.178,1.562-0.317,2.312-0.416c3.081-0.407,5.289,0,6.184,0.893
		c0.681,0.681,1.04,2.044,1.04,3.942c0,0.667-0.031,1.4-0.092,2.191c-0.264-0.017-0.527-0.026-0.785-0.026h-1.648
		c-2.24,0-4.318,0.156-6.176,0.462c-1.911,0.315-3.583,0.853-4.97,1.599c-1.442,0.777-2.581,1.839-3.386,3.158
		c-0.808,1.324-1.217,2.973-1.217,4.898c0,1.445,0.259,2.764,0.77,3.919c0.51,1.154,1.221,2.156,2.111,2.979
		c0.889,0.823,1.953,1.464,3.167,1.904c1.2,0.436,2.509,0.656,3.89,0.656c1.354,0,2.59-0.152,3.67-0.455
		c1.063-0.297,2.02-0.678,2.84-1.132c0.835-0.462,1.562-0.999,2.16-1.598c0.18-0.181,0.352-0.363,0.516-0.548L379,53.837h5.502
		l-0.348-1.213C383.853,51.569,383.643,50.399,383.529,49.146z M376.959,40.239v3.893c-0.17,0.393-0.418,0.807-0.739,1.235
		c-0.358,0.478-0.823,0.924-1.382,1.326c-0.559,0.401-1.24,0.741-2.029,1.011c-0.774,0.264-1.68,0.397-2.689,0.397
		c-1.326,0-2.373-0.36-3.198-1.104c-0.796-0.716-1.183-1.611-1.183-2.738c0-0.779,0.193-1.396,0.594-1.885
		c0.436-0.534,1.039-0.967,1.791-1.284c0.811-0.343,1.772-0.581,2.857-0.711c1.135-0.135,2.317-0.202,3.514-0.202
		c0.548,0,1.106,0.01,1.674,0.028C376.434,40.215,376.697,40.226,376.959,40.239z"/>
	<path fill="#FFFFFF" d="M411.334,15.711c-0.488-1.329-1.24-2.495-2.236-3.468c-0.989-0.967-2.229-1.733-3.686-2.277
		c-1.441-0.537-3.115-0.809-4.977-0.809c-2.563,0-4.758,0.288-6.521,0.854c-1.74,0.56-3.421,1.326-4.994,2.279l-0.711,0.43
		l2.391,5.49l0.937-0.589c1.009-0.636,2.231-1.198,3.632-1.672c1.373-0.464,2.742-0.699,4.07-0.699c2.186,0,3.734,0.48,4.601,1.428
		c0.901,0.987,1.339,2.247,1.339,3.853c0,1.21-0.222,2.293-0.658,3.22c-0.466,0.988-1.053,1.935-1.744,2.812
		c-0.728,0.924-1.516,1.84-2.345,2.725c-0.882,0.943-1.716,1.977-2.481,3.071c-0.779,1.117-1.439,2.363-1.963,3.704
		c-0.54,1.382-0.814,2.99-0.814,4.779v0.659c0,0.303,0.027,0.588,0.079,0.846l0.153,0.764h5.682v-0.951
		c0-1.537,0.246-2.882,0.729-3.993c0.507-1.162,1.152-2.253,1.918-3.244c0.795-1.027,1.657-2.017,2.564-2.943
		c0.971-0.993,1.886-2.063,2.718-3.182c0.865-1.161,1.592-2.462,2.156-3.867c0.584-1.444,0.879-3.146,0.879-5.059
		C412.051,18.413,411.811,17.013,411.334,15.711z"/>
	<path fill="#FFFFFF" d="M398.398,45.585c-1.295,0-2.358,0.406-3.157,1.207c-0.802,0.801-1.208,1.884-1.208,3.219
		c0,1.291,0.403,2.36,1.197,3.177c0.801,0.828,1.867,1.248,3.168,1.248c1.334,0,2.426-0.416,3.248-1.237
		c0.821-0.82,1.238-1.893,1.238-3.188c0-1.339-0.42-2.426-1.249-3.229C400.816,45.988,399.727,45.585,398.398,45.585z"/>
	<path fill="#FFFFFF" d="M1,74.708c-0.552,0-1-0.447-1-1c0-0.552,0.447-1,1-1l411.307-0.125c0.553,0,1.001,0.447,1.001,1
		s-0.447,1-0.999,1L1,74.708z"/>
	<path fill="#FFFFFF" d="M412.308,2H1C0.448,2,0,1.552,0,1s0.448-1,1-1h411.308c0.552,0,1,0.448,1,1S412.859,2,412.308,2z"/>
</g>
</svg>
