<?xml version="1.0" encoding="utf-8"?>
<!-- Generator: Adobe Illustrator 16.0.4, SVG Export Plug-In . SVG Version: 6.00 Build 0)  -->
<!DOCTYPE svg PUBLIC "-//W3C//DTD SVG 1.1//EN" "http://www.w3.org/Graphics/SVG/1.1/DTD/svg11.dtd">
<svg version="1.1" id="Layer_1" xmlns="http://www.w3.org/2000/svg" xmlns:xlink="http://www.w3.org/1999/xlink" x="0px" y="0px"
	 width="100%" height="100%" viewBox="0 -1.965 576 73.023" enable-background="new 0 -1.965 576 73.023" xml:space="preserve"
	>
<g>
	<path fill="#FFFFFF" d="M25.771,8.274c-1.738-1.069-3.688-1.814-5.799-2.214C16.029,5.313,12.193,5.4,8.304,5.666
		c-1.9,0.13-3.7,0.393-5.346,0.783c-0.432,0.103-0.736,0.487-0.736,0.93v43.868c0,0.529,0.428,0.957,0.956,0.957h5.254
		c0.528,0,0.956-0.428,0.956-0.957V35.486c0.013,0,0.026,0.002,0.04,0.002c0.521,0.045,1.051,0.077,1.591,0.099
		c0.542,0.022,1.062,0.032,1.56,0.032h1.045c2.259,0,4.486-0.264,6.621-0.787c2.179-0.535,4.144-1.428,5.841-2.655
		c1.717-1.243,3.112-2.877,4.147-4.857c1.038-1.987,1.564-4.436,1.564-7.279c0-2.902-0.565-5.343-1.681-7.255
		C29.006,10.884,27.545,9.366,25.771,8.274z M24.314,20.04c0,1.859-0.313,3.39-0.933,4.552c-0.613,1.153-1.428,2.055-2.419,2.679
		c-1.034,0.651-2.212,1.108-3.504,1.358c-1.344,0.262-2.72,0.394-4.089,0.394h-1.013c-0.452,0-0.923-0.009-1.418-0.031l-1.452-0.063
		c-0.034-0.001-0.067-0.003-0.1-0.005V12.141c0.42-0.065,0.917-0.111,1.489-0.134c2.173-0.089,4.6-0.16,6.973,0.359
		c1.233,0.27,2.352,0.726,3.325,1.355c0.938,0.607,1.706,1.433,2.282,2.452C24.025,17.185,24.314,18.485,24.314,20.04z"/>
	<path fill="#FFFFFF" d="M52.112,18.675c-3.958-1.096-7.049-0.819-9.189,0.676c-0.772,0.539-1.479,1.221-2.111,2.036l-0.497-2.018
		c-0.104-0.427-0.487-0.728-0.928-0.728h-3.545c-0.528,0-0.956,0.428-0.956,0.956v31.651c0,0.529,0.428,0.957,0.956,0.957h5.064
		c0.528,0,0.956-0.428,0.956-0.957V29.174c0.227-1.284,0.771-2.315,1.661-3.152c0.878-0.826,2.072-1.228,3.649-1.228
		c1.03,0,2.143,0.196,3.306,0.584c0.258,0.086,0.538,0.058,0.774-0.076c0.235-0.134,0.403-0.361,0.462-0.625l1.076-4.875
		C52.9,19.306,52.602,18.811,52.112,18.675z"/>
	<path fill="#FFFFFF" d="M78.271,20.361c-1.246-0.97-2.674-1.636-4.241-1.983c-1.496-0.33-3.013-0.498-4.512-0.498
		c-4.745,0-8.462,1.541-11.046,4.578c-2.546,2.993-3.837,7.354-3.837,12.963c0,2.605,0.289,4.989,0.857,7.087
		c0.578,2.137,1.486,4.009,2.701,5.562c1.233,1.575,2.827,2.8,4.736,3.642c1.887,0.83,4.124,1.252,6.651,1.252
		c2.236,0,4.387-0.312,6.39-0.93c2.025-0.621,3.74-1.488,5.096-2.572c0.355-0.284,0.461-0.781,0.252-1.187l-1.899-3.671
		c-0.138-0.266-0.393-0.453-0.688-0.504c-0.293-0.047-0.598,0.041-0.816,0.247c-0.617,0.581-1.59,1.107-2.892,1.567
		c-1.325,0.468-2.666,0.705-3.986,0.705c-1.725,0-3.189-0.242-4.354-0.72c-1.131-0.463-2.057-1.136-2.752-1.996
		c-0.713-0.881-1.248-1.985-1.592-3.282c-0.292-1.102-0.466-2.355-0.521-3.738h19.347c0.473,0,0.875-0.346,0.945-0.814
		c0.259-1.722,0.39-3.324,0.39-4.762c0-2.78-0.39-5.071-1.157-6.812C80.564,22.731,79.53,21.341,78.271,20.361z M61.986,30.984
		c0.352-2.348,1.103-4.039,2.241-5.033c1.312-1.146,3.113-1.727,5.354-1.727c1.98,0,3.452,0.534,4.497,1.633
		c0.927,0.975,1.448,2.698,1.554,5.127H61.986z"/>
	<path fill="#FFFFFF" d="M113.406,20.031c-1.388-0.52-2.975-0.98-4.718-1.368c-1.769-0.393-3.914-0.593-6.379-0.593
		c-5.278,0-9.349,1.521-12.1,4.52c-2.729,2.976-4.113,7.335-4.113,12.958c0,5.798,1.077,10.167,3.2,12.982
		c2.185,2.899,5.604,4.369,10.164,4.369c2.249,0,4.118-0.364,5.556-1.083c0.769-0.385,1.469-0.861,2.097-1.427v0.794
		c0,1.525-0.12,2.852-0.357,3.941c-0.216,0.988-0.607,1.798-1.163,2.407c-0.552,0.603-1.308,1.042-2.246,1.31
		c-1.028,0.29-2.399,0.438-4.075,0.438c-1.802,0-3.269-0.158-4.358-0.47c-1.157-0.331-2.214-0.685-3.143-1.048
		c-0.247-0.094-0.523-0.085-0.764,0.029c-0.239,0.117-0.42,0.326-0.499,0.58l-1.329,4.305c-0.142,0.457,0.077,0.949,0.513,1.15
		c1.159,0.534,2.561,0.973,4.165,1.303c1.596,0.327,3.716,0.493,6.301,0.493c4.482,0,7.944-1.062,10.291-3.155
		c2.375-2.121,3.579-5.406,3.579-9.764V20.926C114.027,20.528,113.779,20.171,113.406,20.031z M95.506,26.988
		c1.469-1.732,3.445-2.574,6.044-2.574c2.182,0,4.028,0.293,5.501,0.874v15.471c-0.461,2.016-1.226,3.501-2.271,4.421
		c-1.039,0.914-2.53,1.376-4.434,1.376c-1.299,0-2.394-0.254-3.253-0.755c-0.879-0.513-1.576-1.21-2.131-2.134
		c-0.574-0.958-1.003-2.133-1.275-3.495c-0.281-1.407-0.424-2.983-0.424-4.687C93.264,31.603,94.018,28.744,95.506,26.988z"/>
	<path fill="#FFFFFF" d="M148.146,42.259V19.597c0-0.528-0.428-0.956-0.956-0.956h-5.064c-0.528,0-0.956,0.428-0.956,0.956v20.971
		c-0.307,0.805-0.691,1.574-1.146,2.283c-0.481,0.749-1.044,1.42-1.675,1.993c-0.609,0.554-1.312,0.995-2.089,1.308
		c-0.767,0.311-1.668,0.469-2.68,0.469c-1.062,0-1.936-0.176-2.594-0.523c-0.641-0.337-1.136-0.824-1.512-1.49
		c-0.404-0.716-0.696-1.651-0.869-2.777c-0.182-1.192-0.273-2.604-0.273-4.191V19.597c0-0.528-0.428-0.956-0.956-0.956h-5.064
		c-0.528,0-0.956,0.428-0.956,0.956v19.118c0,2.684,0.234,4.947,0.696,6.728c0.479,1.845,1.205,3.347,2.16,4.464
		c0.979,1.147,2.215,1.961,3.672,2.413c1.374,0.428,2.971,0.646,4.747,0.646c2.712,0,4.999-0.607,6.797-1.807
		c1.248-0.834,2.326-1.824,3.219-2.961l0.832,3.286c0.107,0.423,0.489,0.722,0.927,0.722h3.48c0.288,0,0.56-0.131,0.741-0.354
		c0.182-0.222,0.254-0.515,0.195-0.796c-0.245-1.187-0.42-2.579-0.52-4.144C148.199,45.327,148.146,43.761,148.146,42.259z"/>
	<path fill="#FFFFFF" d="M180.422,20.938c-0.981-1.148-2.229-1.959-3.707-2.414c-1.396-0.427-3.023-0.644-4.838-0.644
		c-2.502,0-4.702,0.471-6.541,1.401c-1.299,0.658-2.424,1.459-3.358,2.39l-0.566-2.303c-0.104-0.427-0.488-0.728-0.928-0.728h-3.545
		c-0.528,0-0.956,0.428-0.956,0.956v31.651c0,0.529,0.428,0.957,0.956,0.957h5.063c0.528,0,0.957-0.428,0.957-0.957V29.754
		c0.538-1.57,1.453-2.896,2.723-3.944c1.291-1.067,2.903-1.585,4.93-1.585c2.182,0,3.618,0.66,4.392,2.018
		c0.861,1.514,1.299,3.857,1.299,6.965v18.041c0,0.529,0.428,0.957,0.956,0.957h5.064c0.528,0,0.956-0.428,0.956-0.957V32.131
		c0-2.687-0.234-4.951-0.695-6.729C182.105,23.56,181.378,22.058,180.422,20.938z"/>
	<path fill="#FFFFFF" d="M207.229,46.041c-0.076-0.26-0.259-0.475-0.502-0.592c-0.244-0.117-0.525-0.125-0.776-0.023
		c-0.903,0.37-1.728,0.669-2.45,0.889c-0.664,0.203-1.507,0.307-2.506,0.307c-1.276,0-1.733-0.514-1.967-0.9
		c-0.312-0.516-0.685-1.656-0.685-4.157V24.984h7.652c0.528,0,0.957-0.428,0.957-0.957v-4.431c0-0.528-0.429-0.956-0.957-0.956
		h-7.652v-6.767c0-0.3-0.141-0.583-0.381-0.764c-0.24-0.18-0.551-0.238-0.84-0.155l-5.064,1.456
		c-0.409,0.118-0.691,0.493-0.691,0.919v5.311h-3.981c-0.528,0-0.956,0.428-0.956,0.956v4.431c0,0.528,0.428,0.957,0.956,0.957
		h3.981v17.528c0,3.659,0.577,6.234,1.764,7.872c1.24,1.711,3.332,2.58,6.22,2.58c1.63,0,3.178-0.182,4.599-0.535
		c1.407-0.352,2.725-0.822,3.918-1.396c0.422-0.204,0.635-0.683,0.502-1.132L207.229,46.041z"/>
	<path fill="#FFFFFF" d="M235.624,47.427c-0.124-1.354-0.187-2.816-0.187-4.346c0-2.131,0.063-4.415,0.188-6.786
		c0.127-2.404,0.191-4.914,0.191-7.457c0-1.193-0.124-2.407-0.367-3.61c-0.26-1.271-0.784-2.45-1.56-3.508
		c-0.792-1.08-1.943-1.961-3.421-2.618c-1.447-0.643-3.356-0.969-5.673-0.969c-2.378,0-4.693,0.242-6.883,0.718
		c-2.226,0.486-4.208,1.249-5.894,2.269c-0.403,0.244-0.568,0.745-0.39,1.181l1.583,3.861c0.105,0.256,0.316,0.455,0.579,0.543
		c0.263,0.088,0.551,0.058,0.789-0.082c0.539-0.316,1.177-0.608,1.898-0.869c0.735-0.267,1.527-0.496,2.354-0.683
		c0.826-0.187,1.648-0.335,2.447-0.44c3.25-0.433,5.614,0,6.573,0.957c0.737,0.739,1.112,2.152,1.112,4.199
		c0,0.718-0.034,1.511-0.1,2.366c-0.296-0.021-0.588-0.031-0.876-0.031h-1.74c-2.362,0-4.555,0.164-6.517,0.487
		c-2.015,0.332-3.776,0.899-5.236,1.684c-1.517,0.817-2.714,1.935-3.559,3.319c-0.85,1.393-1.28,3.125-1.28,5.15
		c0,1.521,0.272,2.908,0.81,4.121c0.536,1.214,1.283,2.269,2.22,3.133c0.933,0.864,2.053,1.537,3.329,2.002
		c1.262,0.457,2.64,0.689,4.094,0.689c1.428,0,2.729-0.162,3.865-0.479c1.118-0.312,2.124-0.714,2.99-1.192
		c0.876-0.483,1.64-1.049,2.271-1.679c0.211-0.212,0.411-0.426,0.6-0.641l0.879,2.929c0.121,0.405,0.494,0.683,0.916,0.683h3.734
		c0.3,0,0.583-0.143,0.764-0.382s0.238-0.55,0.155-0.837C235.968,50,235.744,48.758,235.624,47.427z M228.777,37.966v4.168
		c-0.181,0.422-0.446,0.866-0.79,1.324c-0.383,0.512-0.877,0.984-1.471,1.411c-0.595,0.428-1.32,0.789-2.155,1.073
		c-0.824,0.281-1.786,0.425-2.856,0.425c-1.415,0-2.531-0.386-3.412-1.18c-0.852-0.767-1.267-1.725-1.267-2.929
		c0-0.835,0.209-1.496,0.639-2.022c0.467-0.569,1.11-1.032,1.911-1.37c0.861-0.363,1.882-0.617,3.032-0.754
		c1.204-0.143,2.454-0.215,3.717-0.215c0.581,0,1.171,0.01,1.771,0.031C228.192,37.939,228.486,37.953,228.777,37.966z"/>
	<path fill="#FFFFFF" d="M259.99,34.188c-1.182-0.802-2.492-1.457-3.894-1.947c-1.307-0.456-2.519-0.926-3.606-1.399
		c-1.032-0.448-1.906-0.956-2.597-1.513c-0.535-0.43-0.783-1.008-0.783-1.819c0-1.232,0.305-2.08,0.907-2.52
		c0.692-0.508,1.875-0.765,3.517-0.765c1.469,0,2.868,0.17,4.158,0.506c1.306,0.342,2.431,0.737,3.344,1.172
		c0.253,0.121,0.547,0.125,0.804,0.009c0.256-0.115,0.448-0.337,0.526-0.607l1.203-4.178c0.129-0.448-0.085-0.924-0.505-1.126
		c-1.19-0.572-2.603-1.073-4.194-1.488c-1.614-0.419-3.622-0.632-5.969-0.632c-3.292,0-5.924,0.786-7.821,2.337
		c-1.955,1.598-2.946,4.094-2.946,7.418c0,2.046,0.44,3.721,1.31,4.975c0.828,1.2,1.871,2.195,3.098,2.958
		c1.174,0.732,2.478,1.339,3.875,1.804c1.284,0.43,2.494,0.889,3.592,1.363c1.012,0.439,1.867,0.986,2.542,1.623
		c0.565,0.535,0.84,1.279,0.84,2.279c0,1.512-0.43,2.509-1.312,3.045c-1.024,0.621-2.37,0.938-3.998,0.938
		c-1.507,0-3.013-0.222-4.476-0.657c-1.486-0.44-2.697-0.925-3.6-1.435c-0.246-0.141-0.543-0.164-0.806-0.064
		c-0.266,0.101-0.473,0.311-0.567,0.578l-1.519,4.305c-0.155,0.439,0.029,0.928,0.437,1.154c1.203,0.668,2.701,1.25,4.453,1.73
		c1.764,0.486,3.914,0.732,6.394,0.732c1.955,0,3.691-0.264,5.16-0.783c1.486-0.525,2.757-1.262,3.775-2.189
		c1.037-0.942,1.814-2.09,2.31-3.409c0.481-1.284,0.726-2.675,0.726-4.134c0-2.078-0.437-3.798-1.296-5.113
		C262.244,36.076,261.209,35.017,259.99,34.188z"/>
	<path fill="#FFFFFF" d="M312.594,5.98h-24.117c-0.528,0-0.956,0.428-0.956,0.957v44.311c0,0.529,0.428,0.957,0.956,0.957h5.254
		c0.527,0,0.955-0.428,0.955-0.957V32.391h16.643c0.528,0,0.957-0.428,0.957-0.956V26.75c0-0.528-0.429-0.956-0.957-0.956h-16.643
		V12.577h17.908c0.528,0,0.957-0.428,0.957-0.956V6.937C313.551,6.408,313.122,5.98,312.594,5.98z"/>
	<path fill="#FFFFFF" d="M336.968,18.675c-3.957-1.096-7.048-0.819-9.188,0.676c-0.772,0.539-1.479,1.221-2.112,2.036l-0.496-2.018
		c-0.104-0.427-0.487-0.728-0.928-0.728h-3.546c-0.527,0-0.955,0.428-0.955,0.956v31.651c0,0.529,0.428,0.957,0.955,0.957h5.065
		c0.527,0,0.955-0.428,0.955-0.957V29.174c0.228-1.284,0.771-2.315,1.662-3.152c0.877-0.826,2.072-1.228,3.648-1.228
		c1.03,0,2.143,0.196,3.307,0.584c0.257,0.086,0.538,0.058,0.774-0.076c0.234-0.134,0.402-0.361,0.462-0.625l1.074-4.875
		C337.756,19.306,337.457,18.811,336.968,18.675z"/>
	<path fill="#FFFFFF" d="M363.127,20.361c-1.246-0.97-2.674-1.636-4.241-1.983c-1.496-0.33-3.014-0.498-4.512-0.498
		c-4.745,0-8.462,1.541-11.046,4.578c-2.546,2.993-3.837,7.354-3.837,12.963c0,2.605,0.288,4.989,0.857,7.087
		c0.578,2.137,1.486,4.009,2.7,5.562c1.234,1.575,2.827,2.8,4.737,3.642c1.886,0.83,4.124,1.252,6.651,1.252
		c2.235,0,4.386-0.312,6.39-0.93c2.024-0.621,3.739-1.488,5.095-2.572c0.355-0.284,0.462-0.781,0.252-1.187l-1.899-3.671
		c-0.138-0.266-0.392-0.453-0.688-0.504c-0.295-0.047-0.598,0.041-0.815,0.247c-0.617,0.581-1.591,1.107-2.892,1.567
		c-1.326,0.468-2.667,0.705-3.986,0.705c-1.726,0-3.189-0.242-4.354-0.72c-1.131-0.463-2.057-1.136-2.752-1.996
		c-0.712-0.881-1.248-1.985-1.592-3.282c-0.292-1.102-0.465-2.355-0.52-3.738h19.347c0.473,0,0.874-0.346,0.945-0.814
		c0.258-1.722,0.389-3.324,0.389-4.762c0-2.78-0.389-5.071-1.157-6.812C365.421,22.731,364.387,21.341,363.127,20.361z
		 M346.843,30.984c0.351-2.348,1.103-4.039,2.24-5.033c1.313-1.146,3.113-1.727,5.354-1.727c1.98,0,3.451,0.534,4.497,1.633
		c0.927,0.975,1.447,2.698,1.553,5.127H346.843z"/>
	<path fill="#FFFFFF" d="M394.5,44.923c-0.115-0.273-0.352-0.477-0.64-0.552c-0.287-0.073-0.592-0.011-0.826,0.172
		c-0.681,0.53-1.59,1.017-2.7,1.444c-1.085,0.42-2.344,0.633-3.739,0.633c-1.6,0-2.943-0.301-3.995-0.891
		c-1.062-0.597-1.932-1.398-2.582-2.383c-0.669-1.013-1.154-2.203-1.445-3.539c-0.301-1.385-0.454-2.86-0.454-4.386
		c0-7.535,2.628-11.198,8.033-11.198c1.261,0,2.454,0.148,3.551,0.441c1.098,0.294,2.108,0.701,3.006,1.207
		c0.248,0.141,0.548,0.162,0.813,0.06c0.268-0.103,0.474-0.319,0.564-0.59l1.454-4.368c0.149-0.446-0.049-0.935-0.467-1.151
		c-1.208-0.626-2.574-1.112-4.061-1.445c-1.476-0.331-3.281-0.499-5.367-0.499c-4.709,0-8.385,1.554-10.928,4.619
		c-2.498,3.01-3.767,7.358-3.767,12.922c0,2.552,0.255,4.917,0.755,7.024c0.512,2.162,1.354,4.047,2.503,5.604
		c1.169,1.58,2.687,2.809,4.515,3.654c1.807,0.834,4.029,1.26,6.605,1.26c1.975,0,3.893-0.258,5.701-0.766
		c1.833-0.513,3.448-1.275,4.803-2.269c0.357-0.263,0.487-0.737,0.314-1.146L394.5,44.923z"/>
	<path fill="#FFFFFF" d="M427.559,42.259V19.597c0-0.528-0.429-0.956-0.957-0.956h-5.063c-0.528,0-0.957,0.428-0.957,0.956v20.971
		c-0.306,0.805-0.691,1.574-1.146,2.283c-0.481,0.749-1.043,1.42-1.674,1.993c-0.609,0.554-1.312,0.995-2.09,1.308
		c-0.767,0.311-1.668,0.469-2.679,0.469c-1.063,0-1.937-0.176-2.595-0.523c-0.641-0.337-1.135-0.824-1.512-1.49
		c-0.403-0.716-0.695-1.651-0.868-2.777c-0.182-1.192-0.273-2.604-0.273-4.191V19.597c0-0.528-0.429-0.956-0.957-0.956h-5.063
		c-0.528,0-0.957,0.428-0.957,0.956v19.118c0,2.684,0.234,4.947,0.696,6.728c0.479,1.845,1.206,3.347,2.16,4.464
		c0.98,1.147,2.215,1.961,3.673,2.413c1.374,0.428,2.97,0.646,4.747,0.646c2.711,0,4.998-0.607,6.797-1.807
		c1.248-0.834,2.325-1.824,3.217-2.961l0.834,3.286c0.106,0.423,0.488,0.722,0.926,0.722h3.48c0.288,0,0.561-0.131,0.741-0.354
		c0.183-0.222,0.254-0.515,0.195-0.796c-0.244-1.187-0.42-2.579-0.52-4.144C427.61,45.327,427.559,43.761,427.559,42.259z"/>
	<path fill="#FFFFFF" d="M457.256,20.361c-1.247-0.97-2.675-1.636-4.242-1.983c-1.495-0.33-3.013-0.498-4.511-0.498
		c-4.746,0-8.463,1.541-11.046,4.578c-2.547,2.993-3.837,7.354-3.837,12.963c0,2.605,0.288,4.989,0.857,7.087
		c0.577,2.137,1.485,4.009,2.7,5.562c1.234,1.575,2.826,2.8,4.737,3.642c1.886,0.83,4.123,1.252,6.65,1.252
		c2.236,0,4.387-0.312,6.391-0.93c2.024-0.621,3.739-1.488,5.095-2.572c0.355-0.284,0.462-0.781,0.251-1.187l-1.898-3.671
		c-0.138-0.266-0.393-0.453-0.688-0.504c-0.295-0.047-0.598,0.041-0.816,0.247c-0.617,0.581-1.59,1.107-2.891,1.567
		c-1.326,0.468-2.668,0.705-3.986,0.705c-1.726,0-3.19-0.242-4.354-0.72c-1.132-0.463-2.058-1.136-2.752-1.996
		c-0.713-0.881-1.248-1.985-1.592-3.282c-0.292-1.102-0.465-2.355-0.521-3.738h19.347c0.473,0,0.875-0.346,0.945-0.814
		c0.259-1.722,0.39-3.324,0.39-4.762c0-2.78-0.39-5.071-1.158-6.812C459.549,22.731,458.516,21.341,457.256,20.361z M440.971,30.984
		c0.352-2.348,1.104-4.039,2.241-5.033c1.312-1.146,3.113-1.727,5.354-1.727c1.98,0,3.452,0.534,4.497,1.633
		c0.927,0.975,1.448,2.698,1.554,5.127H440.971z"/>
	<path fill="#FFFFFF" d="M491.99,20.938c-0.981-1.148-2.229-1.959-3.707-2.414c-1.396-0.427-3.023-0.644-4.837-0.644
		c-2.503,0-4.704,0.471-6.542,1.401c-1.299,0.658-2.423,1.459-3.358,2.39l-0.566-2.303c-0.104-0.427-0.487-0.728-0.928-0.728h-3.546
		c-0.527,0-0.955,0.428-0.955,0.956v31.651c0,0.529,0.428,0.957,0.955,0.957h5.065c0.527,0,0.955-0.428,0.955-0.957V29.754
		c0.539-1.57,1.454-2.896,2.724-3.944c1.29-1.067,2.903-1.585,4.93-1.585c2.183,0,3.619,0.66,4.392,2.018
		c0.861,1.514,1.299,3.857,1.299,6.965v18.041c0,0.529,0.428,0.957,0.955,0.957h5.065c0.527,0,0.955-0.428,0.955-0.957V32.131
		c0-2.687-0.233-4.951-0.694-6.729C493.674,23.56,492.946,22.058,491.99,20.938z"/>
	<path fill="#FFFFFF" d="M518.798,46.041c-0.077-0.26-0.259-0.475-0.502-0.592c-0.244-0.117-0.526-0.125-0.777-0.023
		c-0.902,0.37-1.727,0.669-2.449,0.889c-0.665,0.203-1.508,0.307-2.506,0.307c-1.276,0-1.734-0.514-1.967-0.9
		c-0.312-0.516-0.686-1.656-0.686-4.157V24.984h7.654c0.527,0,0.955-0.428,0.955-0.957v-4.431c0-0.528-0.428-0.956-0.955-0.956
		h-7.654v-6.767c0-0.3-0.14-0.583-0.381-0.764c-0.24-0.18-0.551-0.238-0.839-0.155l-5.063,1.456
		c-0.41,0.118-0.692,0.493-0.692,0.919v5.311h-3.981c-0.528,0-0.955,0.428-0.955,0.956v4.431c0,0.528,0.427,0.957,0.955,0.957h3.981
		v17.528c0,3.659,0.577,6.234,1.764,7.872c1.24,1.711,3.332,2.58,6.219,2.58c1.631,0,3.178-0.182,4.6-0.535
		c1.407-0.352,2.725-0.822,3.918-1.396c0.422-0.204,0.634-0.683,0.502-1.132L518.798,46.041z"/>
	<path fill="#FFFFFF" d="M544.803,20.361c-1.247-0.97-2.675-1.636-4.243-1.983c-1.494-0.33-3.012-0.498-4.511-0.498
		c-4.745,0-8.462,1.541-11.046,4.578c-2.546,2.993-3.837,7.354-3.837,12.963c0,2.605,0.289,4.989,0.857,7.087
		c0.577,2.137,1.486,4.009,2.702,5.562c1.232,1.575,2.826,2.8,4.735,3.642c1.887,0.83,4.124,1.252,6.651,1.252
		c2.236,0,4.387-0.312,6.39-0.93c2.026-0.621,3.74-1.488,5.096-2.572c0.356-0.284,0.461-0.781,0.252-1.187l-1.898-3.671
		c-0.138-0.266-0.394-0.453-0.688-0.504c-0.295-0.047-0.598,0.041-0.817,0.247c-0.617,0.581-1.59,1.107-2.892,1.567
		c-1.325,0.468-2.665,0.705-3.986,0.705c-1.725,0-3.189-0.242-4.354-0.72c-1.13-0.463-2.056-1.136-2.752-1.996
		c-0.712-0.881-1.248-1.985-1.592-3.282c-0.291-1.102-0.466-2.355-0.521-3.738h19.346c0.474,0,0.876-0.346,0.945-0.814
		c0.26-1.722,0.392-3.324,0.392-4.762c0-2.78-0.391-5.071-1.157-6.812C547.095,22.731,546.062,21.341,544.803,20.361z
		 M528.519,30.984c0.351-2.348,1.103-4.039,2.241-5.033c1.311-1.146,3.113-1.727,5.353-1.727c1.98,0,3.452,0.534,4.498,1.633
		c0.927,0.975,1.447,2.698,1.554,5.127H528.519z"/>
	<path fill="#FFFFFF" d="M574.703,37.335c-0.826-1.26-1.861-2.319-3.079-3.147c-1.183-0.802-2.492-1.457-3.894-1.947
		c-1.307-0.456-2.52-0.926-3.607-1.399c-1.032-0.448-1.905-0.956-2.597-1.513c-0.535-0.43-0.782-1.008-0.782-1.819
		c0-1.232,0.304-2.08,0.905-2.52c0.693-0.508,1.877-0.765,3.519-0.765c1.469,0,2.868,0.17,4.157,0.506
		c1.305,0.342,2.432,0.737,3.344,1.172c0.253,0.121,0.548,0.125,0.804,0.009c0.256-0.115,0.449-0.337,0.526-0.607l1.203-4.178
		c0.13-0.448-0.085-0.924-0.504-1.126c-1.191-0.572-2.603-1.073-4.194-1.488c-1.615-0.419-3.622-0.632-5.969-0.632
		c-3.292,0-5.924,0.786-7.821,2.337c-1.955,1.598-2.947,4.094-2.947,7.418c0,2.046,0.44,3.721,1.31,4.975
		c0.828,1.2,1.871,2.195,3.098,2.958c1.175,0.732,2.478,1.339,3.875,1.804c1.285,0.43,2.494,0.889,3.593,1.363
		c1.012,0.439,1.866,0.986,2.542,1.623c0.564,0.535,0.839,1.279,0.839,2.279c0,1.512-0.429,2.509-1.312,3.045
		c-1.024,0.621-2.369,0.938-3.998,0.938c-1.506,0-3.012-0.222-4.476-0.657c-1.486-0.44-2.697-0.925-3.599-1.435
		c-0.248-0.141-0.543-0.164-0.807-0.064c-0.265,0.101-0.473,0.311-0.566,0.578l-1.52,4.305c-0.155,0.439,0.029,0.928,0.438,1.154
		c1.203,0.668,2.7,1.25,4.451,1.73c1.765,0.486,3.916,0.732,6.395,0.732c1.955,0,3.691-0.264,5.161-0.783
		c1.486-0.525,2.756-1.262,3.774-2.189c1.037-0.942,1.814-2.09,2.309-3.409c0.481-1.284,0.728-2.675,0.728-4.134
		C576,40.371,575.563,38.651,574.703,37.335z"/>
	<path fill="#FFFFFF" d="M574.622,71.058H1.006C0.45,71.058,0,70.607,0,70.052c0-0.557,0.45-1.007,1.006-1.007h573.616
		c0.556,0,1.007,0.45,1.007,1.007C575.629,70.607,575.178,71.058,574.622,71.058z"/>
	<path fill="#FFFFFF" d="M574.622,0.048H1.006C0.45,0.048,0-0.403,0-0.958c0-0.556,0.45-1.006,1.006-1.006h573.616
		c0.556,0,1.007,0.45,1.007,1.006C575.629-0.403,575.178,0.048,574.622,0.048z"/>
</g>
</svg>
