<?xml version="1.0" encoding="utf-8"?>
<!-- Generator: Adobe Illustrator 16.0.4, SVG Export Plug-In . SVG Version: 6.00 Build 0)  -->
<!DOCTYPE svg PUBLIC "-//W3C//DTD SVG 1.1//EN" "http://www.w3.org/Graphics/SVG/1.1/DTD/svg11.dtd">
<svg version="1.1" id="Layer_1" xmlns="http://www.w3.org/2000/svg" xmlns:xlink="http://www.w3.org/1999/xlink" x="0px" y="0px"
	 width="100%" height="100%" viewBox="0 0.353 400 77.161" enable-background="new 0 0.353 400 77.161" xml:space="preserve">
<g>
	<path fill="#FFFFFF" d="M32.301,38.86l-0.982-2.219c-0.09-0.204-0.263-0.356-0.476-0.424c-0.212-0.066-0.442-0.037-0.632,0.08
		c-0.599,0.368-1.327,0.694-2.165,0.971c-0.817,0.269-1.63,0.405-2.415,0.405c-1.271,0-2.162-0.271-2.649-0.803
		c-0.514-0.562-0.763-1.284-0.763-2.209c0-0.706,0.128-1.336,0.382-1.871c0.276-0.588,0.625-1.15,1.035-1.671
		c0.434-0.551,0.909-1.103,1.413-1.642c0.543-0.581,1.056-1.216,1.523-1.885c0.481-0.689,0.889-1.459,1.213-2.29
		c0.337-0.861,0.508-1.861,0.508-2.971v-0.4c0-0.199-0.018-0.382-0.051-0.549c-0.071-0.36-0.387-0.621-0.755-0.621h-2.401
		c-0.425,0-0.77,0.344-0.77,0.77c0,0.907-0.144,1.697-0.427,2.348c-0.301,0.69-0.684,1.338-1.14,1.928
		c-0.477,0.617-0.996,1.212-1.542,1.77c-0.591,0.604-1.152,1.262-1.667,1.951c-0.535,0.718-0.983,1.521-1.333,2.392
		c-0.363,0.9-0.547,1.957-0.547,3.143c0,0.938,0.15,1.817,0.449,2.615c0.304,0.818,0.776,1.543,1.401,2.154
		c0.621,0.606,1.396,1.087,2.307,1.426c0.895,0.334,1.934,0.503,3.087,0.503c1.576,0,2.928-0.178,4.019-0.528
		c1.068-0.343,2.102-0.814,3.072-1.4C32.327,39.63,32.458,39.215,32.301,38.86z"/>
	<path fill="#FFFFFF" d="M26.105,19.647c0.862,0,1.572-0.271,2.108-0.808c0.536-0.535,0.808-1.231,0.808-2.072
		c0-0.866-0.274-1.572-0.817-2.099c-0.535-0.518-1.241-0.78-2.099-0.78c-0.839,0-1.53,0.265-2.054,0.789
		c-0.524,0.523-0.79,1.228-0.79,2.09c0,0.836,0.263,1.53,0.78,2.064C24.566,19.373,25.26,19.647,26.105,19.647z"/>
	<path fill="#FFFFFF" d="M52.796,32.837c0.255-0.197,0.362-0.53,0.268-0.839l-0.727-2.363c-0.07-0.229-0.241-0.41-0.463-0.494
		c-0.224-0.085-0.471-0.062-0.675,0.062c-0.491,0.301-1.115,0.553-1.854,0.751c-0.742,0.2-1.636,0.301-2.655,0.301
		c-1.103,0-2.134-0.2-3.064-0.594c-0.917-0.389-1.729-0.981-2.412-1.762c-0.692-0.792-1.247-1.804-1.649-3.01
		c-0.408-1.225-0.615-2.685-0.615-4.339c0-1.846,0.218-3.413,0.649-4.658c0.422-1.225,0.985-2.222,1.673-2.965
		c0.678-0.732,1.455-1.266,2.306-1.585c0.878-0.328,1.778-0.496,2.675-0.496c2.028,0,3.589,0.266,4.639,0.792
		c0.206,0.103,0.449,0.107,0.66,0.014c0.21-0.095,0.368-0.279,0.428-0.502l0.727-2.692c0.102-0.375-0.093-0.766-0.453-0.913
		c-0.702-0.286-1.551-0.516-2.525-0.682c-0.961-0.165-2.204-0.248-3.694-0.248c-1.443,0-2.878,0.261-4.269,0.775
		c-1.408,0.521-2.694,1.358-3.822,2.487c-1.126,1.125-2.042,2.586-2.72,4.34c-0.674,1.742-1.016,3.873-1.016,6.333
		c0,2.356,0.309,4.432,0.917,6.165c0.614,1.754,1.465,3.223,2.527,4.362c1.069,1.147,2.34,2.014,3.775,2.574
		c1.416,0.554,2.955,0.835,4.571,0.835c1.303,0,2.552-0.115,3.712-0.342C50.94,33.905,51.978,33.464,52.796,32.837z"/>
	<path fill="#FFFFFF" d="M55.54,31.591c0.73,0.932,1.666,1.658,2.784,2.155c1.101,0.491,2.399,0.74,3.859,0.74
		c2.797,0,4.983-0.919,6.501-2.731c1.483-1.771,2.234-4.317,2.234-7.568c0-1.488-0.167-2.87-0.499-4.109
		c-0.341-1.271-0.876-2.379-1.592-3.294c-0.73-0.931-1.667-1.657-2.785-2.156c-1.102-0.49-2.399-0.739-3.86-0.739
		c-2.797,0-4.984,0.919-6.5,2.73c-1.482,1.771-2.234,4.318-2.234,7.568c0,1.494,0.168,2.876,0.499,4.11
		C54.288,29.567,54.823,30.674,55.54,31.591z M58.007,24.187c0-5.567,2.355-6.213,4.126-6.213h0.05c0.752,0,1.39,0.154,1.896,0.455
		c0.528,0.315,0.942,0.725,1.266,1.252c0.341,0.553,0.596,1.219,0.758,1.976c0.169,0.792,0.255,1.644,0.255,2.53
		c0,2.156-0.365,3.77-1.084,4.795c-0.668,0.954-1.662,1.418-3.091,1.418c0,0,0,0-0.001,0c-0.749,0-1.383-0.157-1.888-0.469
		c-0.53-0.324-0.947-0.742-1.274-1.274c-0.34-0.552-0.595-1.217-0.758-1.976C58.093,25.889,58.007,25.048,58.007,24.187z"/>
	<path fill="#FFFFFF" d="M60.692,13.283h1.71c0.236,0,0.458-0.107,0.604-0.293l3.674-4.654c0.107-0.137,0.166-0.305,0.166-0.478
		V7.094c0-0.426-0.345-0.771-0.771-0.771h-3.236c-0.316,0-0.601,0.193-0.717,0.486l-2.146,5.42
		c-0.094,0.236-0.064,0.505,0.079,0.716C60.198,13.157,60.438,13.283,60.692,13.283z"/>
	<path fill="#FFFFFF" d="M92.589,17.974c0.611,0,1.097,0.08,1.442,0.24c0.307,0.141,0.542,0.351,0.716,0.641
		c0.199,0.332,0.335,0.771,0.406,1.305c0.08,0.609,0.121,1.34,0.121,2.173v10.946c0,0.427,0.344,0.771,0.771,0.771h2.909
		c0.426,0,0.771-0.345,0.771-0.771v-10.91c0-1.569-0.109-2.894-0.325-3.939c-0.23-1.106-0.617-2.012-1.151-2.686
		c-0.554-0.699-1.263-1.194-2.109-1.471c-0.777-0.256-1.728-0.385-2.822-0.385c-1.359,0-2.603,0.3-3.695,0.894
		c-0.691,0.376-1.293,0.847-1.801,1.409c-0.403-0.661-0.895-1.17-1.469-1.52c-0.859-0.52-1.954-0.783-3.254-0.783
		c-1.513,0-2.774,0.286-3.75,0.849c-0.569,0.329-1.1,0.718-1.589,1.16l-0.242-0.986c-0.084-0.344-0.394-0.586-0.748-0.586h-2.037
		c-0.425,0-0.771,0.345-0.771,0.771v18.184c0,0.427,0.345,0.771,0.771,0.771h2.91c0.425,0,0.77-0.345,0.77-0.771V20.879
		c0.257-0.841,0.683-1.525,1.297-2.089c0.598-0.549,1.338-0.816,2.262-0.816c0.594,0,1.064,0.092,1.398,0.271
		c0.308,0.166,0.541,0.415,0.713,0.757c0.201,0.404,0.341,0.925,0.416,1.548c0.081,0.683,0.122,1.503,0.122,2.437v10.292
		c0,0.427,0.345,0.771,0.771,0.771h2.91c0.425,0,0.771-0.345,0.771-0.771V21.221c0.259-1.071,0.672-1.896,1.229-2.454
		C90.83,18.234,91.579,17.974,92.589,17.974z"/>
	<path fill="#FFFFFF" d="M117.71,31.755c1.482-1.771,2.234-4.317,2.234-7.568c0-1.488-0.168-2.87-0.499-4.109
		c-0.341-1.271-0.877-2.379-1.592-3.294c-0.729-0.931-1.666-1.657-2.784-2.156c-1.101-0.49-2.399-0.739-3.86-0.739
		c-2.797,0-4.984,0.919-6.5,2.73c-1.483,1.771-2.234,4.318-2.234,7.568c0,1.494,0.168,2.876,0.499,4.11
		c0.34,1.27,0.875,2.377,1.592,3.294c0.73,0.932,1.667,1.658,2.784,2.155c1.102,0.491,2.399,0.74,3.86,0.74
		C114.006,34.487,116.193,33.568,117.71,31.755z M109.321,29.931c-0.531-0.324-0.947-0.742-1.274-1.274
		c-0.34-0.552-0.595-1.217-0.758-1.976c-0.169-0.792-0.256-1.633-0.256-2.494c0-5.567,2.355-6.213,4.126-6.213h0.05
		c0.752,0,1.39,0.154,1.897,0.455c0.527,0.315,0.941,0.725,1.266,1.252c0.341,0.553,0.596,1.219,0.758,1.976
		c0.169,0.792,0.255,1.644,0.255,2.53c0,2.156-0.365,3.77-1.085,4.795c-0.668,0.954-1.662,1.418-3.09,1.418c0,0,0,0-0.001,0
		C110.461,30.4,109.826,30.243,109.321,29.931z"/>
	<path fill="#FFFFFF" d="M33.357,66.6c-0.082-0.896-0.124-1.864-0.124-2.873c0-1.413,0.042-2.929,0.125-4.511
		c0.085-1.611,0.128-3.288,0.128-4.984c0-0.812-0.083-1.639-0.25-2.458c-0.181-0.884-0.545-1.705-1.083-2.438
		c-0.554-0.755-1.355-1.371-2.383-1.829c-1.011-0.449-2.282-0.667-3.887-0.667c-1.605,0-3.167,0.163-4.643,0.484
		c-1.511,0.329-2.859,0.85-4.008,1.544c-0.376,0.228-0.531,0.697-0.364,1.104l1.055,2.573c0.098,0.239,0.296,0.425,0.542,0.508
		c0.246,0.081,0.515,0.055,0.739-0.076c0.344-0.204,0.755-0.392,1.222-0.559c0.483-0.175,1.001-0.326,1.54-0.446
		c0.549-0.125,1.085-0.221,1.607-0.289c0.505-0.067,0.983-0.102,1.423-0.102c1.717,0,2.439,0.363,2.744,0.666
		c0.436,0.437,0.667,1.342,0.667,2.617c0,0.401-0.017,0.839-0.048,1.308c-0.116-0.005-0.231-0.007-0.345-0.007h-1.161
		c-1.587,0-3.063,0.11-4.387,0.328c-1.372,0.228-2.573,0.614-3.57,1.151c-1.051,0.564-1.882,1.34-2.47,2.305
		c-0.591,0.968-0.89,2.168-0.89,3.566c0,1.051,0.188,2.01,0.561,2.853c0.371,0.839,0.89,1.569,1.541,2.172
		c0.648,0.6,1.424,1.066,2.307,1.387c0.869,0.315,1.817,0.476,2.815,0.476c0.976,0,1.866-0.11,2.646-0.328
		c0.766-0.215,1.455-0.489,2.048-0.817c0.605-0.334,1.134-0.727,1.572-1.163c0.034-0.034,0.068-0.068,0.102-0.103l0.457,1.521
		c0.114,0.379,0.461,0.637,0.856,0.637h2.49c0.281,0,0.545-0.131,0.714-0.354s0.223-0.515,0.146-0.784
		C33.582,68.282,33.436,67.47,33.357,66.6z M28.281,60.562v2.479c-0.112,0.248-0.271,0.511-0.475,0.782
		c-0.24,0.319-0.552,0.618-0.926,0.887c-0.375,0.271-0.836,0.5-1.369,0.682c-0.524,0.179-1.137,0.269-1.823,0.269
		c-0.877,0-1.565-0.234-2.103-0.72c-0.518-0.467-0.759-1.026-0.759-1.763c0-0.494,0.121-0.882,0.368-1.185
		c0.289-0.353,0.673-0.629,1.174-0.839c0.553-0.234,1.21-0.397,1.953-0.486c0.791-0.093,1.614-0.142,2.448-0.142
		c0.384,0,0.774,0.007,1.171,0.021C28.054,60.552,28.168,60.557,28.281,60.562z"/>
	<path fill="#FFFFFF" d="M49.88,47.209c-2.717-0.753-4.85-0.556-6.342,0.486c-0.405,0.284-0.783,0.623-1.133,1.015l-0.209-0.854
		c-0.099-0.399-0.457-0.68-0.868-0.68h-2.363c-0.494,0-0.894,0.399-0.894,0.894v21.102c0,0.493,0.4,0.894,0.894,0.894h3.376
		c0.494,0,0.894-0.4,0.894-0.894V54.479c0.145-0.791,0.481-1.426,1.026-1.938c0.896-0.843,2.511-0.995,4.381-0.374
		c0.239,0.08,0.503,0.055,0.723-0.07c0.221-0.125,0.377-0.338,0.432-0.584l0.717-3.25C50.617,47.799,50.339,47.336,49.88,47.209z"/>
	<path fill="#FFFFFF" d="M80.601,48.824c-0.643-0.812-1.466-1.386-2.448-1.708c-0.902-0.295-2.004-0.445-3.275-0.445
		c-1.577,0-3.02,0.349-4.288,1.037c-0.802,0.436-1.501,0.981-2.09,1.635c-0.468-0.768-1.038-1.356-1.705-1.762
		c-0.997-0.604-2.267-0.91-3.776-0.91c-1.755,0-3.219,0.331-4.351,0.985c-0.66,0.381-1.277,0.831-1.844,1.345l-0.281-1.144
		c-0.099-0.399-0.457-0.68-0.868-0.68h-2.363c-0.494,0-0.894,0.399-0.894,0.894v21.102c0,0.493,0.4,0.894,0.894,0.894h3.376
		c0.494,0,0.894-0.4,0.894-0.894v-14.39c0.298-0.975,0.792-1.77,1.504-2.424c0.694-0.637,1.553-0.947,2.625-0.947
		c0.688,0,1.234,0.107,1.622,0.315c0.358,0.192,0.629,0.481,0.828,0.877c0.233,0.47,0.396,1.074,0.482,1.797
		c0.094,0.792,0.141,1.743,0.141,2.827v11.944c0,0.493,0.4,0.894,0.894,0.894h3.376c0.494,0,0.894-0.4,0.894-0.894V55.18
		c0.3-1.244,0.78-2.202,1.427-2.849c0.619-0.618,1.489-0.92,2.66-0.92c0.709,0,1.273,0.093,1.673,0.278
		c0.356,0.163,0.628,0.407,0.831,0.743c0.231,0.386,0.39,0.895,0.471,1.514c0.093,0.708,0.141,1.557,0.141,2.521v12.704
		c0,0.493,0.4,0.894,0.894,0.894h3.376c0.494,0,0.894-0.4,0.894-0.894V56.51c0-1.82-0.127-3.357-0.377-4.57
		C81.669,50.655,81.221,49.606,80.601,48.824z"/>
	<path fill="#FFFFFF" d="M102.904,66.6c-0.082-0.896-0.124-1.864-0.124-2.873c0-1.413,0.042-2.929,0.126-4.511
		c0.085-1.611,0.128-3.288,0.128-4.984c0-0.812-0.084-1.639-0.25-2.458c-0.181-0.884-0.545-1.705-1.084-2.438
		c-0.554-0.755-1.355-1.371-2.383-1.829c-1.011-0.449-2.282-0.667-3.887-0.667c-1.605,0-3.167,0.163-4.643,0.484
		c-1.511,0.329-2.859,0.85-4.008,1.544c-0.376,0.228-0.531,0.697-0.364,1.104l1.055,2.573c0.098,0.239,0.296,0.425,0.542,0.508
		c0.245,0.081,0.515,0.055,0.739-0.076c0.344-0.204,0.755-0.392,1.222-0.559c0.483-0.175,1.001-0.326,1.541-0.446
		c0.548-0.125,1.084-0.221,1.607-0.289c0.505-0.067,0.983-0.102,1.423-0.102c1.717,0,2.44,0.363,2.744,0.666
		c0.436,0.437,0.667,1.342,0.667,2.617c0,0.401-0.016,0.839-0.048,1.308c-0.116-0.005-0.231-0.007-0.345-0.007h-1.161
		c-1.587,0-3.063,0.11-4.387,0.328c-1.372,0.228-2.573,0.614-3.57,1.151c-1.051,0.564-1.882,1.34-2.47,2.305
		c-0.591,0.968-0.89,2.168-0.89,3.566c0,1.051,0.188,2.01,0.561,2.853c0.371,0.839,0.89,1.569,1.54,2.172
		c0.648,0.6,1.424,1.066,2.307,1.387c0.869,0.315,1.817,0.476,2.816,0.476c0.975,0,1.865-0.11,2.646-0.328
		c0.766-0.215,1.455-0.489,2.048-0.817c0.605-0.334,1.134-0.727,1.572-1.163c0.034-0.034,0.068-0.068,0.102-0.103l0.457,1.521
		c0.113,0.379,0.461,0.637,0.856,0.637h2.49c0.281,0,0.545-0.131,0.714-0.354s0.223-0.515,0.146-0.784
		C103.129,68.282,102.983,67.47,102.904,66.6z M97.829,60.562v2.479c-0.112,0.248-0.271,0.511-0.475,0.782
		c-0.24,0.319-0.552,0.618-0.925,0.887c-0.375,0.271-0.836,0.5-1.37,0.682c-0.524,0.179-1.137,0.269-1.823,0.269
		c-0.877,0-1.565-0.234-2.103-0.72c-0.518-0.467-0.76-1.026-0.76-1.763c0-0.494,0.121-0.882,0.368-1.185
		c0.289-0.353,0.673-0.629,1.174-0.839c0.553-0.234,1.21-0.397,1.953-0.486c0.791-0.093,1.614-0.142,2.448-0.142
		c0.384,0,0.774,0.007,1.171,0.021C97.602,60.552,97.715,60.557,97.829,60.562z"/>
	<path fill="#FFFFFF" d="M119.429,47.209c-2.718-0.753-4.851-0.556-6.342,0.486c-0.405,0.284-0.783,0.623-1.132,1.015l-0.21-0.854
		c-0.098-0.399-0.457-0.68-0.868-0.68h-2.363c-0.494,0-0.894,0.399-0.894,0.894v21.102c0,0.493,0.4,0.894,0.894,0.894h3.376
		c0.494,0,0.894-0.4,0.894-0.894V54.479c0.145-0.791,0.481-1.426,1.027-1.938c0.896-0.843,2.511-0.995,4.381-0.374
		c0.239,0.08,0.502,0.055,0.723-0.07c0.22-0.125,0.377-0.338,0.432-0.584l0.718-3.25C120.166,47.799,119.887,47.336,119.429,47.209z
		"/>
	<path fill="#FFFFFF" d="M160.469,58.963c-0.292-0.174-0.647-0.207-0.967-0.089c-0.786,0.289-1.489,0.478-2.09,0.558
		c-0.63,0.084-1.227,0.127-1.772,0.127c-0.868,0-1.244-0.346-1.453-0.606c-0.215-0.269-0.576-0.98-0.576-2.725V16.647
		c0-0.622-0.504-1.125-1.126-1.125h-5.488c-0.622,0-1.126,0.503-1.126,1.125v41.157c0,3.116,0.798,5.396,2.372,6.779
		c1.531,1.348,3.49,2.03,5.82,2.03c1.018,0,2.226-0.121,3.592-0.361c1.428-0.251,2.527-0.576,3.36-0.994
		c0.433-0.217,0.678-0.687,0.61-1.166l-0.618-4.322C160.959,59.434,160.761,59.138,160.469,58.963z"/>
	<path fill="#FFFFFF" d="M190.99,60.515c-0.134-1.477-0.201-3.058-0.201-4.699c0-2.288,0.068-4.761,0.204-7.35
		c0.139-2.606,0.208-5.326,0.208-8.086c0-1.302-0.134-2.623-0.401-3.928c-0.284-1.392-0.857-2.683-1.705-3.838
		c-0.868-1.183-2.127-2.148-3.743-2.866c-1.579-0.701-3.66-1.058-6.185-1.058c-2.581,0-5.096,0.264-7.476,0.781
		c-2.424,0.528-4.582,1.36-6.414,2.469c-0.475,0.288-0.669,0.878-0.458,1.392l1.714,4.184c0.124,0.301,0.373,0.535,0.682,0.639
		c0.31,0.104,0.649,0.069,0.931-0.096c0.578-0.339,1.264-0.654,2.042-0.935c0.793-0.287,1.648-0.534,2.542-0.736
		c0.881-0.2,1.77-0.36,2.642-0.476c3.493-0.462,6.032-0.003,7.046,1.013c0.772,0.771,1.18,2.322,1.18,4.485
		c0,0.751-0.033,1.577-0.101,2.468c-0.291-0.019-0.58-0.028-0.865-0.028h-1.887c-2.565,0-4.946,0.179-7.077,0.53
		c-2.191,0.36-4.109,0.978-5.702,1.834c-1.656,0.893-2.965,2.114-3.891,3.629c-0.929,1.523-1.4,3.418-1.4,5.63
		c0,1.66,0.298,3.174,0.884,4.501c0.585,1.325,1.402,2.477,2.427,3.424c1.021,0.947,2.246,1.682,3.638,2.186
		c1.376,0.501,2.878,0.755,4.465,0.755c1.556,0,2.974-0.176,4.214-0.521c1.22-0.342,2.316-0.778,3.26-1.301
		c0.959-0.53,1.794-1.147,2.481-1.834c0.19-0.19,0.373-0.384,0.546-0.577l0.905,3.021c0.143,0.477,0.582,0.803,1.079,0.803h4.047
		c0.353,0,0.686-0.166,0.899-0.449c0.213-0.282,0.28-0.647,0.183-0.988C191.363,63.292,191.122,61.955,190.99,60.515z
		 M183.392,50.359v4.412c-0.192,0.443-0.474,0.913-0.837,1.398c-0.408,0.545-0.938,1.052-1.574,1.51
		c-0.637,0.456-1.416,0.846-2.312,1.15c-0.885,0.303-1.917,0.454-3.067,0.454c-1.51,0-2.7-0.409-3.637-1.252
		c-0.903-0.814-1.342-1.831-1.342-3.107c0-0.885,0.219-1.581,0.671-2.135c0.496-0.606,1.181-1.098,2.035-1.459
		c0.928-0.391,2.026-0.664,3.263-0.81c1.304-0.155,2.656-0.234,4.018-0.234c0.626,0,1.265,0.012,1.915,0.035
		C182.815,50.331,183.104,50.345,183.392,50.359z"/>
	<path fill="#FFFFFF" d="M245.155,29.239h-18.201c0.029-1.008,0.101-1.937,0.213-2.77c0.135-1.013,0.424-1.86,0.853-2.516
		c0.401-0.606,0.968-1.05,1.738-1.354c0.849-0.335,2.059-0.505,3.599-0.505c1.831,0,3.575,0.176,5.179,0.523
		c1.559,0.338,2.915,0.866,4.031,1.567c0.28,0.176,0.623,0.22,0.938,0.12c0.315-0.1,0.572-0.331,0.699-0.637l1.853-4.39
		c0.216-0.512,0.025-1.105-0.448-1.396c-1.286-0.79-3.055-1.47-5.256-2.02c-2.187-0.546-4.701-0.824-7.476-0.824
		c-4.386,0-7.792,1.082-10.123,3.212c-2.359,2.156-3.555,5.586-3.555,10.193v0.794h-4.225c-0.623,0-1.126,0.505-1.126,1.128v4.802
		c0,0.622,0.503,1.125,1.126,1.125h4.225v28.371c0,0.621,0.503,1.125,1.126,1.125h5.487c0.622,0,1.126-0.504,1.126-1.125V36.293
		h11.604v28.371c0,0.621,0.504,1.125,1.127,1.125h5.487c0.622,0,1.126-0.504,1.126-1.125V30.367
		C246.281,29.744,245.777,29.239,245.155,29.239z"/>
	<path fill="#FFFFFF" d="M278.497,31.124c-1.362-1.059-2.92-1.787-4.634-2.167c-1.626-0.357-3.277-0.539-4.905-0.539
		c-5.17,0-9.22,1.679-12.039,4.991c-2.771,3.259-4.179,8.004-4.179,14.106c0,2.832,0.314,5.425,0.931,7.703
		c0.632,2.329,1.621,4.369,2.944,6.058c1.345,1.72,3.084,3.055,5.166,3.973c2.058,0.905,4.495,1.365,7.245,1.365
		c2.432,0,4.771-0.34,6.948-1.012c2.207-0.677,4.075-1.621,5.553-2.803c0.42-0.334,0.544-0.92,0.297-1.397l-2.058-3.978
		c-0.162-0.314-0.462-0.533-0.811-0.593c-0.347-0.058-0.704,0.048-0.962,0.29c-0.66,0.62-1.703,1.186-3.102,1.679
		c-1.426,0.503-2.869,0.759-4.289,0.759c-1.857,0-3.434-0.26-4.684-0.774c-1.212-0.495-2.203-1.213-2.947-2.136
		c-0.762-0.939-1.337-2.126-1.706-3.523c-0.308-1.16-0.493-2.479-0.556-3.937h20.868c0.557,0,1.031-0.407,1.113-0.958
		c0.281-1.872,0.424-3.613,0.424-5.175c0-3.023-0.425-5.52-1.263-7.418C281.004,33.714,279.874,32.196,278.497,31.124z
		 M260.9,42.617c0.385-2.47,1.184-4.249,2.384-5.298c1.404-1.227,3.338-1.847,5.742-1.847c2.119,0,3.693,0.569,4.807,1.74
		c0.978,1.028,1.533,2.844,1.654,5.404H260.9z"/>
	<path fill="#FFFFFF" d="M307.557,46.103c-1.284-0.873-2.711-1.586-4.241-2.12c-1.399-0.489-2.712-0.998-3.901-1.514
		c-1.112-0.482-2.052-1.029-2.794-1.629c-0.556-0.446-0.814-1.05-0.814-1.9c0-1.306,0.318-2.199,0.946-2.658
		c0.725-0.53,2.023-0.81,3.759-0.81c1.587,0,3.096,0.183,4.48,0.546c1.41,0.368,2.624,0.794,3.608,1.265
		c0.299,0.141,0.646,0.146,0.947,0.009c0.302-0.134,0.529-0.397,0.62-0.716l1.303-4.525c0.151-0.528-0.1-1.089-0.594-1.327
		c-1.291-0.62-2.824-1.166-4.56-1.618c-1.758-0.456-3.94-0.688-6.492-0.688c-3.589,0-6.46,0.858-8.531,2.551
		c-2.142,1.751-3.228,4.479-3.228,8.11c0,2.236,0.483,4.067,1.436,5.441c0.906,1.31,2.044,2.397,3.382,3.23
		c1.279,0.798,2.698,1.457,4.219,1.965c1.394,0.465,2.702,0.961,3.885,1.472c1.087,0.473,2.005,1.059,2.729,1.741
		c0.594,0.562,0.882,1.349,0.882,2.406c0,1.605-0.45,2.66-1.379,3.223c-1.095,0.664-2.537,1.002-4.285,1.002
		c-1.627,0-3.25-0.238-4.825-0.708c-1.604-0.478-2.91-0.997-3.881-1.547c-0.29-0.164-0.638-0.192-0.949-0.074
		c-0.312,0.116-0.557,0.366-0.668,0.68l-1.646,4.665c-0.183,0.518,0.036,1.093,0.517,1.359c1.311,0.728,2.94,1.361,4.844,1.883
		c1.921,0.528,4.26,0.797,6.952,0.797c2.128,0,4.02-0.287,5.624-0.854c1.621-0.574,3.007-1.377,4.118-2.389
		c1.135-1.032,1.985-2.287,2.527-3.73c0.524-1.4,0.792-2.917,0.792-4.512c0-2.271-0.478-4.151-1.418-5.59
		C310.019,48.164,308.887,47.007,307.557,46.103z"/>
	<path fill="#FFFFFF" d="M336.572,58.995c-0.09-0.306-0.306-0.559-0.593-0.697c-0.288-0.138-0.619-0.148-0.914-0.025
		c-0.976,0.398-1.865,0.723-2.646,0.959c-0.71,0.217-1.615,0.328-2.688,0.328c-1.339,0-1.813-0.53-2.055-0.933
		c-0.334-0.549-0.729-1.769-0.729-4.457V36.293h8.202c0.623,0,1.127-0.503,1.127-1.125v-4.802c0-0.623-0.504-1.128-1.127-1.128
		h-8.202v-7.241c0-0.354-0.167-0.687-0.449-0.898c-0.282-0.213-0.649-0.282-0.989-0.184l-5.486,1.577
		c-0.481,0.139-0.815,0.581-0.815,1.083v5.663h-4.224c-0.622,0-1.127,0.505-1.127,1.128v4.802c0,0.622,0.505,1.125,1.127,1.125
		h4.224v18.904c0,3.986,0.631,6.793,1.929,8.583c1.361,1.879,3.652,2.833,6.812,2.833c1.775,0,3.459-0.196,5.007-0.583
		c1.532-0.384,2.967-0.895,4.262-1.518c0.497-0.24,0.748-0.805,0.592-1.334L336.572,58.995z"/>
	<path fill="#FFFFFF" d="M367.345,60.515c-0.134-1.477-0.201-3.058-0.201-4.699c0-2.288,0.068-4.761,0.204-7.35
		c0.139-2.606,0.208-5.326,0.208-8.086c0-1.302-0.134-2.623-0.4-3.928c-0.285-1.392-0.857-2.683-1.704-3.838
		c-0.868-1.183-2.128-2.148-3.743-2.866c-1.579-0.701-3.661-1.058-6.186-1.058c-2.58,0-5.097,0.264-7.477,0.781
		c-2.425,0.528-4.582,1.36-6.413,2.469c-0.475,0.288-0.67,0.878-0.459,1.392l1.715,4.184c0.124,0.301,0.372,0.535,0.682,0.639
		c0.311,0.104,0.649,0.069,0.931-0.096c0.578-0.339,1.264-0.654,2.042-0.935c0.793-0.287,1.648-0.534,2.542-0.736
		c0.88-0.2,1.769-0.36,2.642-0.476c3.494-0.462,6.031-0.003,7.047,1.013c0.771,0.771,1.18,2.322,1.18,4.485
		c0,0.751-0.034,1.577-0.102,2.468c-0.29-0.019-0.579-0.028-0.864-0.028h-1.887c-2.565,0-4.945,0.179-7.076,0.53
		c-2.191,0.36-4.109,0.978-5.702,1.834c-1.656,0.893-2.966,2.114-3.892,3.629c-0.929,1.523-1.399,3.418-1.399,5.63
		c0,1.66,0.298,3.174,0.885,4.501c0.584,1.325,1.401,2.477,2.427,3.424c1.021,0.947,2.246,1.682,3.638,2.186
		c1.376,0.501,2.879,0.755,4.466,0.755c1.556,0,2.974-0.176,4.214-0.521c1.22-0.342,2.316-0.778,3.26-1.301
		c0.959-0.53,1.794-1.147,2.48-1.834c0.191-0.19,0.373-0.384,0.547-0.577l0.905,3.021c0.143,0.477,0.582,0.803,1.079,0.803h4.047
		c0.353,0,0.687-0.166,0.899-0.449c0.213-0.282,0.28-0.647,0.183-0.988C367.718,63.292,367.478,61.955,367.345,60.515z
		 M359.747,50.359v4.412c-0.192,0.443-0.475,0.913-0.839,1.398c-0.407,0.545-0.938,1.052-1.574,1.51
		c-0.637,0.456-1.414,0.846-2.311,1.15c-0.886,0.303-1.917,0.454-3.067,0.454c-1.51,0-2.699-0.409-3.638-1.252
		c-0.902-0.814-1.341-1.831-1.341-3.107c0-0.885,0.219-1.581,0.671-2.135c0.495-0.606,1.181-1.098,2.035-1.459
		c0.929-0.391,2.025-0.664,3.264-0.81c1.303-0.155,2.655-0.234,4.017-0.234c0.626,0,1.264,0.012,1.915,0.035
		C359.17,50.331,359.46,50.345,359.747,50.359z"/>
	<path fill="#FFFFFF" d="M399.176,22.226c-0.559-1.525-1.423-2.865-2.567-3.983c-1.137-1.111-2.562-1.99-4.234-2.616
		c-1.652-0.616-3.573-0.929-5.709-0.929c-2.939,0-5.455,0.331-7.479,0.981c-1.996,0.641-3.924,1.52-5.727,2.611
		c-0.483,0.292-0.675,0.896-0.449,1.413l1.852,4.253c0.131,0.302,0.388,0.529,0.7,0.627c0.315,0.097,0.655,0.052,0.934-0.123
		c1.15-0.725,2.547-1.368,4.15-1.911c1.568-0.529,3.131-0.798,4.646-0.798c2.492,0,4.255,0.547,5.24,1.623
		c1.024,1.123,1.522,2.557,1.522,4.385c0,1.381-0.253,2.615-0.75,3.67c-0.533,1.13-1.203,2.211-1.993,3.214
		c-0.819,1.041-1.722,2.089-2.681,3.117c-1.019,1.09-1.976,2.272-2.846,3.52c-0.894,1.279-1.65,2.707-2.251,4.247
		c-0.621,1.586-0.936,3.431-0.936,5.487v0.755c0,0.345,0.031,0.671,0.089,0.972c0.105,0.528,0.567,0.908,1.105,0.908h4.528
		c0.622,0,1.126-0.504,1.126-1.126c0-1.755,0.28-3.289,0.832-4.559c0.579-1.327,1.316-2.574,2.19-3.704
		c0.902-1.167,1.889-2.3,2.932-3.366c1.108-1.132,2.157-2.359,3.117-3.646c0.992-1.33,1.824-2.822,2.474-4.438
		c0.669-1.658,1.008-3.612,1.008-5.805C400,25.327,399.724,23.72,399.176,22.226z"/>
	<path fill="#FFFFFF" d="M384.332,56.404c-1.492,0-2.718,0.469-3.643,1.394c-0.926,0.924-1.395,2.173-1.395,3.711
		c0,1.489,0.466,2.722,1.382,3.665c0.927,0.955,2.157,1.44,3.655,1.44c1.535,0,2.796-0.48,3.746-1.429
		c0.947-0.946,1.427-2.183,1.427-3.677c0-1.543-0.484-2.795-1.44-3.725C387.117,56.868,385.861,56.404,384.332,56.404z"/>
	<path fill="#FFFFFF" d="M398.514,77.514H1.186C0.531,77.514,0,76.984,0,76.329s0.531-1.186,1.186-1.186h397.328
		c0.654,0,1.186,0.53,1.186,1.186S399.168,77.514,398.514,77.514z"/>
	<path fill="#FFFFFF" d="M398.514,2.724H1.186C0.531,2.724,0,2.193,0,1.539s0.531-1.186,1.186-1.186h397.328
		c0.654,0,1.186,0.531,1.186,1.186S399.168,2.724,398.514,2.724z"/>
</g>
</svg>
