<?xml version="1.0" encoding="utf-8"?>
<!-- Generator: Adobe Illustrator 16.0.4, SVG Export Plug-In . SVG Version: 6.00 Build 0)  -->
<!DOCTYPE svg PUBLIC "-//W3C//DTD SVG 1.0//EN" "http://www.w3.org/TR/2001/REC-SVG-20010904/DTD/svg10.dtd">
<svg version="1.0" id="Layer_1" xmlns="http://www.w3.org/2000/svg" xmlns:xlink="http://www.w3.org/1999/xlink" x="0px" y="0px"
	 width="224.183px" height="71.836px" viewBox="-0.001 -1.372 224.183 71.836"
	 enable-background="new -0.001 -1.372 224.183 71.836" xml:space="preserve">
<g>
	<path fill="#FFFFFF" d="M30.594,45.298c-0.086-0.28-0.297-0.506-0.57-0.609s-0.581-0.076-0.831,0.077
		c-0.882,0.538-1.993,0.989-3.307,1.341c-1.318,0.354-2.896,0.532-4.688,0.532c-1.958,0-3.791-0.354-5.446-1.056
		c-1.64-0.694-3.089-1.754-4.31-3.146c-1.229-1.407-2.215-3.201-2.926-5.334c-0.72-2.158-1.084-4.722-1.084-7.623
		c0-3.232,0.384-5.984,1.144-8.179c0.748-2.168,1.749-3.938,2.975-5.261c1.216-1.31,2.605-2.265,4.134-2.837
		c1.562-0.586,3.163-0.883,4.759-0.883c3.563,0,6.32,0.474,8.19,1.409c0.256,0.128,0.555,0.134,0.812,0.017
		c0.261-0.117,0.454-0.344,0.528-0.619l1.257-4.653c0.125-0.463-0.114-0.947-0.56-1.127c-1.188-0.484-2.631-0.873-4.284-1.157
		c-1.642-0.28-3.768-0.423-6.322-0.423c-2.448,0-4.887,0.443-7.248,1.317c-2.384,0.883-4.562,2.3-6.474,4.211
		c-1.909,1.911-3.463,4.391-4.615,7.372c-1.147,2.968-1.729,6.605-1.729,10.812c0,4.031,0.525,7.574,1.562,10.53
		c1.046,2.984,2.488,5.48,4.289,7.408c1.808,1.94,3.956,3.406,6.385,4.354c2.406,0.938,5.021,1.418,7.767,1.418
		c2.229,0,4.364-0.194,6.346-0.585c2.065-0.402,3.809-1.141,5.175-2.189c0.313-0.24,0.445-0.651,0.329-1.031L30.594,45.298z"/>
	<path fill="#FFFFFF" d="M59.171,23.204c-1.221-1.561-2.792-2.777-4.668-3.614c-1.854-0.827-4.048-1.247-6.518-1.247
		c-4.718,0-8.4,1.543-10.945,4.585c-2.505,2.992-3.774,7.312-3.774,12.84c0,2.546,0.286,4.903,0.852,7.005
		c0.572,2.145,1.477,4.016,2.685,5.559c1.225,1.564,2.795,2.781,4.668,3.615c1.854,0.827,4.049,1.246,6.52,1.246
		c4.716,0,8.398-1.543,10.945-4.586c2.504-2.992,3.773-7.312,3.773-12.839c0-2.54-0.286-4.897-0.851-7.006
		C61.28,26.612,60.376,24.742,59.171,23.204z M55.588,35.768c0,3.808-0.653,6.669-1.943,8.511c-1.231,1.758-3.055,2.612-5.656,2.612
		c0,0-0.001,0-0.002,0c-1.366,0-2.531-0.29-3.465-0.864c-0.957-0.588-1.739-1.372-2.33-2.33c-0.609-0.992-1.066-2.183-1.356-3.537
		c-0.299-1.396-0.451-2.875-0.451-4.392c0-7.485,2.459-11.124,7.518-11.124h0.086c1.369,0,2.538,0.283,3.476,0.84
		c0.953,0.569,1.732,1.34,2.318,2.292c0.611,0.997,1.068,2.188,1.358,3.538C55.436,32.709,55.588,34.208,55.588,35.768z"/>
	<path fill="#FFFFFF" d="M110.039,21.407c-0.91-1.149-2.076-1.963-3.468-2.419c-1.308-0.428-2.908-0.645-4.76-0.645
		c-2.287,0-4.376,0.505-6.207,1.499c-1.317,0.717-2.442,1.64-3.358,2.757c-0.712-1.316-1.606-2.306-2.676-2.955
		c-1.424-0.863-3.25-1.301-5.428-1.301c-2.547,0-4.664,0.477-6.292,1.417c-1.146,0.663-2.202,1.467-3.152,2.402l-0.575-2.34
		c-0.104-0.424-0.484-0.723-0.922-0.723H69.68c-0.525,0-0.95,0.425-0.95,0.95V51.49c0,0.524,0.425,0.949,0.95,0.949h5.029
		c0.524,0,0.95-0.425,0.95-0.949V29.993c0.458-1.527,1.253-2.818,2.363-3.838c1.107-1.017,2.473-1.511,4.169-1.511
		c1.091,0,1.966,0.173,2.598,0.514c0.605,0.328,1.062,0.811,1.396,1.475c0.367,0.738,0.622,1.681,0.756,2.801
		c0.143,1.199,0.213,2.632,0.213,4.258v17.795c0,0.525,0.426,0.95,0.95,0.95h5.029c0.525,0,0.95-0.425,0.95-0.95V30.596
		c0.461-1.943,1.214-3.446,2.235-4.469c0.998-0.998,2.384-1.482,4.232-1.482c1.111,0,2.006,0.151,2.653,0.448
		c0.604,0.277,1.063,0.689,1.405,1.261c0.37,0.617,0.624,1.425,0.753,2.402c0.142,1.07,0.213,2.351,0.213,3.806V51.49
		c0,0.524,0.425,0.949,0.949,0.949h5.03c0.524,0,0.949-0.425,0.949-0.949V32.624c0-2.686-0.188-4.951-0.555-6.732
		C111.569,24.036,110.925,22.527,110.039,21.407z"/>
	<path fill="#FFFFFF" d="M134.384,18.343c-2.109,0-4.021,0.426-5.68,1.267c-1.162,0.589-2.187,1.37-3.056,2.329l-0.53-2.122
		c-0.104-0.422-0.484-0.719-0.92-0.719h-3.458c-0.525,0-0.951,0.425-0.951,0.95v44.018c0,0.523,0.426,0.949,0.951,0.949h5.028
		c0.524,0,0.951-0.426,0.951-0.949V52.382c0.616,0.22,1.212,0.389,1.777,0.507c0.975,0.204,2.239,0.304,3.874,0.304
		c2.302,0,4.432-0.431,6.329-1.277c1.901-0.85,3.549-2.076,4.894-3.645c1.334-1.559,2.379-3.475,3.104-5.699
		c0.721-2.201,1.085-4.703,1.085-7.432c0-5.817-1.11-10.104-3.302-12.744C142.25,19.707,138.851,18.343,134.384,18.343z
		 M140.667,35.078c0,3.953-0.789,6.96-2.346,8.938c-1.521,1.935-3.527,2.875-6.139,2.875c-1.485,0-2.678-0.144-3.542-0.425
		c-0.701-0.229-1.347-0.541-1.921-0.932V30.529c0.459-2.006,1.229-3.506,2.294-4.462c1.051-0.944,2.54-1.423,4.426-1.423
		c1.345,0,2.476,0.238,3.359,0.706c0.892,0.474,1.602,1.122,2.168,1.979c0.579,0.881,1.011,1.977,1.277,3.256
		C140.525,31.924,140.667,33.435,140.667,35.078z"/>
	<path fill="#FFFFFF" d="M170.92,19.132c-3.933-1.089-7.003-0.814-9.129,0.671c-0.768,0.536-1.47,1.213-2.099,2.022L159.2,19.82
		c-0.104-0.424-0.484-0.723-0.923-0.723h-3.521c-0.524,0-0.95,0.425-0.95,0.95v31.44c0,0.525,0.426,0.95,0.95,0.95h5.029
		c0.524,0,0.95-0.425,0.95-0.95V29.561c0.226-1.275,0.767-2.3,1.649-3.131c0.872-0.821,2.059-1.219,3.626-1.219
		c1.022,0,2.128,0.194,3.282,0.58c0.258,0.085,0.534,0.058,0.77-0.075c0.233-0.133,0.399-0.358,0.458-0.621l1.069-4.842
		C171.702,19.759,171.406,19.267,170.92,19.132z"/>
	<path fill="#FFFFFF" d="M198.589,47.692c-0.123-1.345-0.187-2.796-0.187-4.315c0-2.117,0.062-4.385,0.188-6.739
		c0.126-2.388,0.188-4.881,0.188-7.407c0-1.185-0.122-2.392-0.364-3.586c-0.258-1.262-0.777-2.434-1.549-3.484
		c-0.786-1.073-1.931-1.948-3.398-2.601c-1.438-0.639-3.333-0.962-5.636-0.962c-2.36,0-4.661,0.24-6.836,0.714
		c-2.21,0.482-4.182,1.24-5.854,2.253c-0.399,0.243-0.563,0.74-0.388,1.173l1.571,3.836c0.104,0.254,0.313,0.451,0.575,0.54
		c0.263,0.087,0.548,0.058,0.784-0.081c0.535-0.314,1.169-0.604,1.885-0.863c0.73-0.265,1.52-0.493,2.34-0.679
		c0.819-0.185,1.639-0.333,2.432-0.438c3.229-0.429,5.578,0.001,6.528,0.951c0.733,0.734,1.104,2.137,1.104,4.17
		c0,0.714-0.033,1.501-0.099,2.351c-0.295-0.021-0.585-0.031-0.871-0.031h-1.729c-2.347,0-4.525,0.163-6.475,0.484
		c-2.002,0.33-3.752,0.893-5.201,1.674c-1.506,0.811-2.696,1.92-3.535,3.298c-0.843,1.383-1.271,3.102-1.271,5.114
		c0,1.511,0.271,2.89,0.805,4.095c0.532,1.204,1.274,2.252,2.205,3.11c0.927,0.858,2.04,1.528,3.307,1.987
		c1.255,0.455,2.623,0.688,4.067,0.688c1.419,0,2.71-0.16,3.841-0.477c1.108-0.312,2.107-0.709,2.97-1.184
		c0.869-0.48,1.629-1.043,2.256-1.671c0.21-0.209,0.407-0.422,0.596-0.635l0.872,2.91c0.121,0.399,0.491,0.676,0.91,0.676h3.71
		c0.299,0,0.58-0.142,0.759-0.377c0.18-0.237,0.236-0.547,0.154-0.834C198.93,50.248,198.708,49.015,198.589,47.692z
		 M191.788,38.296v4.139c-0.182,0.418-0.444,0.859-0.786,1.314c-0.38,0.508-0.871,0.979-1.461,1.4
		c-0.591,0.428-1.312,0.785-2.141,1.066c-0.819,0.279-1.774,0.421-2.839,0.421c-1.404,0-2.515-0.384-3.39-1.173
		c-0.847-0.762-1.259-1.713-1.259-2.908c0-0.829,0.208-1.485,0.635-2.008c0.466-0.566,1.104-1.023,1.896-1.36
		c0.857-0.36,1.871-0.612,3.014-0.75c1.195-0.144,2.438-0.214,3.691-0.214c0.577,0,1.164,0.012,1.76,0.029
		C191.206,38.268,191.498,38.281,191.788,38.296z"/>
	<path fill="#FFFFFF" d="M223.488,19.132c-3.933-1.089-7.004-0.814-9.13,0.671c-0.768,0.536-1.468,1.213-2.097,2.022l-0.493-2.005
		c-0.104-0.424-0.484-0.723-0.923-0.723h-3.521c-0.525,0-0.951,0.425-0.951,0.95v31.44c0,0.525,0.426,0.95,0.951,0.95h5.028
		c0.524,0,0.95-0.425,0.95-0.95V29.561c0.225-1.275,0.766-2.3,1.649-3.131c0.873-0.821,2.059-1.219,3.626-1.219
		c1.021,0,2.128,0.194,3.281,0.58c0.258,0.085,0.534,0.058,0.77-0.075c0.233-0.133,0.4-0.358,0.459-0.621l1.07-4.842
		C224.27,19.759,223.974,19.267,223.488,19.132z"/>
	<path fill="#FFFFFF" d="M220.282,70.464H6.446c-0.552,0-1-0.448-1-1c0-0.551,0.448-1,1-1h213.837c0.553,0,1,0.449,1,1
		C221.282,70.016,220.835,70.464,220.282,70.464z"/>
	<path fill="#FFFFFF" d="M220.282,0.628H6.446c-0.552,0-1-0.448-1-1c0-0.552,0.448-1,1-1h213.837c0.553,0,1,0.448,1,1
		C221.282,0.181,220.835,0.628,220.282,0.628z"/>
</g>
</svg>
