<?xml version="1.0" encoding="utf-8"?>
<!-- Generator: Adobe Illustrator 16.0.4, SVG Export Plug-In . SVG Version: 6.00 Build 0)  -->
<!DOCTYPE svg PUBLIC "-//W3C//DTD SVG 1.0//EN" "http://www.w3.org/TR/2001/REC-SVG-20010904/DTD/svg10.dtd">
<svg version="1.0" id="Layer_1" xmlns="http://www.w3.org/2000/svg" xmlns:xlink="http://www.w3.org/1999/xlink" x="0px" y="0px"
	 width="100%" height="100%" viewBox="0 0 670.517 16.916" enable-background="new 0 0 670.517 16.916"
	 xml:space="preserve">
<g>
	<path fill="#FFFFFF" d="M16.983,4.352c0.785,0.3,1.306,0.798,1.306,0.798c0.005-0.242,0.069-0.49,0.159-0.701
		c0,0-0.251-0.47-0.993-0.978c-0.797-0.546-1.706-0.698-1.706-0.698c-0.185,0.403-0.317,0.834-0.386,1.287
		C15.363,4.06,16.028,3.988,16.983,4.352"/>
	<path fill="#FFFFFF" d="M17.547,2.767c0.749,0.725,1.02,1.453,1.02,1.453c0.139-0.223,0.323-0.414,0.54-0.562
		c0,0-0.278-0.873-0.728-1.519c-0.451-0.645-1.18-1.181-1.18-1.181c-0.357,0.275-0.674,0.598-0.942,0.959
		C16.257,1.917,17,2.237,17.547,2.767"/>
	<path fill="#FFFFFF" d="M18.866,1.862c0.338,0.865,0.424,1.686,0.424,1.686c0.222-0.118,0.511-0.208,0.775-0.23
		c0,0,0.014-0.835-0.17-1.693C19.68,0.622,19.434,0,19.434,0c-0.443,0.067-0.867,0.196-1.263,0.374
		C18.17,0.374,18.632,1.264,18.866,1.862"/>
	<path fill="#FFFFFF" d="M23.341,4.352c-0.786,0.3-1.305,0.798-1.305,0.798c-0.006-0.242-0.069-0.49-0.16-0.701
		c0,0,0.252-0.47,0.994-0.978c0.796-0.546,1.705-0.698,1.705-0.698c0.186,0.403,0.317,0.834,0.386,1.287
		C24.961,4.06,24.296,3.988,23.341,4.352"/>
	<path fill="#FFFFFF" d="M22.777,2.767c-0.749,0.725-1.02,1.453-1.02,1.453c-0.139-0.223-0.323-0.414-0.54-0.562
		c0,0,0.278-0.873,0.728-1.519c0.451-0.645,1.181-1.181,1.181-1.181c0.356,0.275,0.673,0.598,0.942,0.959
		C24.068,1.917,23.324,2.237,22.777,2.767"/>
	<path fill="#FFFFFF" d="M21.459,1.862c-0.339,0.865-0.425,1.686-0.425,1.686c-0.222-0.118-0.511-0.208-0.775-0.23
		c0,0-0.013-0.835,0.17-1.693C20.646,0.622,20.89,0,20.89,0c0.444,0.067,0.868,0.196,1.264,0.374
		C22.154,0.374,21.693,1.264,21.459,1.862"/>
	<path fill="#FFFFFF" d="M17.635,7.298c0.936-0.445,1.88-0.353,1.88-0.353c-0.336-0.125-0.625-0.34-0.838-0.616
		c0,0-0.838-0.1-1.48,0.029c-0.973,0.196-1.403,0.534-1.403,0.534c0.197,0.405,0.45,0.78,0.749,1.113
		C16.542,8.005,16.943,7.627,17.635,7.298"/>
	<path fill="#FFFFFF" d="M16.907,5.888c0.955-0.046,1.612,0.203,1.612,0.203c-0.118-0.213-0.195-0.451-0.221-0.705
		c0,0-0.758-0.431-1.457-0.525c-0.967-0.13-1.53,0.056-1.53,0.056c0.012,0.458,0.088,0.9,0.22,1.317
		C15.531,6.233,16.15,5.923,16.907,5.888"/>
	<path fill="#FFFFFF" d="M20.162,8.028c1.366,0,1.963,1.182,1.963,1.182c0.426-0.188,0.819-0.437,1.17-0.731
		c0,0-1.154-1.452-3.133-1.452s-3.133,1.452-3.133,1.452c0.351,0.295,0.745,0.543,1.17,0.731C18.199,9.21,18.796,8.028,20.162,8.028
		"/>
	<path fill="#FFFFFF" d="M22.689,7.298c-0.936-0.445-1.88-0.353-1.88-0.353c0.336-0.125,0.625-0.34,0.839-0.616
		c0,0,0.837-0.1,1.48,0.029c0.972,0.196,1.403,0.534,1.403,0.534c-0.198,0.405-0.45,0.78-0.75,1.113
		C23.782,8.005,23.382,7.627,22.689,7.298"/>
	<path fill="#FFFFFF" d="M23.417,5.888c-0.955-0.046-1.612,0.203-1.612,0.203C21.923,5.877,22,5.64,22.026,5.386
		c0,0,0.758-0.431,1.457-0.525c0.967-0.13,1.53,0.056,1.53,0.056c-0.012,0.458-0.088,0.9-0.22,1.317
		C24.793,6.233,24.174,5.923,23.417,5.888"/>
	<path fill="#FFFFFF" d="M0.951,14.307h0.502v0.395H0v-0.395h0.503v-3.285H0v-0.395h1.681c0.928,0,1.556,0.405,1.556,1.275
		c0,0.871-0.633,1.275-1.556,1.275h-0.73V14.307z M0.951,11.038v1.729h0.73c0.772,0,1.107-0.304,1.107-0.864
		c0-0.562-0.33-0.864-1.107-0.864H0.951z"/>
	<path fill="#FFFFFF" d="M6.289,13.868c-0.13,0.51-0.605,0.897-1.313,0.897c-0.875,0-1.41-0.551-1.41-1.524
		c0-0.923,0.557-1.523,1.41-1.523c0.924,0,1.513,0.708,1.394,1.756H4.015c0.038,0.45,0.351,0.896,0.961,0.896
		c0.405,0,0.703-0.168,0.854-0.502H6.289z M5.943,13.086c0.006-0.552-0.411-0.973-0.967-0.973c-0.556,0-0.972,0.421-0.967,0.973
		H5.943z"/>
	<path fill="#FFFFFF" d="M7.862,14.323h0.465v0.379H6.965v-0.379H7.43v-2.162H6.965v-0.377H7.43h0.399v0.414
		c0.173-0.312,0.6-0.604,1.173-0.409v0.421c-0.686-0.194-1.14,0.185-1.14,0.854V14.323z"/>
	<path fill="#FFFFFF" d="M12.411,14.323h0.465v0.379h-1.362v-0.379h0.465V13.09c0-0.686-0.411-0.972-0.859-0.972
		c-0.449,0-0.832,0.314-0.832,1.001v1.204h0.465v0.379H9.391v-0.379h0.465v-2.162H9.391v-0.377h0.465h0.4v0.414
		c0.156-0.241,0.491-0.476,0.945-0.476c0.643,0,1.21,0.369,1.21,1.367V14.323z"/>
	<path fill="#FFFFFF" d="M14.686,11.719c0.897,0,1.421,0.643,1.421,1.522c0,0.881-0.524,1.524-1.421,1.524s-1.421-0.644-1.421-1.524
		C13.265,12.361,13.789,11.719,14.686,11.719 M14.686,14.37c0.568,0,0.989-0.399,0.989-1.129c0-0.728-0.421-1.128-0.989-1.128
		c-0.567,0-0.988,0.4-0.988,1.128C13.698,13.971,14.119,14.37,14.686,14.37"/>
	<path fill="#FFFFFF" d="M19.43,14.323h0.464v0.378h-0.88v-0.416c-0.173,0.26-0.551,0.479-1.016,0.479
		c-0.832,0-1.372-0.652-1.372-1.522c0-0.871,0.54-1.524,1.372-1.524c0.438,0,0.822,0.194,1,0.48V11h-0.465v-0.378h0.897V14.323z
		 M18.036,12.113c-0.54,0-0.978,0.388-0.978,1.129c0,0.74,0.438,1.128,0.978,1.128s0.978-0.388,0.978-1.128
		C19.014,12.501,18.576,12.113,18.036,12.113"/>
	<path fill="#FFFFFF" d="M21.841,10.622h1.912c0.768,0,1.33,0.41,1.33,1.171c0,0.649-0.412,1.044-1.005,1.146l0.664,1.363h0.529
		v0.399h-0.848l-0.837-1.733h-0.789v1.339h0.448v0.395h-1.404v-0.395h0.502v-3.291h-0.502V10.622z M22.797,11.038v1.513h0.956
		c0.611,0,0.875-0.303,0.875-0.758c0-0.453-0.259-0.755-0.875-0.755H22.797z"/>
	<path fill="#FFFFFF" d="M26.698,14.323h0.465v0.378h-1.362v-0.378h0.465V12.16h-0.465v-0.376h0.465h0.432V14.323z M26.212,11.167
		h0.492v-0.545h-0.492V11.167z"/>
	<path fill="#FFFFFF" d="M30.398,13.637c-0.167,0.665-0.616,1.129-1.41,1.129c-0.897,0-1.421-0.644-1.421-1.523
		c0-0.881,0.524-1.524,1.421-1.524c0.416,0,0.794,0.201,0.967,0.48v-0.414h0.416v1.062h-0.47c-0.129-0.393-0.394-0.734-0.913-0.734
		c-0.567,0-0.989,0.4-0.989,1.13c0,0.729,0.422,1.128,0.989,1.128c0.491,0,0.827-0.295,0.962-0.733H30.398z"/>
	<path fill="#FFFFFF" d="M33.29,11.784h0.88v0.376h-0.464v2.163h0.464v0.378h-0.88v-0.416c-0.179,0.286-0.562,0.479-1,0.479
		c-0.832,0-1.372-0.652-1.372-1.522c0-0.871,0.54-1.524,1.372-1.524c0.438,0,0.821,0.194,1,0.48V11.784z M32.328,12.113
		c-0.54,0-0.978,0.388-0.978,1.129c0,0.74,0.438,1.128,0.978,1.128c0.541,0,0.978-0.388,0.978-1.128
		C33.306,12.501,32.869,12.113,32.328,12.113"/>
	<path fill="#FFFFFF" d="M35.694,14.323h0.465v0.379h-1.361v-0.379h0.464v-2.162h-0.464v-0.377h0.464h0.4v0.414
		c0.173-0.312,0.6-0.604,1.172-0.409v0.421c-0.686-0.194-1.14,0.185-1.14,0.854V14.323z"/>
	<path fill="#FFFFFF" d="M39.86,14.323h0.464v0.378h-0.88v-0.416c-0.174,0.26-0.551,0.479-1.016,0.479
		c-0.832,0-1.373-0.652-1.373-1.522c0-0.871,0.541-1.524,1.373-1.524c0.437,0,0.821,0.194,0.999,0.48V11h-0.464v-0.378h0.897V14.323
		z M38.466,12.113c-0.541,0-0.978,0.388-0.978,1.129c0,0.74,0.437,1.128,0.978,1.128c0.54,0,0.978-0.388,0.978-1.128
		C39.444,12.501,39.006,12.113,38.466,12.113"/>
	<path fill="#FFFFFF" d="M52.445,14.766V4.681h1.043c1.445,0,2.727,0.135,2.727,2.621c0,1.952-0.681,2.633-2.593,2.633h-0.241v4.83
		H52.445z M53.381,9.08h0.361c1.311,0,1.471-0.48,1.511-1.777c0-1.391-0.374-1.766-1.685-1.766h-0.187V9.08z"/>
	<path fill="#FFFFFF" d="M57.235,14.766V4.681h1.003c1.404,0,2.754,0.107,2.754,2.569c0,1.283-0.281,2.54-1.898,2.593l2.233,4.923
		h-0.989l-2.14-4.937h-0.027v4.937H57.235z M58.171,9.067h0.334c1.31,0,1.524-0.455,1.524-1.778c0-1.591-0.481-1.753-1.671-1.753
		h-0.187V9.067z"/>
	<path fill="#FFFFFF" d="M66.985,9.723c0,1.886-0.132,5.175-2.473,5.175c-2.206,0-2.475-2.822-2.475-5.175
		c0-2.554,0.335-5.177,2.475-5.177C66.786,4.546,66.985,7.503,66.985,9.723 M63.001,9.723c0,1.777,0.067,4.264,1.511,4.264
		c1.444,0,1.511-2.486,1.511-4.264c0-1.779-0.067-4.266-1.511-4.266C63.068,5.39,63.001,7.944,63.001,9.723"/>
	<polygon fill="#FFFFFF" points="72.485,14.766 71.548,14.766 71.548,9.563 69.235,9.563 69.235,14.766 68.3,14.766 68.3,4.681 
		69.235,4.681 69.235,8.706 71.548,8.706 71.548,4.681 72.485,4.681 	"/>
	<path fill="#FFFFFF" d="M75.873,2.554L74.134,4.12l-0.549-0.402l1.471-1.804L75.873,2.554z M75.03,14.765h-0.936V4.681h0.936
		V14.765z"/>
	<path fill="#FFFFFF" d="M77.946,4.681c1.324,0,2.42,0.16,2.42,2.501c0,0.989-0.174,1.833-1.177,2.367
		c1.203,0.387,1.417,1.324,1.417,2.446c0,2.101-0.721,2.771-2.753,2.771h-1.218V4.681H77.946z M77.571,5.483v3.652h0.254
		c0.762,0,1.578,0.133,1.578-1.885c0-1.593-0.375-1.767-1.578-1.767H77.571z M77.571,9.936v4.025h0.254
		c1.405,0,1.819-0.454,1.819-1.9c0-1.696-0.602-2.125-1.791-2.125H77.571z"/>
	<polygon fill="#FFFFFF" points="85.129,5.536 82.896,5.536 82.896,9.094 85.062,9.094 85.062,9.95 82.896,9.95 82.896,13.909 
		85.129,13.909 85.129,14.766 81.96,14.766 81.96,4.681 85.129,4.681 	"/>
	<path fill="#FFFFFF" d="M89.986,6.272c-0.402-0.454-0.842-0.815-1.484-0.815c-0.936,0-1.458,0.776-1.458,1.632
		c0,1.175,0.855,1.724,1.725,2.312c0.856,0.602,1.711,1.243,1.711,2.636c0,1.47-0.949,2.861-2.526,2.861
		c-0.562,0-1.138-0.161-1.592-0.51v-1.216c0.428,0.454,0.989,0.814,1.631,0.814c0.99,0,1.538-0.868,1.525-1.777
		c0.013-1.176-0.856-1.698-1.712-2.3c-0.856-0.588-1.724-1.244-1.724-2.688c0-1.35,0.829-2.676,2.312-2.676
		c0.602,0,1.11,0.201,1.592,0.536V6.272z"/>
	<polygon fill="#FFFFFF" points="94.856,5.536 92.624,5.536 92.624,9.094 94.789,9.094 94.789,9.95 92.624,9.95 92.624,13.909 
		94.856,13.909 94.856,14.766 91.687,14.766 91.687,4.681 94.856,4.681 	"/>
	<polygon fill="#FFFFFF" points="102.161,5.536 99.928,5.536 99.928,9.094 102.095,9.094 102.095,9.95 99.928,9.95 99.928,13.909 
		102.161,13.909 102.161,14.766 98.992,14.766 98.992,4.681 102.161,4.681 	"/>
	<polygon fill="#FFFFFF" points="104.45,13.909 106.643,13.909 106.643,14.765 103.514,14.765 103.514,4.681 104.45,4.681 	"/>
	<polygon fill="#FFFFFF" points="113.399,5.536 111.167,5.536 111.167,9.094 113.333,9.094 113.333,9.95 111.167,9.95 
		111.167,13.909 113.399,13.909 113.399,14.766 110.23,14.766 110.23,4.681 113.399,4.681 	"/>
	<path fill="#FFFFFF" d="M117.146,9.643l1.886,5.123h-1.003l-1.365-4.294h-0.053c-0.08,0.548-0.281,1.083-0.455,1.618l-0.896,2.676
		h-1.002l1.912-5.123l-1.912-4.961h1.002l1.351,4.267h0.053c0.108-0.643,0.309-1.271,0.522-1.874l0.843-2.393h1.003L117.146,9.643z"
		/>
	<path fill="#FFFFFF" d="M120.132,14.766V4.681h1.042c1.445,0,2.728,0.135,2.728,2.621c0,1.952-0.681,2.633-2.594,2.633h-0.241v4.83
		H120.132z M121.067,9.08h0.361c1.311,0,1.472-0.48,1.512-1.777c0-1.391-0.375-1.766-1.685-1.766h-0.188V9.08z"/>
	<polygon fill="#FFFFFF" points="128.09,5.536 125.856,5.536 125.856,9.094 128.023,9.094 128.023,9.95 125.856,9.95 
		125.856,13.909 128.09,13.909 128.09,14.766 124.921,14.766 124.921,4.681 128.09,4.681 	"/>
	<path fill="#FFFFFF" d="M133.642,14.766h-0.815l-2.274-6.781c-0.147-0.413-0.227-0.87-0.346-1.297h-0.054
		c0.039,0.655,0.107,1.297,0.107,1.952v6.126h-0.816V4.681h0.816l2.313,7.006c0.12,0.35,0.213,0.698,0.307,1.043h0.04
		c-0.026-0.44-0.093-0.896-0.093-1.337V4.681h0.815V14.766z"/>
	<path fill="#FFFFFF" d="M135.263,4.681h1.016c1.926,0,3.183,0.242,3.183,5.042c0,3.945-0.642,5.042-3.116,5.042h-1.083V4.681z
		 M136.199,13.909h0.268c1.805,0,2.032-1.271,2.032-4.187c0-3.465-0.36-4.187-2.139-4.187h-0.161V13.909z"/>
	<rect x="140.776" y="4.681" fill="#FFFFFF" width="0.936" height="10.083"/>
	<path fill="#FFFFFF" d="M147.971,9.723c0,1.886-0.134,5.175-2.474,5.175c-2.206,0-2.475-2.822-2.475-5.175
		c0-2.554,0.335-5.177,2.475-5.177C147.77,4.546,147.971,7.503,147.971,9.723 M143.986,9.723c0,1.777,0.067,4.264,1.511,4.264
		c1.444,0,1.51-2.486,1.51-4.264c0-1.779-0.066-4.266-1.51-4.266C144.053,5.39,143.986,7.944,143.986,9.723"/>
	<path fill="#FFFFFF" d="M152.067,4.681h1.016c1.927,0,3.183,0.242,3.183,5.042c0,3.945-0.642,5.042-3.116,5.042h-1.083V4.681z
		 M153.003,13.909h0.267c1.806,0,2.033-1.271,2.033-4.187c0-3.465-0.36-4.187-2.139-4.187h-0.161V13.909z"/>
	<polygon fill="#FFFFFF" points="160.749,5.536 158.516,5.536 158.516,9.094 160.682,9.094 160.682,9.95 158.516,9.95 
		158.516,13.909 160.749,13.909 160.749,14.766 157.58,14.766 157.58,4.681 160.749,4.681 	"/>
	<path fill="#FFFFFF" d="M166.196,4.681c1.324,0,2.42,0.16,2.42,2.501c0,0.989-0.174,1.833-1.176,2.367
		c1.204,0.387,1.417,1.324,1.417,2.446c0,2.101-0.722,2.771-2.754,2.771h-1.218V4.681H166.196z M165.821,5.483v3.652h0.254
		c0.763,0,1.578,0.133,1.578-1.885c0-1.593-0.374-1.767-1.578-1.767H165.821z M165.821,9.936v4.025h0.254
		c1.405,0,1.82-0.454,1.82-1.9c0-1.696-0.602-2.125-1.792-2.125H165.821z"/>
	<polygon fill="#FFFFFF" points="173.379,5.536 171.146,5.536 171.146,9.094 173.312,9.094 173.312,9.95 171.146,9.95 
		171.146,13.909 173.379,13.909 173.379,14.766 170.209,14.766 170.209,4.681 173.379,4.681 	"/>
	<path fill="#FFFFFF" d="M176.042,4.681c1.324,0,2.421,0.16,2.421,2.501c0,0.989-0.175,1.833-1.177,2.367
		c1.203,0.387,1.417,1.324,1.417,2.446c0,2.101-0.722,2.771-2.755,2.771h-1.216V4.681H176.042z M175.668,5.483v3.652h0.254
		c0.762,0,1.578,0.133,1.578-1.885c0-1.593-0.375-1.767-1.578-1.767H175.668z M175.668,9.936v4.025h0.254
		c1.404,0,1.818-0.454,1.818-1.9c0-1.696-0.601-2.125-1.792-2.125H175.668z"/>
	<rect x="180.057" y="4.681" fill="#FFFFFF" width="0.936" height="10.083"/>
	<path fill="#FFFFFF" d="M182.599,4.681h1.016c1.926,0,3.183,0.242,3.183,5.042c0,3.945-0.642,5.042-3.116,5.042h-1.083V4.681z
		 M183.535,13.909h0.267c1.806,0,2.033-1.271,2.033-4.187c0-3.465-0.36-4.187-2.139-4.187h-0.161V13.909z"/>
	<path fill="#FFFFFF" d="M192.191,14.765h-1.004l-0.374-2.074h-2.14l-0.361,2.074h-1.003l1.979-10.083h0.883L192.191,14.765z
		 M190.665,11.874l-0.668-3.863c-0.12-0.683-0.174-1.377-0.255-2.06h-0.053c-0.093,0.683-0.16,1.377-0.267,2.06l-0.589,3.863
		H190.665z"/>
	<path fill="#FFFFFF" d="M196.499,6.272c-0.402-0.454-0.843-0.815-1.485-0.815c-0.937,0-1.457,0.776-1.457,1.632
		c0,1.175,0.855,1.724,1.725,2.312c0.856,0.602,1.711,1.243,1.711,2.636c0,1.47-0.949,2.861-2.528,2.861
		c-0.561,0-1.135-0.161-1.59-0.51v-1.216c0.429,0.454,0.989,0.814,1.63,0.814c0.991,0,1.539-0.868,1.526-1.777
		c0.013-1.176-0.856-1.698-1.712-2.3c-0.855-0.588-1.726-1.244-1.726-2.688c0-1.35,0.83-2.676,2.314-2.676
		c0.603,0,1.111,0.201,1.592,0.536V6.272z"/>
	<polygon fill="#FFFFFF" points="204.151,5.536 201.918,5.536 201.918,9.094 204.084,9.094 204.084,9.95 201.918,9.95 
		201.918,13.909 204.151,13.909 204.151,14.766 200.982,14.766 200.982,4.681 204.151,4.681 	"/>
	<path fill="#FFFFFF" d="M211.91,14.766h-0.923l-0.709-7.438c-0.027-0.32-0.04-0.628-0.054-0.949h-0.053
		c-0.08,0.67-0.106,1.324-0.228,1.993l-1.096,6.394h-0.763l-1.108-7.438c-0.054-0.32-0.08-0.628-0.12-0.949h-0.041
		c-0.027,0.655-0.014,1.337-0.095,1.978l-0.801,6.408h-0.91l1.418-10.084h0.801l1.138,7.515c0.053,0.336,0.08,0.669,0.12,1.003
		h0.041c0.067-0.575,0.107-1.162,0.201-1.739l1.149-6.779h0.802L211.91,14.766z"/>
	<path fill="#FFFFFF" d="M214.335,4.681c1.324,0,2.42,0.16,2.42,2.501c0,0.989-0.174,1.833-1.177,2.367
		c1.203,0.387,1.418,1.324,1.418,2.446c0,2.101-0.723,2.771-2.755,2.771h-1.216V4.681H214.335z M213.961,5.483v3.652h0.253
		c0.762,0,1.578,0.133,1.578-1.885c0-1.593-0.375-1.767-1.578-1.767H213.961z M213.961,9.936v4.025h0.253
		c1.405,0,1.818-0.454,1.818-1.9c0-1.696-0.601-2.125-1.791-2.125H213.961z"/>
	<path fill="#FFFFFF" d="M218.348,14.766V4.681h1.003c1.405,0,2.757,0.107,2.757,2.569c0,1.283-0.282,2.54-1.899,2.593l2.232,4.923
		h-0.99l-2.14-4.937h-0.027v4.937H218.348z M219.284,9.067h0.335c1.311,0,1.525-0.455,1.525-1.778c0-1.591-0.481-1.753-1.671-1.753
		h-0.189V9.067z"/>
	<rect x="223.446" y="4.681" fill="#FFFFFF" width="0.936" height="10.083"/>
	<path fill="#FFFFFF" d="M230.066,14.765h-1.002l-0.375-2.074h-2.139l-0.361,2.074h-1.002l1.978-10.083h0.883L230.066,14.765z
		 M228.543,11.874l-0.668-3.863c-0.122-0.683-0.175-1.377-0.255-2.06h-0.053c-0.094,0.683-0.161,1.377-0.268,2.06l-0.588,3.863
		H228.543z"/>
	<path fill="#FFFFFF" d="M232.771,9.442h2.3v1.859c0,1.592-0.081,3.596-2.167,3.596c-2.124,0-2.326-2.233-2.326-5.416
		c0-2.38,0.281-4.935,2.42-4.935c1.203,0,1.807,0.804,2.06,1.9l-0.923,0.361c-0.106-0.602-0.362-1.35-1.096-1.35
		c-1.391,0.014-1.499,2.166-1.499,3.944c0,3.731,0.469,4.585,1.446,4.585c1.055,0,1.149-0.772,1.149-2.926v-0.763h-1.364V9.442z"/>
	<path fill="#FFFFFF" d="M240.463,14.765h-1.003l-0.374-2.074h-2.141l-0.36,2.074h-1.003l1.979-10.083h0.881L240.463,14.765z
		 M238.938,11.874l-0.669-3.863c-0.119-0.683-0.172-1.377-0.254-2.06h-0.054c-0.093,0.683-0.16,1.377-0.266,2.06l-0.59,3.863
		H238.938z"/>
	<path fill="#FFFFFF" d="M245.467,14.766h-0.816l-2.274-6.781c-0.147-0.413-0.227-0.87-0.347-1.297h-0.052
		c0.039,0.655,0.106,1.297,0.106,1.952v6.126h-0.816V4.681h0.816l2.313,7.006c0.119,0.35,0.215,0.698,0.308,1.043h0.04
		c-0.026-0.44-0.094-0.896-0.094-1.337V4.681h0.816V14.766z"/>
	<polygon fill="#FFFFFF" points="250.35,5.536 248.839,5.536 248.839,14.766 247.904,14.766 247.904,5.536 246.392,5.536 
		246.392,4.681 250.35,4.681 	"/>
	<polygon fill="#FFFFFF" points="254.418,5.536 252.186,5.536 252.186,9.094 254.352,9.094 254.352,9.95 252.186,9.95 
		252.186,13.909 254.418,13.909 254.418,14.766 251.25,14.766 251.25,4.681 254.418,4.681 	"/>
	<path fill="#FFFFFF" d="M259.275,6.272c-0.402-0.454-0.843-0.815-1.486-0.815c-0.935,0-1.457,0.776-1.457,1.632
		c0,1.175,0.856,1.724,1.725,2.312c0.857,0.602,1.712,1.243,1.712,2.636c0,1.47-0.948,2.861-2.526,2.861
		c-0.563,0-1.136-0.161-1.592-0.51v-1.216c0.428,0.454,0.989,0.814,1.631,0.814c0.99,0,1.539-0.868,1.525-1.777
		c0.014-1.176-0.856-1.698-1.712-2.3c-0.856-0.588-1.724-1.244-1.724-2.688c0-1.35,0.828-2.676,2.312-2.676
		c0.603,0,1.11,0.201,1.592,0.536V6.272z"/>
	<path fill="#FFFFFF" d="M267.837,14.765h-1.004l-0.373-2.074h-2.141l-0.361,2.074h-1.003l1.979-10.083h0.883L267.837,14.765z
		 M266.312,11.874l-0.668-3.863c-0.12-0.683-0.174-1.377-0.253-2.06h-0.053c-0.094,0.683-0.163,1.377-0.269,2.06l-0.588,3.863
		H266.312z"/>
	<path fill="#FFFFFF" d="M277.83,14.766h-0.923l-0.709-7.438c-0.026-0.32-0.04-0.628-0.053-0.949h-0.053
		c-0.08,0.67-0.107,1.324-0.229,1.993l-1.095,6.394h-0.764l-1.108-7.438c-0.053-0.32-0.08-0.628-0.12-0.949h-0.042
		c-0.024,0.655-0.012,1.337-0.094,1.978l-0.8,6.408h-0.911l1.418-10.084h0.802l1.138,7.515c0.053,0.336,0.08,0.669,0.12,1.003h0.039
		c0.069-0.575,0.108-1.162,0.201-1.739l1.152-6.779h0.8L277.83,14.766z"/>
	<polygon fill="#FFFFFF" points="282.113,5.536 279.88,5.536 279.88,9.094 282.046,9.094 282.046,9.95 279.88,9.95 279.88,13.909 
		282.113,13.909 282.113,14.766 278.943,14.766 278.943,4.681 282.113,4.681 	"/>
	<path fill="#FFFFFF" d="M287.665,14.766h-0.814l-2.275-6.781c-0.147-0.413-0.227-0.87-0.346-1.297h-0.055
		c0.04,0.655,0.108,1.297,0.108,1.952v6.126h-0.817V4.681h0.817l2.313,7.006c0.119,0.35,0.212,0.698,0.307,1.043h0.04
		c-0.027-0.44-0.092-0.896-0.092-1.337V4.681h0.814V14.766z"/>
	<path fill="#FFFFFF" d="M293.941,9.723c0,1.886-0.134,5.175-2.474,5.175c-2.207,0-2.474-2.822-2.474-5.175
		c0-2.554,0.333-5.177,2.474-5.177C293.739,4.546,293.941,7.503,293.941,9.723 M289.955,9.723c0,1.777,0.066,4.264,1.512,4.264
		c1.442,0,1.511-2.486,1.511-4.264c0-1.779-0.069-4.266-1.511-4.266C290.021,5.39,289.955,7.944,289.955,9.723"/>
	<path fill="#FFFFFF" d="M295.253,14.766V4.681h1.004c1.404,0,2.754,0.107,2.754,2.569c0,1.283-0.282,2.54-1.899,2.593l2.233,4.923
		h-0.989l-2.14-4.937h-0.027v4.937H295.253z M296.189,9.067h0.335c1.31,0,1.523-0.455,1.523-1.778c0-1.591-0.481-1.753-1.671-1.753
		h-0.187V9.067z"/>
	<polygon fill="#FFFFFF" points="303.519,5.536 301.287,5.536 301.287,9.094 303.453,9.094 303.453,9.95 301.287,9.95 
		301.287,13.909 303.519,13.909 303.519,14.766 300.352,14.766 300.352,4.681 303.519,4.681 	"/>
	<path fill="#FFFFFF" d="M308.375,6.272c-0.401-0.454-0.842-0.815-1.484-0.815c-0.936,0-1.457,0.776-1.457,1.632
		c0,1.175,0.857,1.724,1.725,2.312c0.856,0.602,1.71,1.243,1.71,2.636c0,1.47-0.948,2.861-2.525,2.861
		c-0.562,0-1.138-0.161-1.591-0.51v-1.216c0.427,0.454,0.989,0.814,1.631,0.814c0.988,0,1.537-0.868,1.524-1.777
		c0.013-1.176-0.857-1.698-1.712-2.3c-0.855-0.588-1.725-1.244-1.725-2.688c0-1.35,0.829-2.676,2.313-2.676
		c0.602,0,1.111,0.201,1.591,0.536V6.272z"/>
	<path fill="#FFFFFF" d="M312.86,4.681h1.018c1.925,0,3.182,0.242,3.182,5.042c0,3.945-0.642,5.042-3.116,5.042h-1.084V4.681z
		 M313.798,13.909h0.266c1.805,0,2.034-1.271,2.034-4.187c0-3.465-0.363-4.187-2.141-4.187h-0.159V13.909z"/>
	<polygon fill="#FFFFFF" points="321.543,5.536 319.309,5.536 319.309,9.094 321.476,9.094 321.476,9.95 319.309,9.95 
		319.309,13.909 321.543,13.909 321.543,14.766 318.373,14.766 318.373,4.681 321.543,4.681 	"/>
	<polygon fill="#FFFFFF" points="328.85,5.536 326.613,5.536 326.613,9.094 328.78,9.094 328.78,9.95 326.613,9.95 326.613,13.909 
		328.85,13.909 328.85,14.766 325.679,14.766 325.679,4.681 328.85,4.681 	"/>
	<path fill="#FFFFFF" d="M330.199,4.681h1.019c1.923,0,3.182,0.242,3.182,5.042c0,3.945-0.642,5.042-3.119,5.042h-1.082V4.681z
		 M331.136,13.909h0.267c1.804,0,2.034-1.271,2.034-4.187c0-3.465-0.362-4.187-2.14-4.187h-0.161V13.909z"/>
	<path fill="#FFFFFF" d="M339.792,14.765h-1.003l-0.374-2.074h-2.142l-0.359,2.074h-1.003l1.979-10.083h0.882L339.792,14.765z
		 M338.269,11.874l-0.67-3.863c-0.118-0.683-0.174-1.377-0.254-2.06h-0.054c-0.095,0.683-0.16,1.377-0.269,2.06l-0.589,3.863
		H338.269z"/>
	<path fill="#FFFFFF" d="M340.596,4.681h1.016c1.929,0,3.183,0.242,3.183,5.042c0,3.945-0.642,5.042-3.114,5.042h-1.084V4.681z
		 M341.532,13.909h0.269c1.805,0,2.031-1.271,2.031-4.187c0-3.465-0.363-4.187-2.141-4.187h-0.159V13.909z"/>
	<path fill="#FFFFFF" d="M347.38,14.188c0,0.376-0.31,0.684-0.685,0.684c-0.373,0-0.684-0.308-0.684-0.684
		c0-0.374,0.311-0.682,0.684-0.682C347.07,13.507,347.38,13.814,347.38,14.188"/>
	<polygon fill="#FFFFFF" points="354.842,5.536 352.611,5.536 352.611,9.094 354.777,9.094 354.777,9.95 352.611,9.95 
		352.611,13.909 354.842,13.909 354.842,14.766 351.675,14.766 351.675,4.681 354.842,4.681 	"/>
	<polygon fill="#FFFFFF" points="357.134,13.909 359.323,13.909 359.323,14.765 356.195,14.765 356.195,4.681 357.134,4.681 	"/>
	<polygon fill="#FFFFFF" points="366.08,5.536 363.849,5.536 363.849,9.094 366.015,9.094 366.015,9.95 363.849,9.95 
		363.849,13.909 366.08,13.909 366.08,14.766 362.912,14.766 362.912,4.681 366.08,4.681 	"/>
	<path fill="#FFFFFF" d="M369.829,9.643l1.886,5.123h-1.005l-1.362-4.294h-0.055c-0.08,0.548-0.281,1.083-0.455,1.618l-0.896,2.676
		h-1.003l1.914-5.123l-1.914-4.961h1.003l1.351,4.267h0.055c0.105-0.643,0.308-1.271,0.521-1.874l0.842-2.393h1.005L369.829,9.643z"
		/>
	<path fill="#FFFFFF" d="M376.518,14.483c-0.349,0.239-0.843,0.414-1.284,0.414c-2.367,0-2.713-3.09-2.713-4.813
		c0-1.631,0.053-5.538,2.807-5.538c0.375,0,0.885,0.096,1.19,0.322v1.03c-0.375-0.255-0.711-0.441-1.177-0.441
		c-1.631,0-1.859,2.366-1.859,4.238c0,1.179,0,4.292,1.793,4.292c0.454,0,0.88-0.198,1.243-0.451V14.483z"/>
	<polygon fill="#FFFFFF" points="380.894,5.536 378.66,5.536 378.66,9.094 380.826,9.094 380.826,9.95 378.66,9.95 378.66,13.909 
		380.894,13.909 380.894,14.766 377.725,14.766 377.725,4.681 380.894,4.681 	"/>
	<path fill="#FFFFFF" d="M385.749,6.272c-0.4-0.454-0.843-0.815-1.486-0.815c-0.933,0-1.457,0.776-1.457,1.632
		c0,1.175,0.855,1.724,1.727,2.312c0.854,0.602,1.711,1.243,1.711,2.636c0,1.47-0.948,2.861-2.529,2.861
		c-0.561,0-1.134-0.161-1.588-0.51v-1.216c0.427,0.454,0.986,0.814,1.631,0.814c0.987,0,1.538-0.868,1.523-1.777
		c0.015-1.176-0.855-1.698-1.711-2.3c-0.856-0.588-1.726-1.244-1.726-2.688c0-1.35,0.829-2.676,2.312-2.676
		c0.604,0,1.112,0.201,1.593,0.536V6.272z"/>
	<path fill="#FFFFFF" d="M392.104,9.723c0,1.886-0.134,5.175-2.476,5.175c-2.205,0-2.472-2.822-2.472-5.175
		c0-2.554,0.331-5.177,2.472-5.177C391.902,4.546,392.104,7.503,392.104,9.723 M388.119,9.723c0,1.777,0.066,4.264,1.509,4.264
		c1.444,0,1.513-2.486,1.513-4.264c0-1.779-0.068-4.266-1.513-4.266C388.186,5.39,388.119,7.944,388.119,9.723"/>
	<path fill="#FFFFFF" d="M396.201,4.681h1.015c1.929,0,3.184,0.242,3.184,5.042c0,3.945-0.642,5.042-3.116,5.042h-1.082V4.681z
		 M397.136,13.909h0.266c1.808,0,2.034-1.271,2.034-4.187c0-3.465-0.361-4.187-2.139-4.187h-0.161V13.909z"/>
	<polygon fill="#FFFFFF" points="404.882,5.536 402.649,5.536 402.649,9.094 404.813,9.094 404.813,9.95 402.649,9.95 
		402.649,13.909 404.882,13.909 404.882,14.766 401.712,14.766 401.712,4.681 404.882,4.681 	"/>
	<path fill="#FFFFFF" d="M413.095,14.765h-1.001l-0.376-2.074h-2.139l-0.362,2.074h-1.001l1.978-10.083h0.884L413.095,14.765z
		 M411.57,11.874l-0.67-3.863c-0.117-0.683-0.172-1.377-0.253-2.06h-0.054c-0.092,0.683-0.159,1.377-0.265,2.06l-0.589,3.863H411.57
		z"/>
	<polygon fill="#FFFFFF" points="414.838,13.909 417.029,13.909 417.029,14.765 413.901,14.765 413.901,4.681 414.838,4.681 	"/>
	<path fill="#FFFFFF" d="M421.539,14.483c-0.349,0.239-0.843,0.414-1.285,0.414c-2.366,0-2.714-3.09-2.714-4.813
		c0-1.631,0.055-5.538,2.809-5.538c0.376,0,0.882,0.096,1.19,0.322v1.03c-0.374-0.255-0.707-0.441-1.179-0.441
		c-1.63,0-1.856,2.366-1.856,4.238c0,1.179,0,4.292,1.793,4.292c0.452,0,0.88-0.198,1.242-0.451V14.483z"/>
	<path fill="#FFFFFF" d="M427.396,9.723c0,1.886-0.132,5.175-2.472,5.175c-2.208,0-2.476-2.822-2.476-5.175
		c0-2.554,0.336-5.177,2.476-5.177C427.198,4.546,427.396,7.503,427.396,9.723 M423.412,9.723c0,1.777,0.069,4.264,1.513,4.264
		c1.444,0,1.512-2.486,1.512-4.264c0-1.779-0.067-4.266-1.512-4.266C423.481,5.39,423.412,7.944,423.412,9.723"/>
	<polygon fill="#FFFFFF" points="432.9,14.766 431.961,14.766 431.961,9.563 429.646,9.563 429.646,14.766 428.712,14.766 
		428.712,4.681 429.646,4.681 429.646,8.706 431.961,8.706 431.961,4.681 432.9,4.681 	"/>
	<path fill="#FFFFFF" d="M439.157,9.723c0,1.886-0.132,5.175-2.472,5.175c-2.208,0-2.475-2.822-2.475-5.175
		c0-2.554,0.334-5.177,2.475-5.177C438.96,4.546,439.157,7.503,439.157,9.723 M435.174,9.723c0,1.777,0.065,4.264,1.512,4.264
		c1.443,0,1.512-2.486,1.512-4.264c0-1.779-0.068-4.266-1.512-4.266C435.239,5.39,435.174,7.944,435.174,9.723"/>
	<polygon fill="#FFFFFF" points="441.408,13.909 443.602,13.909 443.602,14.765 440.473,14.765 440.473,4.681 441.408,4.681 	"/>
	<polygon fill="#FFFFFF" points="450.358,5.536 448.125,5.536 448.125,9.094 450.293,9.094 450.293,9.95 448.125,9.95 
		448.125,13.909 450.358,13.909 450.358,14.766 447.188,14.766 447.188,4.681 450.358,4.681 	"/>
	<path fill="#FFFFFF" d="M455.216,6.272c-0.402-0.454-0.842-0.815-1.486-0.815c-0.934,0-1.455,0.776-1.455,1.632
		c0,1.175,0.854,1.724,1.726,2.312c0.854,0.602,1.711,1.243,1.711,2.636c0,1.47-0.952,2.861-2.527,2.861
		c-0.561,0-1.138-0.161-1.593-0.51v-1.216c0.426,0.454,0.989,0.814,1.633,0.814c0.989,0,1.535-0.868,1.521-1.777
		c0.014-1.176-0.854-1.698-1.708-2.3c-0.857-0.588-1.728-1.244-1.728-2.688c0-1.35,0.83-2.676,2.314-2.676
		c0.601,0,1.106,0.201,1.592,0.536V6.272z"/>
	<path fill="#FFFFFF" d="M459.697,14.766V4.681h1.045c1.441,0,2.727,0.135,2.727,2.621c0,1.952-0.682,2.633-2.594,2.633h-0.238v4.83
		H459.697z M460.637,9.08h0.359c1.309,0,1.469-0.48,1.511-1.777c0-1.391-0.376-1.766-1.686-1.766h-0.185V9.08z"/>
	<polygon fill="#FFFFFF" points="467.658,5.536 465.425,5.536 465.425,9.094 467.59,9.094 467.59,9.95 465.425,9.95 465.425,13.909 
		467.658,13.909 467.658,14.766 464.485,14.766 464.485,4.681 467.658,4.681 	"/>
	<path fill="#FFFFFF" d="M469.01,14.766V4.681h1.005c1.406,0,2.754,0.107,2.754,2.569c0,1.283-0.281,2.54-1.899,2.593l2.233,4.923
		h-0.989l-2.141-4.937h-0.024v4.937H469.01z M469.948,9.067h0.331c1.312,0,1.526-0.455,1.526-1.778c0-1.591-0.479-1.753-1.672-1.753
		h-0.186V9.067z"/>
	<path fill="#FFFFFF" d="M476.006,12.88c0,1.256-0.08,2.018-1.443,2.018c-0.388,0-0.736-0.08-1.098-0.255v-0.975
		c0.27,0.24,0.562,0.439,0.925,0.439c0.601,0,0.681-0.506,0.681-1.055V4.681h0.936V12.88z"/>
	<path fill="#FFFFFF" d="M481.8,11.566c0,1.86-0.149,3.331-2.115,3.331c-2.018,0-2.11-1.522-2.11-3.331V4.681h0.935v6.834
		c0,1.673,0.095,2.472,1.176,2.472c1.072,0,1.179-0.799,1.179-2.472V4.681h0.937V11.566z"/>
	<path fill="#FFFFFF" d="M483.366,4.681h1.015c1.926,0,3.186,0.242,3.186,5.042c0,3.945-0.645,5.042-3.116,5.042h-1.084V4.681z
		 M484.303,13.909h0.266c1.805,0,2.034-1.271,2.034-4.187c0-3.465-0.364-4.187-2.139-4.187h-0.161V13.909z"/>
	<rect x="488.879" y="4.681" fill="#FFFFFF" width="0.937" height="10.083"/>
	<path fill="#FFFFFF" d="M495.123,14.483c-0.349,0.239-0.843,0.414-1.282,0.414c-2.366,0-2.714-3.09-2.714-4.813
		c0-1.631,0.052-5.538,2.806-5.538c0.376,0,0.882,0.096,1.19,0.322v1.03c-0.374-0.255-0.707-0.441-1.177-0.441
		c-1.63,0-1.856,2.366-1.856,4.238c0,1.179,0,4.292,1.791,4.292c0.454,0,0.882-0.198,1.242-0.451V14.483z"/>
	<rect x="496.332" y="4.681" fill="#FFFFFF" width="0.935" height="10.083"/>
	<path fill="#FFFFFF" d="M502.952,14.765h-1.003l-0.374-2.074h-2.142l-0.359,2.074h-1.003l1.979-10.083h0.882L502.952,14.765z
		 M501.428,11.874l-0.67-3.863c-0.118-0.683-0.172-1.377-0.255-2.06h-0.052c-0.096,0.683-0.161,1.377-0.271,2.06l-0.584,3.863
		H501.428z"/>
	<polygon fill="#FFFFFF" points="504.69,13.909 506.884,13.909 506.884,14.765 503.756,14.765 503.756,4.681 504.69,4.681 	"/>
	<path fill="#FFFFFF" d="M510.473,14.766V4.681h1.041c1.446,0,2.728,0.135,2.728,2.621c0,1.952-0.681,2.633-2.593,2.633h-0.241v4.83
		H510.473z M511.407,9.08h0.362c1.311,0,1.472-0.48,1.509-1.777c0-1.391-0.373-1.766-1.682-1.766h-0.189V9.08z"/>
	<path fill="#FFFFFF" d="M518.849,14.765h-1.003l-0.374-2.074h-2.142l-0.362,2.074h-1l1.979-10.083h0.882L518.849,14.765z
		 M517.325,11.874l-0.673-3.863c-0.117-0.683-0.17-1.377-0.253-2.06h-0.054c-0.093,0.683-0.159,1.377-0.268,2.06l-0.587,3.863
		H517.325z"/>
	<path fill="#FFFFFF" d="M519.65,14.766V4.681h1.003c1.406,0,2.757,0.107,2.757,2.569c0,1.283-0.281,2.54-1.899,2.593l2.232,4.923
		h-0.988l-2.14-4.937h-0.027v4.937H519.65z M520.588,9.067h0.336c1.311,0,1.523-0.455,1.523-1.778c0-1.591-0.482-1.753-1.673-1.753
		h-0.187V9.067z"/>
	<path fill="#FFFFFF" d="M528.828,14.765h-1.003l-0.374-2.074h-2.139l-0.364,2.074h-1.001l1.98-10.083h0.883L528.828,14.765z
		 M527.305,11.874l-0.667-3.863c-0.123-0.683-0.175-1.377-0.256-2.06h-0.055c-0.095,0.683-0.16,1.377-0.268,2.06l-0.586,3.863
		H527.305z"/>
	<polygon fill="#FFFFFF" points="533.35,13.909 535.546,13.909 535.546,14.765 532.414,14.765 532.414,4.681 533.35,4.681 	"/>
	<path fill="#FFFFFF" d="M540.429,14.765h-1.003l-0.377-2.074h-2.136l-0.362,2.074h-1.006l1.982-10.083h0.881L540.429,14.765z
		 M538.904,11.874l-0.67-3.863c-0.123-0.683-0.175-1.377-0.253-2.06h-0.054c-0.095,0.683-0.159,1.377-0.267,2.06l-0.591,3.863
		H538.904z"/>
	<path fill="#FFFFFF" d="M547.52,6.272c-0.4-0.454-0.842-0.815-1.483-0.815c-0.937,0-1.458,0.776-1.458,1.632
		c0,1.175,0.857,1.724,1.726,2.312c0.855,0.602,1.711,1.243,1.711,2.636c0,1.47-0.949,2.861-2.527,2.861
		c-0.561,0-1.138-0.161-1.593-0.51v-1.216c0.429,0.454,0.992,0.814,1.633,0.814c0.989,0,1.538-0.868,1.526-1.777
		c0.012-1.176-0.857-1.698-1.713-2.3c-0.857-0.588-1.726-1.244-1.726-2.688c0-1.35,0.831-2.676,2.314-2.676
		c0.601,0,1.106,0.201,1.59,0.536V6.272z"/>
	<path fill="#FFFFFF" d="M553.3,14.765h-1.006l-0.371-2.074h-2.142l-0.359,2.074h-1.003l1.979-10.083h0.88L553.3,14.765z
		 M551.775,11.874l-0.669-3.863c-0.121-0.683-0.173-1.377-0.256-2.06h-0.052c-0.095,0.683-0.161,1.377-0.268,2.06l-0.59,3.863
		H551.775z"/>
	<polygon fill="#FFFFFF" points="555.043,13.909 557.231,13.909 557.231,14.765 554.104,14.765 554.104,4.681 555.043,4.681 	"/>
	<path fill="#FFFFFF" d="M562.222,11.566c0,1.86-0.147,3.331-2.113,3.331c-2.018,0-2.11-1.522-2.11-3.331V4.681h0.935v6.834
		c0,1.673,0.093,2.472,1.176,2.472c1.07,0,1.178-0.799,1.178-2.472V4.681h0.936V11.566z"/>
	<path fill="#FFFFFF" d="M563.79,4.681h1.015c1.926,0,3.183,0.242,3.183,5.042c0,3.945-0.639,5.042-3.113,5.042h-1.084V4.681z
		 M564.727,13.909h0.266c1.805,0,2.035-1.271,2.035-4.187c0-3.465-0.362-4.187-2.142-4.187h-0.159V13.909z"/>
	<path fill="#FFFFFF" d="M570.571,14.188c0,0.376-0.309,0.684-0.682,0.684c-0.377,0-0.682-0.308-0.682-0.684
		c0-0.374,0.305-0.682,0.682-0.682C570.263,13.507,570.571,13.814,570.571,14.188"/>
	<path fill="#FFFFFF" d="M578.371,6.272c-0.401-0.454-0.842-0.815-1.485-0.815c-0.935,0-1.455,0.776-1.455,1.632
		c0,1.175,0.854,1.724,1.725,2.312c0.854,0.602,1.713,1.243,1.713,2.636c0,1.47-0.954,2.861-2.528,2.861
		c-0.562,0-1.139-0.161-1.594-0.51v-1.216c0.43,0.454,0.989,0.814,1.634,0.814c0.988,0,1.534-0.868,1.523-1.777
		c0.011-1.176-0.854-1.698-1.711-2.3c-0.855-0.588-1.727-1.244-1.727-2.688c0-1.35,0.83-2.676,2.313-2.676
		c0.602,0,1.109,0.201,1.592,0.536V6.272z"/>
	<rect x="580.072" y="4.681" fill="#FFFFFF" width="0.938" height="10.083"/>
	<polygon fill="#FFFFFF" points="588.659,5.536 587.149,5.536 587.149,14.766 586.215,14.766 586.215,5.536 584.701,5.536 
		584.701,4.681 588.659,4.681 	"/>
	<path fill="#FFFFFF" d="M594.209,9.723c0,1.886-0.13,5.175-2.47,5.175c-2.21,0-2.475-2.822-2.475-5.175
		c0-2.554,0.336-5.177,2.475-5.177C594.011,4.546,594.209,7.503,594.209,9.723 M590.228,9.723c0,1.777,0.065,4.264,1.512,4.264
		c1.443,0,1.509-2.486,1.509-4.264c0-1.779-0.065-4.266-1.509-4.266C590.293,5.39,590.228,7.944,590.228,9.723"/>
	<path fill="#FFFFFF" d="M601.932,14.766h-0.925l-0.71-7.438c-0.024-0.32-0.04-0.628-0.052-0.949h-0.052
		c-0.08,0.67-0.106,1.324-0.228,1.993l-1.098,6.394h-0.763l-1.108-7.438c-0.056-0.32-0.081-0.628-0.121-0.949h-0.04
		c-0.026,0.655-0.014,1.337-0.095,1.978l-0.801,6.408h-0.909l1.417-10.084h0.802l1.135,7.515c0.055,0.336,0.081,0.669,0.124,1.003
		h0.037c0.069-0.575,0.109-1.162,0.201-1.739l1.152-6.779h0.8L601.932,14.766z"/>
	<path fill="#FFFFFF" d="M607.122,14.765h-1.003l-0.374-2.074h-2.139l-0.362,2.074h-1.003l1.983-10.083h0.878L607.122,14.765z
		 M605.602,11.874l-0.672-3.863c-0.121-0.683-0.173-1.377-0.253-2.06h-0.056c-0.092,0.683-0.159,1.377-0.267,2.06l-0.589,3.863
		H605.602z"/>
	<path fill="#FFFFFF" d="M611.432,6.272c-0.4-0.454-0.843-0.815-1.483-0.815c-0.938,0-1.458,0.776-1.458,1.632
		c0,1.175,0.857,1.724,1.723,2.312c0.856,0.602,1.713,1.243,1.713,2.636c0,1.47-0.948,2.861-2.526,2.861
		c-0.563,0-1.136-0.161-1.59-0.51v-1.216c0.426,0.454,0.988,0.814,1.632,0.814c0.986,0,1.536-0.868,1.521-1.777
		c0.015-1.176-0.856-1.698-1.711-2.3c-0.855-0.588-1.725-1.244-1.725-2.688c0-1.35,0.828-2.676,2.312-2.676
		c0.604,0,1.109,0.201,1.593,0.536V6.272z"/>
	<polygon fill="#FFFFFF" points="613.239,16.916 612.598,16.608 613.627,13.507 614.576,13.935 	"/>
	<path fill="#FFFFFF" d="M622.896,14.766h-0.815l-2.272-6.781c-0.146-0.413-0.229-0.87-0.347-1.297h-0.056
		c0.044,0.655,0.107,1.297,0.107,1.952v6.126H618.7V4.681h0.813l2.314,7.006c0.123,0.35,0.212,0.698,0.307,1.043h0.04
		c-0.026-0.44-0.094-0.896-0.094-1.337V4.681h0.815V14.766z"/>
	<path fill="#FFFFFF" d="M629.174,9.723c0,1.886-0.135,5.175-2.477,5.175c-2.206,0-2.474-2.822-2.474-5.175
		c0-2.554,0.336-5.177,2.474-5.177C628.973,4.546,629.174,7.503,629.174,9.723 M625.188,9.723c0,1.777,0.068,4.264,1.51,4.264
		c1.444,0,1.511-2.486,1.511-4.264c0-1.779-0.066-4.266-1.511-4.266C625.256,5.39,625.188,7.944,625.188,9.723"/>
	<path fill="#FFFFFF" d="M639.674,14.766h-0.923l-0.71-7.438c-0.026-0.32-0.037-0.628-0.052-0.949h-0.055
		c-0.078,0.67-0.106,1.324-0.227,1.993l-1.099,6.394h-0.759l-1.111-7.438c-0.053-0.32-0.081-0.628-0.121-0.949h-0.04
		c-0.026,0.655-0.013,1.337-0.094,1.978l-0.802,6.408h-0.911l1.418-10.084h0.803l1.14,7.515c0.052,0.336,0.078,0.669,0.118,1.003
		h0.041c0.065-0.575,0.108-1.162,0.201-1.739l1.149-6.779h0.802L639.674,14.766z"/>
	<path fill="#FFFFFF" d="M644.867,14.765h-1.003l-0.374-2.074h-2.139l-0.362,2.074h-1.006l1.981-10.083h0.882L644.867,14.765z
		 M643.344,11.874l-0.67-3.863c-0.118-0.683-0.176-1.377-0.256-2.06h-0.052c-0.095,0.683-0.161,1.377-0.27,2.06l-0.587,3.863
		H643.344z"/>
	<path fill="#FFFFFF" d="M649.869,14.766h-0.814l-2.273-6.781c-0.146-0.413-0.228-0.87-0.346-1.297h-0.054
		c0.037,0.655,0.105,1.297,0.105,1.952v6.126h-0.815V4.681h0.815l2.314,7.006c0.118,0.35,0.211,0.698,0.307,1.043h0.041
		c-0.03-0.44-0.095-0.896-0.095-1.337V4.681h0.814V14.766z"/>
	<polygon fill="#FFFFFF" points="654.66,5.536 652.429,5.536 652.429,9.094 654.594,9.094 654.594,9.95 652.429,9.95 
		652.429,13.909 654.66,13.909 654.66,14.766 651.492,14.766 651.492,4.681 654.66,4.681 	"/>
	<path fill="#FFFFFF" d="M657.911,12.88c0,1.256-0.078,2.018-1.443,2.018c-0.388,0-0.736-0.08-1.096-0.255v-0.975
		c0.268,0.24,0.561,0.439,0.923,0.439c0.601,0,0.681-0.506,0.681-1.055V4.681h0.936V12.88z"/>
	<polygon fill="#FFFFFF" points="662.688,5.536 660.455,5.536 660.455,9.094 662.621,9.094 662.621,9.95 660.455,9.95 
		660.455,13.909 662.688,13.909 662.688,14.766 659.52,14.766 659.52,4.681 662.688,4.681 	"/>
	<path fill="#FFFFFF" d="M667.548,6.272c-0.405-0.454-0.848-0.815-1.488-0.815c-0.936,0-1.455,0.776-1.455,1.632
		c0,1.175,0.854,1.724,1.724,2.312c0.855,0.602,1.711,1.243,1.711,2.636c0,1.47-0.951,2.861-2.526,2.861
		c-0.563,0-1.139-0.161-1.593-0.51v-1.216c0.429,0.454,0.989,0.814,1.633,0.814c0.988,0,1.535-0.868,1.523-1.777
		c0.012-1.176-0.855-1.698-1.71-2.3c-0.856-0.588-1.728-1.244-1.728-2.688c0-1.35,0.831-2.676,2.313-2.676
		c0.602,0,1.112,0.201,1.596,0.536V6.272z"/>
	<path fill="#FFFFFF" d="M670.517,14.188c0,0.376-0.308,0.684-0.681,0.684c-0.377,0-0.685-0.308-0.685-0.684
		c0-0.374,0.308-0.682,0.685-0.682C670.209,13.507,670.517,13.814,670.517,14.188"/>
</g>
</svg>
