<?xml version="1.0" encoding="utf-8"?>
<!-- Generator: Adobe Illustrator 16.0.4, SVG Export Plug-In . SVG Version: 6.00 Build 0)  -->
<!DOCTYPE svg PUBLIC "-//W3C//DTD SVG 1.1//EN" "http://www.w3.org/Graphics/SVG/1.1/DTD/svg11.dtd">
<svg version="1.1" id="Layer_1" xmlns="http://www.w3.org/2000/svg" xmlns:xlink="http://www.w3.org/1999/xlink" x="0px" y="0px"
	 width="100%" height="100%" viewBox="0.002 -7.635 399.996 86.373" enable-background="new 0.002 -7.635 399.996 86.373"
	 xml:space="preserve">
<g>
	<path fill="#FFFFFF" d="M14.917,25.277c1.465,0,2.664-0.456,3.566-1.357c0.899-0.901,1.355-2.079,1.355-3.499
		c0-1.469-0.46-2.66-1.369-3.543c-0.9-0.871-2.095-1.312-3.553-1.312c-1.42,0-2.586,0.445-3.465,1.324
		c-0.879,0.878-1.325,2.066-1.325,3.531c0,1.417,0.442,2.591,1.313,3.487C12.319,24.816,13.489,25.277,14.917,25.277z"/>
	<path fill="#FFFFFF" d="M24.023,56.489c-0.121-0.274-0.356-0.484-0.644-0.573c-0.288-0.09-0.599-0.05-0.855,0.108
		c-1.105,0.68-2.447,1.281-3.987,1.791c-1.512,0.498-3.017,0.749-4.474,0.749c-2.4,0-4.1-0.527-5.05-1.567
		c-0.988-1.082-1.469-2.465-1.469-4.228c0-1.328,0.242-2.517,0.722-3.533c0.512-1.085,1.156-2.124,1.914-3.086
		c0.792-1.006,1.657-2.013,2.572-2.992c0.973-1.04,1.889-2.174,2.723-3.368c0.853-1.22,1.577-2.586,2.155-4.065
		c0.593-1.517,0.894-3.281,0.894-5.244v-0.723c0-0.324-0.029-0.635-0.085-0.923c-0.095-0.49-0.524-0.844-1.023-0.844h-4.339
		c-0.576,0-1.043,0.467-1.043,1.043c0,1.689-0.27,3.164-0.801,4.384c-0.555,1.272-1.263,2.47-2.104,3.559
		c-0.868,1.122-1.814,2.209-2.812,3.228c-1.061,1.083-2.064,2.259-2.984,3.494c-0.948,1.271-1.744,2.699-2.367,4.244
		c-0.639,1.586-0.963,3.453-0.963,5.551c0,1.652,0.266,3.202,0.789,4.604c0.533,1.431,1.357,2.698,2.45,3.768
		c1.087,1.062,2.448,1.903,4.047,2.5c1.578,0.588,3.415,0.888,5.46,0.888c2.813,0,5.222-0.316,7.156-0.938
		c1.907-0.612,3.751-1.453,5.481-2.5c0.449-0.271,0.626-0.835,0.413-1.314L24.023,56.489z"/>
	<path fill="#FFFFFF" d="M49.698,52.102c6.354,0,11.329-2.2,14.787-6.54c3.4-4.27,5.125-10.427,5.125-18.304
		c0-3.662-0.388-7.034-1.15-10.021c-0.777-3.035-1.997-5.681-3.627-7.861c-1.651-2.208-3.76-3.94-6.268-5.148
		c-2.498-1.202-5.481-1.812-8.867-1.812c-6.312,0-11.255,2.202-14.69,6.543c-3.378,4.267-5.091,10.424-5.091,18.301
		c0,3.668,0.388,7.04,1.15,10.022c0.776,3.037,1.996,5.682,3.627,7.86c1.647,2.207,3.743,3.938,6.23,5.147
		C43.403,51.491,46.354,52.102,49.698,52.102z M49.698,9.365c2.068,0,3.861,0.466,5.33,1.386c1.499,0.939,2.759,2.221,3.744,3.808
		c1.007,1.624,1.759,3.549,2.235,5.723c0.485,2.218,0.731,4.564,0.731,6.977c0,6.182-1.102,10.783-3.274,13.675
		c-2.136,2.839-5.003,4.218-8.767,4.218c-2.027,0-3.799-0.465-5.265-1.385c-1.498-0.938-2.745-2.216-3.707-3.8
		c-0.988-1.628-1.731-3.545-2.207-5.7c-0.485-2.194-0.731-4.552-0.731-7.008c0-6.185,1.092-10.787,3.246-13.678
		C43.146,10.744,45.979,9.365,49.698,9.365z"/>
	<path fill="#FFFFFF" d="M73.329,55.764c-3.861,0.897-7.956,0.793-11.494-0.033c-1.935-0.451-3.863-0.954-5.73-1.497
		c-1.858-0.541-3.738-1.053-5.592-1.521c-1.894-0.48-3.827-0.723-5.745-0.723c-0.671,0-1.323,0.049-1.935,0.145
		c-0.589,0.09-1.201,0.203-1.835,0.339c-0.48,0.104-0.824,0.528-0.824,1.02v4.799c0,0.326,0.151,0.633,0.41,0.829
		c0.258,0.196,0.593,0.262,0.907,0.177c2.256-0.617,4.849-0.41,7.619,0.301c1.789,0.457,3.656,0.959,5.599,1.506
		c1.972,0.553,4.026,1.067,6.106,1.526c2.145,0.475,4.376,0.715,6.635,0.715c1.036,0,2.092-0.058,3.138-0.171
		c1.062-0.116,2.162-0.337,3.269-0.659c0.444-0.13,0.751-0.537,0.751-1.001v-4.733c0-0.318-0.146-0.62-0.395-0.816
		C73.964,55.766,73.638,55.692,73.329,55.764z"/>
	<path fill="#FFFFFF" d="M103.669,40.935V17.396c0-0.576-0.467-1.043-1.043-1.043h-5.26c-0.576,0-1.043,0.467-1.043,1.043v21.772
		c-0.314,0.828-0.712,1.618-1.183,2.354c-0.498,0.776-1.08,1.469-1.73,2.06c-0.629,0.572-1.354,1.027-2.156,1.351
		c-0.79,0.319-1.721,0.482-2.764,0.482c-1.096,0-1.994-0.18-2.672-0.538c-0.657-0.345-1.163-0.845-1.549-1.53
		c-0.417-0.737-0.719-1.702-0.896-2.864c-0.188-1.234-0.283-2.697-0.283-4.348V17.396c0-0.576-0.467-1.043-1.043-1.043h-5.261
		c-0.576,0-1.043,0.467-1.043,1.043v19.856c0,2.793,0.244,5.148,0.726,7c0.497,1.921,1.255,3.487,2.253,4.656
		c1.023,1.199,2.314,2.049,3.837,2.522c1.433,0.445,3.096,0.671,4.945,0.671c2.827,0,5.211-0.635,7.087-1.885
		c1.271-0.847,2.374-1.854,3.292-3.007l0.839,3.315c0.117,0.464,0.533,0.787,1.011,0.787h3.617c0.313,0,0.61-0.142,0.809-0.384
		c0.197-0.244,0.275-0.563,0.212-0.87c-0.252-1.218-0.434-2.662-0.539-4.294C103.723,44.109,103.669,42.484,103.669,40.935z"/>
	<path fill="#FFFFFF" d="M134.495,18.151c-1.3-1.011-2.788-1.707-4.426-2.068c-1.558-0.344-3.138-0.518-4.695-0.518
		c-4.943,0-8.815,1.605-11.512,4.772c-2.651,3.117-3.996,7.658-3.996,13.496c0,2.71,0.3,5.189,0.892,7.374
		c0.603,2.227,1.55,4.177,2.815,5.793c1.285,1.644,2.946,2.922,4.937,3.797c1.967,0.865,4.298,1.305,6.93,1.305
		c2.327,0,4.564-0.325,6.652-0.967c2.11-0.649,3.896-1.551,5.308-2.681c0.389-0.31,0.504-0.852,0.275-1.293l-1.973-3.813
		c-0.15-0.29-0.429-0.493-0.751-0.549c-0.321-0.052-0.651,0.045-0.89,0.269c-0.636,0.598-1.641,1.142-2.985,1.618
		c-1.373,0.483-2.761,0.729-4.125,0.729c-1.784,0-3.299-0.251-4.502-0.744c-1.168-0.478-2.123-1.17-2.84-2.059
		c-0.734-0.907-1.288-2.048-1.644-3.392c-0.298-1.124-0.477-2.404-0.535-3.818h20.041c0.517,0,0.955-0.378,1.031-0.889
		c0.27-1.797,0.406-3.463,0.406-4.953c0-2.894-0.406-5.281-1.207-7.096C136.888,20.623,135.81,19.172,134.495,18.151z
		 M117.609,29.174c0.366-2.397,1.139-4.125,2.302-5.141c1.354-1.183,3.215-1.781,5.528-1.781c2.043,0,3.56,0.55,4.636,1.681
		c0.947,0.997,1.483,2.758,1.597,5.241H117.609z"/>
	<path fill="#FFFFFF" d="M122.941,13.771h3.09c0.319,0,0.62-0.146,0.818-0.397l6.641-8.416c0.146-0.184,0.225-0.411,0.225-0.646
		V2.931c0-0.576-0.467-1.043-1.043-1.043h-5.851c-0.428,0-0.812,0.262-0.97,0.659l-3.88,9.797c-0.127,0.321-0.086,0.685,0.107,0.97
		C122.273,13.599,122.597,13.771,122.941,13.771z"/>
	<path fill="#FFFFFF" d="M170.731,14.49h-5.558c-0.576,0-1.043,0.467-1.043,1.043v34.738c0,0.576,0.467,1.042,1.043,1.042h5.558
		c0.575,0,1.042-0.466,1.042-1.042V15.532C171.773,14.956,171.307,14.49,170.731,14.49z"/>
	<path fill="#FFFFFF" d="M167.814,0.038c-1.407,0-2.586,0.497-3.504,1.476c-0.902,0.959-1.36,2.122-1.36,3.458
		c0,1.355,0.469,2.495,1.394,3.39c0.915,0.886,2.082,1.335,3.471,1.335c1.366,0,2.556-0.438,3.538-1.303
		c1.018-0.898,1.533-2.05,1.533-3.422c0-1.352-0.503-2.527-1.498-3.492C170.401,0.524,169.198,0.038,167.814,0.038z"/>
	<path fill="#FFFFFF" d="M208.379,17.009c-1.075-1.259-2.443-2.148-4.065-2.646c-1.529-0.469-3.314-0.706-5.307-0.706
		c-2.746,0-5.16,0.517-7.176,1.536c-1.429,0.725-2.666,1.605-3.693,2.63l-0.625-2.539c-0.114-0.466-0.532-0.794-1.012-0.794h-3.891
		c-0.576,0-1.043,0.467-1.043,1.043v34.738c0,0.576,0.467,1.042,1.043,1.042h5.558c0.576,0,1.043-0.466,1.043-1.042V26.679
		c0.591-1.724,1.597-3.181,2.991-4.333c1.419-1.172,3.19-1.741,5.415-1.741c2.396,0,3.976,0.726,4.825,2.218
		c0.947,1.662,1.427,4.235,1.427,7.647v19.801c0,0.576,0.466,1.042,1.042,1.042h5.559c0.576,0,1.043-0.466,1.043-1.042V29.289
		c0-2.947-0.257-5.431-0.763-7.384C210.225,19.884,209.428,18.237,208.379,17.009z"/>
	<path fill="#FFFFFF" d="M243.457,43.331c-0.127-0.298-0.385-0.519-0.699-0.601c-0.311-0.078-0.645-0.012-0.899,0.187
		c-0.751,0.583-1.747,1.117-2.967,1.586c-1.191,0.461-2.572,0.694-4.105,0.694c-1.756,0-3.231-0.328-4.388-0.978
		c-1.169-0.655-2.123-1.536-2.836-2.619c-0.735-1.112-1.27-2.418-1.589-3.883c-0.329-1.519-0.496-3.139-0.496-4.816
		c0-8.274,2.886-12.297,8.822-12.297c1.386,0,2.697,0.163,3.899,0.485s2.313,0.769,3.301,1.325c0.271,0.153,0.596,0.177,0.888,0.065
		c0.29-0.112,0.516-0.349,0.613-0.644l1.599-4.794c0.162-0.486-0.054-1.02-0.511-1.256c-1.324-0.687-2.823-1.219-4.456-1.585
		c-1.618-0.362-3.601-0.546-5.889-0.546c-5.166,0-9.2,1.705-11.988,5.066c-2.74,3.303-4.13,8.073-4.13,14.179
		c0,2.804,0.278,5.396,0.827,7.709c0.562,2.373,1.485,4.44,2.745,6.146c1.282,1.733,2.948,3.083,4.951,4.009
		c1.982,0.916,4.421,1.382,7.248,1.382c2.166,0,4.271-0.281,6.255-0.838c2.011-0.563,3.783-1.401,5.269-2.491
		c0.391-0.286,0.532-0.804,0.343-1.249L243.457,43.331z"/>
	<path fill="#FFFFFF" d="M266.166,44.58c-0.27-0.16-0.599-0.192-0.895-0.081c-0.804,0.296-1.522,0.487-2.14,0.57
		c-0.639,0.085-1.247,0.128-1.806,0.128c-0.922,0-1.325-0.37-1.548-0.65c-0.276-0.344-0.605-1.114-0.605-2.821V1.638
		c0-0.576-0.466-1.043-1.043-1.043h-5.559c-0.575,0-1.043,0.467-1.043,1.043v41.685c0,3.126,0.798,5.412,2.37,6.793
		c1.533,1.348,3.494,2.031,5.829,2.031c1.026,0,2.243-0.122,3.62-0.362c1.438-0.253,2.542-0.581,3.377-0.999
		c0.402-0.2,0.63-0.636,0.566-1.079l-0.626-4.378C266.62,45.018,266.438,44.742,266.166,44.58z"/>
	<path fill="#FFFFFF" d="M300.024,40.406V15.532c0-0.576-0.466-1.043-1.043-1.043h-5.559c-0.575,0-1.043,0.467-1.043,1.043V38.55
		c-0.333,0.88-0.756,1.724-1.258,2.507c-0.529,0.824-1.147,1.561-1.839,2.189c-0.671,0.609-1.442,1.094-2.296,1.438
		c-0.843,0.341-1.833,0.513-2.943,0.513c-1.167,0-2.125-0.192-2.85-0.574c-0.705-0.371-1.25-0.906-1.662-1.64
		c-0.443-0.785-0.766-1.811-0.955-3.048c-0.198-1.308-0.299-2.856-0.299-4.603V15.532c0-0.576-0.466-1.043-1.043-1.043h-5.559
		c-0.575,0-1.043,0.467-1.043,1.043v20.981c0,2.947,0.258,5.431,0.764,7.383c0.524,2.023,1.322,3.672,2.37,4.897
		c1.075,1.258,2.43,2.148,4.025,2.645c1.508,0.47,3.26,0.708,5.209,0.708c2.974,0,5.484-0.667,7.456-1.98
		c1.374-0.917,2.559-2.009,3.538-3.261l0.918,3.62c0.117,0.464,0.533,0.787,1.01,0.787h3.822c0.313,0,0.61-0.142,0.809-0.384
		c0.197-0.244,0.275-0.563,0.212-0.87c-0.268-1.292-0.46-2.82-0.572-4.546C300.081,43.777,300.024,42.059,300.024,40.406z"/>
	<path fill="#FFFFFF" d="M336.079,14.49h-5.558c-0.46,0-0.864,0.302-0.997,0.742l-6.784,22.51l-0.796,3.502l-1.045-3.564
		l-8.367-22.51c-0.152-0.408-0.543-0.68-0.978-0.68h-6.392c-0.346,0-0.67,0.173-0.864,0.46c-0.193,0.286-0.232,0.65-0.103,0.973
		l13.84,34.428c-0.731,2.984-1.633,5.098-2.678,6.282c-0.994,1.127-1.993,1.698-2.971,1.698c-0.424,0-0.882-0.095-1.36-0.279
		c-0.287-0.109-0.606-0.088-0.877,0.06c-0.268,0.146-0.458,0.406-0.521,0.706l-0.974,4.794c-0.096,0.482,0.157,0.968,0.607,1.164
		c1.193,0.518,2.713,0.78,4.515,0.78c1.775,0,3.36-0.587,4.71-1.746c1.245-1.072,2.375-2.512,3.356-4.278
		c0.951-1.713,1.828-3.683,2.606-5.852c0.766-2.134,1.542-4.336,2.337-6.625l10.281-31.195c0.104-0.317,0.051-0.666-0.146-0.937
		C336.728,14.651,336.414,14.49,336.079,14.49z"/>
	<path fill="#FFFFFF" d="M364.233,16.377c-1.368-1.063-2.934-1.796-4.653-2.176c-1.642-0.361-3.308-0.545-4.95-0.545
		c-5.205,0-9.281,1.689-12.118,5.021c-2.792,3.282-4.209,8.067-4.209,14.224c0,2.861,0.316,5.477,0.939,7.776
		c0.636,2.347,1.633,4.399,2.965,6.102c1.353,1.728,3.101,3.071,5.194,3.993c2.069,0.912,4.524,1.374,7.298,1.374
		c2.452,0,4.812-0.343,7.011-1.019c2.223-0.684,4.104-1.633,5.59-2.822c0.388-0.312,0.504-0.852,0.275-1.293l-2.084-4.03
		c-0.15-0.29-0.429-0.494-0.75-0.549c-0.324-0.055-0.652,0.044-0.891,0.27c-0.677,0.636-1.744,1.215-3.176,1.721
		c-1.456,0.515-2.93,0.773-4.378,0.773c-1.894,0-3.502-0.266-4.78-0.79c-1.243-0.509-2.259-1.246-3.024-2.192
		c-0.782-0.968-1.369-2.181-1.747-3.605c-0.32-1.208-0.512-2.587-0.569-4.109h21.238c0.516,0,0.953-0.378,1.03-0.889
		c0.285-1.896,0.429-3.655,0.429-5.226c0-3.049-0.428-5.562-1.27-7.474C366.748,18.978,365.613,17.451,364.233,16.377z
		 M346.355,28.037c0.386-2.583,1.212-4.442,2.465-5.536c1.44-1.259,3.419-1.896,5.879-1.896c2.176,0,3.792,0.587,4.94,1.795
		c1.021,1.072,1.593,2.967,1.707,5.638H346.355z"/>
	<path fill="#FFFFFF" d="M384.227,42.002c-1.485,0-2.703,0.465-3.619,1.383c-0.917,0.917-1.383,2.158-1.383,3.69
		c0,1.48,0.462,2.707,1.37,3.642c0.919,0.949,2.141,1.43,3.632,1.43c1.529,0,2.783-0.477,3.725-1.417
		c0.94-0.938,1.418-2.169,1.418-3.654c0-1.537-0.481-2.782-1.429-3.703C386.999,42.463,385.751,42.002,384.227,42.002z"/>
	<path fill="#FFFFFF" d="M399.17,7.323c-0.562-1.531-1.429-2.877-2.577-3.999c-1.143-1.116-2.573-2-4.255-2.628
		c-1.663-0.62-3.599-0.935-5.749-0.935c-2.968,0-5.505,0.333-7.543,0.988c-2.016,0.647-3.959,1.534-5.78,2.637
		c-0.446,0.27-0.624,0.829-0.415,1.308l1.875,4.308c0.121,0.278,0.359,0.49,0.648,0.58c0.29,0.089,0.605,0.048,0.862-0.113
		c1.174-0.739,2.596-1.394,4.226-1.945c1.6-0.539,3.192-0.813,4.738-0.813c2.554,0,4.362,0.564,5.379,1.676
		c1.054,1.155,1.567,2.63,1.567,4.508c0,1.413-0.259,2.678-0.769,3.758c-0.543,1.151-1.226,2.253-2.029,3.273
		c-0.838,1.064-1.754,2.129-2.723,3.164c-1.024,1.097-1.991,2.293-2.872,3.555c-0.899,1.289-1.664,2.73-2.27,4.281
		c-0.624,1.595-0.939,3.452-0.939,5.521v0.765c0,0.35,0.031,0.678,0.091,0.973c0.099,0.485,0.526,0.835,1.021,0.835h4.584
		c0.576,0,1.043-0.468,1.043-1.044c0-1.792,0.287-3.357,0.853-4.655c0.588-1.353,1.338-2.621,2.229-3.773
		c0.922-1.191,1.923-2.341,2.978-3.417c1.118-1.144,2.178-2.383,3.148-3.685c1.001-1.344,1.839-2.848,2.492-4.471
		c0.673-1.667,1.014-3.633,1.014-5.844C399.998,10.439,399.72,8.822,399.17,7.323z"/>
	<path fill="#FFFFFF" d="M397.043,78.739H3.487c-0.606,0-1.098-0.492-1.098-1.098c0-0.606,0.491-1.097,1.098-1.097h393.556
		c0.605,0,1.098,0.49,1.098,1.097C398.141,78.246,397.648,78.739,397.043,78.739z"/>
	<path fill="#FFFFFF" d="M397.043-5.44H3.487c-0.606,0-1.098-0.491-1.098-1.097c0-0.606,0.491-1.098,1.098-1.098h393.556
		c0.605,0,1.098,0.491,1.098,1.098C398.141-5.931,397.648-5.44,397.043-5.44z"/>
</g>
</svg>
