<?xml version="1.0" encoding="utf-8"?>
<!-- Generator: Adobe Illustrator 16.0.4, SVG Export Plug-In . SVG Version: 6.00 Build 0)  -->
<!DOCTYPE svg PUBLIC "-//W3C//DTD SVG 1.1//EN" "http://www.w3.org/Graphics/SVG/1.1/DTD/svg11.dtd">
<svg version="1.1" id="Capa_1" xmlns="http://www.w3.org/2000/svg" xmlns:xlink="http://www.w3.org/1999/xlink" x="0px" y="0px"
	 width="44.746px" height="48px" viewBox="577.627 290 44.746 48" enable-background="new 577.627 290 44.746 48"
	 xml:space="preserve">
<path d="M614.237,321.729c-2.173,0-4.216,0.847-5.753,2.383c-0.426,0.427-0.793,0.896-1.11,1.391l-14.058-8.533
	c0.372-0.931,0.583-1.943,0.583-3.004c0-1.062-0.211-2.074-0.582-3.004l14.062-8.469c1.445,2.269,3.977,3.78,6.859,3.78
	c4.486,0,8.136-3.649,8.136-8.135c0-4.486-3.649-8.136-8.136-8.136s-8.136,3.649-8.136,8.136c0,1.021,0.198,1.996,0.543,2.898
	l-14.08,8.479c-1.455-2.216-3.959-3.685-6.802-3.685c-4.486,0-8.136,3.649-8.136,8.136c0,4.486,3.65,8.135,8.136,8.135
	c2.843,0,5.347-1.469,6.801-3.685l14.078,8.545c-0.35,0.916-0.54,1.895-0.54,2.904c0,2.173,0.847,4.217,2.383,5.753
	c1.537,1.537,3.58,2.383,5.753,2.383s4.216-0.846,5.753-2.383c1.537-1.536,2.383-3.58,2.383-5.753s-0.846-4.217-2.383-5.753
	S616.41,321.729,614.237,321.729z"/>
</svg>
