<?xml version="1.0" encoding="utf-8"?>
<!-- Generator: Adobe Illustrator 16.0.4, SVG Export Plug-In . SVG Version: 6.00 Build 0)  -->
<!DOCTYPE svg PUBLIC "-//W3C//DTD SVG 1.1//EN" "http://www.w3.org/Graphics/SVG/1.1/DTD/svg11.dtd">
<svg version="1.1" id="Layer_1" xmlns="http://www.w3.org/2000/svg" xmlns:xlink="http://www.w3.org/1999/xlink" x="0px" y="0px"
	 width="34px" height="27.997px" viewBox="0 0 34 27.997" enable-background="new 0 0 34 27.997" xml:space="preserve">
<path d="M34,3.314c-1.251,0.562-2.596,0.942-4.006,1.113c1.439-0.875,2.546-2.259,3.066-3.91c-1.35,0.81-2.843,1.397-4.432,1.715
	C27.357,0.859,25.545,0,23.539,0c-3.852,0-6.975,3.165-6.975,7.068c0,0.553,0.062,1.093,0.181,1.61
	C10.947,8.384,5.807,5.57,2.367,1.294c-0.6,1.043-0.944,2.258-0.944,3.554c0,2.452,1.231,4.615,3.103,5.883
	c-1.143-0.037-2.219-0.355-3.159-0.884C1.365,9.875,1.365,9.905,1.365,9.935c0,3.425,2.405,6.28,5.596,6.931
	c-0.585,0.161-1.202,0.248-1.838,0.248c-0.449,0-0.886-0.044-1.312-0.127c0.888,2.809,3.464,4.852,6.516,4.908
	C7.939,23.79,4.932,24.92,1.664,24.92c-0.562,0-1.118-0.033-1.664-0.101c3.087,2.007,6.753,3.177,10.692,3.177
	c12.832,0,19.846-10.771,19.846-20.109c0-0.306-0.006-0.611-0.021-0.914C31.882,5.977,33.064,4.732,34,3.314z"/>
</svg>
